<?xml version="1.0" encoding="utf-8"?>
<svg xmlns="http://www.w3.org/2000/svg" version="1.1" width="1000" height="800">
<ellipse cx="844.266" cy="118.569" rx="6.25" ry="6.25" fill="rgb(169,234,254)" />
<ellipse cx="856.766" cy="122.736" rx="16.6667" ry="8.33333" fill="rgb(169,234,254)" />
<ellipse cx="856.766" cy="114.402" rx="16.6667" ry="8.33333" fill="rgb(169,234,254)" />
<ellipse cx="831.766" cy="114.402" rx="16.6667" ry="8.33333" fill="rgb(169,234,254)" />
<ellipse cx="844.266" cy="123.569" rx="16.6667" ry="8.33333" fill="rgb(169,234,254)" />
<ellipse cx="623.564" cy="169.45" rx="6.25" ry="6.25" fill="rgb(169,234,254)" />
<ellipse cx="636.064" cy="173.617" rx="16.6667" ry="8.33333" fill="rgb(169,234,254)" />
<ellipse cx="636.064" cy="165.284" rx="16.6667" ry="8.33333" fill="rgb(169,234,254)" />
<ellipse cx="623.564" cy="174.45" rx="16.6667" ry="8.33333" fill="rgb(169,234,254)" />
<ellipse cx="56.713" cy="59.5069" rx="6.25" ry="6.25" fill="rgb(169,234,254)" />
<ellipse cx="69.213" cy="63.6736" rx="16.6667" ry="8.33333" fill="rgb(169,234,254)" />
<ellipse cx="69.213" cy="55.3403" rx="16.6667" ry="8.33333" fill="rgb(169,234,254)" />
<ellipse cx="44.213" cy="63.6736" rx="16.6667" ry="8.33333" fill="rgb(169,234,254)" />
<ellipse cx="44.213" cy="55.3403" rx="16.6667" ry="8.33333" fill="rgb(169,234,254)" />
<ellipse cx="56.713" cy="54.5069" rx="16.6667" ry="8.33333" fill="rgb(169,234,254)" />
<ellipse cx="812.169" cy="95.533" rx="6.25" ry="6.25" fill="rgb(169,234,254)" />
<ellipse cx="824.669" cy="99.6997" rx="16.6667" ry="8.33333" fill="rgb(169,234,254)" />
<ellipse cx="824.669" cy="91.3664" rx="16.6667" ry="8.33333" fill="rgb(169,234,254)" />
<ellipse cx="799.669" cy="99.6997" rx="16.6667" ry="8.33333" fill="rgb(169,234,254)" />
<ellipse cx="799.669" cy="91.3664" rx="16.6667" ry="8.33333" fill="rgb(169,234,254)" />
<ellipse cx="812.169" cy="100.533" rx="16.6667" ry="8.33333" fill="rgb(169,234,254)" />
<ellipse cx="836.079" cy="78.557" rx="6.25" ry="6.25" fill="rgb(169,234,254)" />
<ellipse cx="848.579" cy="82.7236" rx="16.6667" ry="8.33333" fill="rgb(169,234,254)" />
<ellipse cx="848.579" cy="74.3903" rx="16.6667" ry="8.33333" fill="rgb(169,234,254)" />
<ellipse cx="836.079" cy="83.557" rx="16.6667" ry="8.33333" fill="rgb(169,234,254)" />
<ellipse cx="368.242" cy="129.634" rx="6.25" ry="6.25" fill="rgb(169,234,254)" />
<ellipse cx="380.742" cy="133.801" rx="16.6667" ry="8.33333" fill="rgb(169,234,254)" />
<ellipse cx="380.742" cy="125.468" rx="16.6667" ry="8.33333" fill="rgb(169,234,254)" />
<ellipse cx="355.742" cy="125.468" rx="16.6667" ry="8.33333" fill="rgb(169,234,254)" />
<ellipse cx="368.242" cy="134.634" rx="16.6667" ry="8.33333" fill="rgb(169,234,254)" />
<ellipse cx="368.242" cy="124.634" rx="16.6667" ry="8.33333" fill="rgb(169,234,254)" />
<ellipse cx="870.087" cy="28.0702" rx="6.25" ry="6.25" fill="rgb(169,234,254)" />
<ellipse cx="882.587" cy="32.2368" rx="16.6667" ry="8.33333" fill="rgb(169,234,254)" />
<ellipse cx="882.587" cy="23.9035" rx="16.6667" ry="8.33333" fill="rgb(169,234,254)" />
<ellipse cx="857.587" cy="32.2368" rx="16.6667" ry="8.33333" fill="rgb(169,234,254)" />
<ellipse cx="857.587" cy="23.9035" rx="16.6667" ry="8.33333" fill="rgb(169,234,254)" />
<ellipse cx="870.087" cy="33.0702" rx="16.6667" ry="8.33333" fill="rgb(169,234,254)" />
<ellipse cx="520.477" cy="160.182" rx="6.25" ry="6.25" fill="rgb(169,234,254)" />
<ellipse cx="532.977" cy="164.349" rx="16.6667" ry="8.33333" fill="rgb(169,234,254)" />
<ellipse cx="532.977" cy="156.015" rx="16.6667" ry="8.33333" fill="rgb(169,234,254)" />
<ellipse cx="507.977" cy="156.015" rx="16.6667" ry="8.33333" fill="rgb(169,234,254)" />
<ellipse cx="520.477" cy="155.182" rx="16.6667" ry="8.33333" fill="rgb(169,234,254)" />
<ellipse cx="582.02" cy="144.127" rx="6.25" ry="6.25" fill="rgb(169,234,254)" />
<ellipse cx="594.52" cy="148.293" rx="16.6667" ry="8.33333" fill="rgb(169,234,254)" />
<ellipse cx="594.52" cy="139.96" rx="16.6667" ry="8.33333" fill="rgb(169,234,254)" />
<ellipse cx="569.52" cy="139.96" rx="16.6667" ry="8.33333" fill="rgb(169,234,254)" />
<ellipse cx="582.02" cy="149.127" rx="16.6667" ry="8.33333" fill="rgb(169,234,254)" />
<ellipse cx="105.908" cy="151.723" rx="6.25" ry="6.25" fill="rgb(169,234,254)" />
<ellipse cx="118.408" cy="155.89" rx="16.6667" ry="8.33333" fill="rgb(169,234,254)" />
<ellipse cx="118.408" cy="147.556" rx="16.6667" ry="8.33333" fill="rgb(169,234,254)" />
<ellipse cx="93.4076" cy="155.89" rx="16.6667" ry="8.33333" fill="rgb(169,234,254)" />
<ellipse cx="93.4076" cy="147.556" rx="16.6667" ry="8.33333" fill="rgb(169,234,254)" />
<ellipse cx="105.908" cy="156.723" rx="16.6667" ry="8.33333" fill="rgb(169,234,254)" />
<ellipse cx="736.918" cy="37.2665" rx="6.25" ry="6.25" fill="rgb(169,234,254)" />
<ellipse cx="749.418" cy="41.4331" rx="16.6667" ry="8.33333" fill="rgb(169,234,254)" />
<ellipse cx="749.418" cy="33.0998" rx="16.6667" ry="8.33333" fill="rgb(169,234,254)" />
<ellipse cx="724.418" cy="41.4331" rx="16.6667" ry="8.33333" fill="rgb(169,234,254)" />
<ellipse cx="324.141" cy="27.0436" rx="6.25" ry="6.25" fill="rgb(169,234,254)" />
<ellipse cx="336.641" cy="31.2103" rx="16.6667" ry="8.33333" fill="rgb(169,234,254)" />
<ellipse cx="336.641" cy="22.877" rx="16.6667" ry="8.33333" fill="rgb(169,234,254)" />
<ellipse cx="324.141" cy="32.0436" rx="16.6667" ry="8.33333" fill="rgb(169,234,254)" />
<ellipse cx="386.489" cy="44.4643" rx="6.25" ry="6.25" fill="rgb(169,234,254)" />
<ellipse cx="398.989" cy="48.6309" rx="16.6667" ry="8.33333" fill="rgb(169,234,254)" />
<ellipse cx="398.989" cy="40.2976" rx="16.6667" ry="8.33333" fill="rgb(169,234,254)" />
<ellipse cx="373.989" cy="48.6309" rx="16.6667" ry="8.33333" fill="rgb(169,234,254)" />
<ellipse cx="386.489" cy="49.4643" rx="16.6667" ry="8.33333" fill="rgb(169,234,254)" />
<ellipse cx="386.489" cy="39.4643" rx="16.6667" ry="8.33333" fill="rgb(169,234,254)" />
<ellipse cx="613.063" cy="89.99" rx="6.25" ry="6.25" fill="rgb(169,234,254)" />
<ellipse cx="625.563" cy="94.1567" rx="16.6667" ry="8.33333" fill="rgb(169,234,254)" />
<ellipse cx="625.563" cy="85.8233" rx="16.6667" ry="8.33333" fill="rgb(169,234,254)" />
<ellipse cx="600.563" cy="94.1567" rx="16.6667" ry="8.33333" fill="rgb(169,234,254)" />
<ellipse cx="613.063" cy="94.99" rx="16.6667" ry="8.33333" fill="rgb(169,234,254)" />
<ellipse cx="613.063" cy="84.99" rx="16.6667" ry="8.33333" fill="rgb(169,234,254)" />
<ellipse cx="969.809" cy="19.8561" rx="6.25" ry="6.25" fill="rgb(169,234,254)" />
<ellipse cx="982.309" cy="24.0227" rx="16.6667" ry="8.33333" fill="rgb(169,234,254)" />
<ellipse cx="982.309" cy="15.6894" rx="16.6667" ry="8.33333" fill="rgb(169,234,254)" />
<ellipse cx="957.309" cy="24.0227" rx="16.6667" ry="8.33333" fill="rgb(169,234,254)" />
<ellipse cx="358.152" cy="34.1819" rx="6.25" ry="6.25" fill="rgb(169,234,254)" />
<ellipse cx="370.652" cy="38.3486" rx="16.6667" ry="8.33333" fill="rgb(169,234,254)" />
<ellipse cx="370.652" cy="30.0153" rx="16.6667" ry="8.33333" fill="rgb(169,234,254)" />
<ellipse cx="345.652" cy="38.3486" rx="16.6667" ry="8.33333" fill="rgb(169,234,254)" />
<ellipse cx="358.152" cy="29.1819" rx="16.6667" ry="8.33333" fill="rgb(169,234,254)" />
<ellipse cx="325.047" cy="121.566" rx="6.25" ry="6.25" fill="rgb(169,234,254)" />
<ellipse cx="337.547" cy="125.733" rx="16.6667" ry="8.33333" fill="rgb(169,234,254)" />
<ellipse cx="337.547" cy="117.399" rx="16.6667" ry="8.33333" fill="rgb(169,234,254)" />
<ellipse cx="312.547" cy="117.399" rx="16.6667" ry="8.33333" fill="rgb(169,234,254)" />
<ellipse cx="325.047" cy="126.566" rx="16.6667" ry="8.33333" fill="rgb(169,234,254)" />
<ellipse cx="325.047" cy="116.566" rx="16.6667" ry="8.33333" fill="rgb(169,234,254)" />
<ellipse cx="958.949" cy="126.855" rx="6.25" ry="6.25" fill="rgb(169,234,254)" />
<ellipse cx="971.449" cy="131.021" rx="16.6667" ry="8.33333" fill="rgb(169,234,254)" />
<ellipse cx="971.449" cy="122.688" rx="16.6667" ry="8.33333" fill="rgb(169,234,254)" />
<ellipse cx="946.449" cy="131.021" rx="16.6667" ry="8.33333" fill="rgb(169,234,254)" />
<ellipse cx="995.3" cy="127.012" rx="6.25" ry="6.25" fill="rgb(169,234,254)" />
<ellipse cx="1007.8" cy="131.178" rx="16.6667" ry="8.33333" fill="rgb(169,234,254)" />
<ellipse cx="1007.8" cy="122.845" rx="16.6667" ry="8.33333" fill="rgb(169,234,254)" />
<ellipse cx="982.8" cy="131.178" rx="16.6667" ry="8.33333" fill="rgb(169,234,254)" />
<ellipse cx="982.8" cy="122.845" rx="16.6667" ry="8.33333" fill="rgb(169,234,254)" />
<ellipse cx="474.698" cy="82.8737" rx="6.25" ry="6.25" fill="rgb(169,234,254)" />
<ellipse cx="487.198" cy="87.0404" rx="16.6667" ry="8.33333" fill="rgb(169,234,254)" />
<ellipse cx="487.198" cy="78.7071" rx="16.6667" ry="8.33333" fill="rgb(169,234,254)" />
<ellipse cx="474.698" cy="87.8737" rx="16.6667" ry="8.33333" fill="rgb(169,234,254)" />
<ellipse cx="674.752" cy="67.6015" rx="6.25" ry="6.25" fill="rgb(169,234,254)" />
<ellipse cx="687.252" cy="71.7682" rx="16.6667" ry="8.33333" fill="rgb(169,234,254)" />
<ellipse cx="687.252" cy="63.4349" rx="16.6667" ry="8.33333" fill="rgb(169,234,254)" />
<ellipse cx="662.252" cy="71.7682" rx="16.6667" ry="8.33333" fill="rgb(169,234,254)" />
<ellipse cx="662.252" cy="63.4349" rx="16.6667" ry="8.33333" fill="rgb(169,234,254)" />
<ellipse cx="674.752" cy="62.6015" rx="16.6667" ry="8.33333" fill="rgb(169,234,254)" />
<ellipse cx="949.571" cy="155.669" rx="6.25" ry="6.25" fill="rgb(169,234,254)" />
<ellipse cx="962.071" cy="159.836" rx="16.6667" ry="8.33333" fill="rgb(169,234,254)" />
<ellipse cx="962.071" cy="151.502" rx="16.6667" ry="8.33333" fill="rgb(169,234,254)" />
<ellipse cx="937.071" cy="151.502" rx="16.6667" ry="8.33333" fill="rgb(169,234,254)" />
<ellipse cx="949.571" cy="150.669" rx="16.6667" ry="8.33333" fill="rgb(169,234,254)" />
<ellipse cx="622.846" cy="2.71433" rx="6.25" ry="6.25" fill="rgb(169,234,254)" />
<ellipse cx="635.346" cy="6.881" rx="16.6667" ry="8.33333" fill="rgb(169,234,254)" />
<ellipse cx="635.346" cy="-1.45234" rx="16.6667" ry="8.33333" fill="rgb(169,234,254)" />
<ellipse cx="610.346" cy="-1.45234" rx="16.6667" ry="8.33333" fill="rgb(169,234,254)" />
<ellipse cx="622.846" cy="-2.28567" rx="16.6667" ry="8.33333" fill="rgb(169,234,254)" />
<ellipse cx="878.193" cy="194.389" rx="6.25" ry="6.25" fill="rgb(169,234,254)" />
<ellipse cx="890.693" cy="198.556" rx="16.6667" ry="8.33333" fill="rgb(169,234,254)" />
<ellipse cx="890.693" cy="190.222" rx="16.6667" ry="8.33333" fill="rgb(169,234,254)" />
<ellipse cx="865.693" cy="198.556" rx="16.6667" ry="8.33333" fill="rgb(169,234,254)" />
<ellipse cx="865.693" cy="190.222" rx="16.6667" ry="8.33333" fill="rgb(169,234,254)" />
<ellipse cx="878.193" cy="199.389" rx="16.6667" ry="8.33333" fill="rgb(169,234,254)" />
<ellipse cx="451.159" cy="11.1429" rx="6.25" ry="6.25" fill="rgb(169,234,254)" />
<ellipse cx="463.659" cy="15.3096" rx="16.6667" ry="8.33333" fill="rgb(169,234,254)" />
<ellipse cx="463.659" cy="6.97627" rx="16.6667" ry="8.33333" fill="rgb(169,234,254)" />
<ellipse cx="438.659" cy="15.3096" rx="16.6667" ry="8.33333" fill="rgb(169,234,254)" />
<ellipse cx="438.659" cy="6.97627" rx="16.6667" ry="8.33333" fill="rgb(169,234,254)" />
<ellipse cx="451.159" cy="16.1429" rx="16.6667" ry="8.33333" fill="rgb(169,234,254)" />
<ellipse cx="451.159" cy="6.14294" rx="16.6667" ry="8.33333" fill="rgb(169,234,254)" />
<polygon points=" 855.038,592.394 857.946,594.332 860.854,592.394 860.854,563.313 855.038,563.313 " fill=" rgb(91,60,17)" />
<polygon points=" 866.67,580.368 867.397,580.368 860.127,583.599 857.946,583.599 " fill=" rgb(91,60,17)" />
<polygon points=" 849.222,575.223 848.495,575.223 855.765,578.454 857.946,578.454 " fill=" rgb(91,60,17)" />
<ellipse cx="857.946" cy="563.313" rx="9.69343" ry="5.81606" fill="rgb(27,79,8)" />
<ellipse cx="867.033" cy="580.368" rx="4.84671" ry="2.90803" fill="rgb(27,79,8)" />
<ellipse cx="848.858" cy="575.223" rx="4.84671" ry="2.90803" fill="rgb(27,79,8)" />
<polygon points=" 295.054,599.474 297.535,601.128 300.016,599.474 300.016,574.664 295.054,574.664 " fill=" rgb(91,60,17)" />
<polygon points=" 304.978,577.742 305.598,577.742 299.395,580.499 297.535,580.499 " fill=" rgb(91,60,17)" />
<polygon points=" 290.091,583.434 289.471,583.434 295.674,586.191 297.535,586.191 " fill=" rgb(91,60,17)" />
<ellipse cx="297.535" cy="574.664" rx="8.27019" ry="4.96211" fill="rgb(27,79,8)" />
<ellipse cx="305.288" cy="577.742" rx="4.1351" ry="2.48106" fill="rgb(27,79,8)" />
<ellipse cx="289.781" cy="583.434" rx="4.1351" ry="2.48106" fill="rgb(27,79,8)" />
<polygon points=" 809.97,492.789 812.169,494.254 814.367,492.789 814.367,470.805 809.97,470.805 " fill=" rgb(91,60,17)" />
<polygon points=" 818.764,483.657 819.313,483.657 813.818,486.099 812.169,486.099 " fill=" rgb(91,60,17)" />
<polygon points=" 805.574,479.556 805.024,479.556 810.52,481.999 812.169,481.999 " fill=" rgb(91,60,17)" />
<ellipse cx="812.169" cy="470.805" rx="7.32789" ry="4.39674" fill="rgb(27,79,8)" />
<ellipse cx="819.039" cy="483.657" rx="3.66395" ry="2.19837" fill="rgb(27,79,8)" />
<ellipse cx="805.299" cy="479.556" rx="3.66395" ry="2.19837" fill="rgb(27,79,8)" />
<polygon points=" 334.711,531.263 337.396,533.053 340.082,531.263 340.082,504.408 334.711,504.408 " fill=" rgb(91,60,17)" />
<polygon points=" 345.453,512.396 346.124,512.396 339.41,515.38 337.396,515.38 " fill=" rgb(91,60,17)" />
<polygon points=" 329.34,517.516 328.668,517.516 335.382,520.5 337.396,520.5 " fill=" rgb(91,60,17)" />
<ellipse cx="337.396" cy="504.408" rx="8.95164" ry="5.37098" fill="rgb(27,79,8)" />
<ellipse cx="345.788" cy="512.396" rx="4.47582" ry="2.68549" fill="rgb(27,79,8)" />
<ellipse cx="329.004" cy="517.516" rx="4.47582" ry="2.68549" fill="rgb(27,79,8)" />
<polygon points=" 137.571,524.374 140.351,526.227 143.131,524.374 143.131,496.571 137.571,496.571 " fill=" rgb(91,60,17)" />
<polygon points=" 132.01,501.091 131.315,501.091 138.266,504.18 140.351,504.18 " fill=" rgb(91,60,17)" />
<ellipse cx="140.351" cy="496.571" rx="9.26757" ry="5.56054" fill="rgb(27,79,8)" />
<ellipse cx="131.662" cy="501.091" rx="4.63379" ry="2.78027" fill="rgb(27,79,8)" />
<polygon points=" 517.741,555.767 520.477,557.592 523.214,555.767 523.214,528.398 517.741,528.398 " fill=" rgb(91,60,17)" />
<polygon points=" 528.688,537.597 529.372,537.597 522.53,540.638 520.477,540.638 " fill=" rgb(91,60,17)" />
<polygon points=" 512.267,532.943 511.582,532.943 518.425,535.984 520.477,535.984 " fill=" rgb(91,60,17)" />
<ellipse cx="520.477" cy="528.398" rx="9.12306" ry="5.47384" fill="rgb(27,79,8)" />
<ellipse cx="529.03" cy="537.597" rx="4.56153" ry="2.73692" fill="rgb(27,79,8)" />
<ellipse cx="511.925" cy="532.943" rx="4.56153" ry="2.73692" fill="rgb(27,79,8)" />
<polygon points=" 534.591,630.103 537.373,631.958 540.156,630.103 540.156,602.276 534.591,602.276 " fill=" rgb(91,60,17)" />
<polygon points=" 545.721,611.825 546.417,611.825 539.46,614.917 537.373,614.917 " fill=" rgb(91,60,17)" />
<polygon points=" 529.025,609.677 528.329,609.677 535.286,612.769 537.373,612.769 " fill=" rgb(91,60,17)" />
<ellipse cx="537.373" cy="602.276" rx="9.27566" ry="5.5654" fill="rgb(27,79,8)" />
<ellipse cx="546.069" cy="611.825" rx="4.63783" ry="2.7827" fill="rgb(27,79,8)" />
<ellipse cx="528.677" cy="609.677" rx="4.63783" ry="2.7827" fill="rgb(27,79,8)" />
<polygon points=" 184.317,441.851 186.332,443.194 188.348,441.851 188.348,421.694 184.317,421.694 " fill=" rgb(91,60,17)" />
<polygon points=" 192.379,429.997 192.883,429.997 187.844,432.236 186.332,432.236 " fill=" rgb(91,60,17)" />
<polygon points=" 180.285,432.632 179.782,432.632 184.821,434.871 186.332,434.871 " fill=" rgb(91,60,17)" />
<ellipse cx="186.332" cy="421.694" rx="6.71881" ry="4.03129" fill="rgb(27,79,8)" />
<ellipse cx="192.631" cy="429.997" rx="3.35941" ry="2.01564" fill="rgb(27,79,8)" />
<ellipse cx="180.033" cy="432.632" rx="3.35941" ry="2.01564" fill="rgb(27,79,8)" />
<polygon points=" 322.345,473.944 324.141,475.141 325.937,473.944 325.937,455.986 322.345,455.986 " fill=" rgb(91,60,17)" />
<polygon points=" 318.754,460.845 318.305,460.845 322.794,462.841 324.141,462.841 " fill=" rgb(91,60,17)" />
<ellipse cx="324.141" cy="455.986" rx="5.98603" ry="3.59162" fill="rgb(27,79,8)" />
<ellipse cx="318.529" cy="460.845" rx="2.99301" ry="1.79581" fill="rgb(27,79,8)" />
<polygon points=" 900.545,476.963 902.598,478.332 904.652,476.963 904.652,456.43 900.545,456.43 " fill=" rgb(91,60,17)" />
<polygon points=" 908.758,463.657 909.272,463.657 904.138,465.938 902.598,465.938 " fill=" rgb(91,60,17)" />
<polygon points=" 896.439,466.72 895.925,466.72 901.059,469.001 902.598,469.001 " fill=" rgb(91,60,17)" />
<ellipse cx="902.598" cy="456.43" rx="6.84421" ry="4.10652" fill="rgb(27,79,8)" />
<ellipse cx="909.015" cy="463.657" rx="3.4221" ry="2.05326" fill="rgb(27,79,8)" />
<ellipse cx="896.182" cy="466.72" rx="3.4221" ry="2.05326" fill="rgb(27,79,8)" />
<polygon points=" 96.2926,598.858 99.2804,600.85 102.268,598.858 102.268,568.98 96.2926,568.98 " fill=" rgb(91,60,17)" />
<polygon points=" 90.317,576.281 89.5701,576.281 97.0395,579.6 99.2804,579.6 " fill=" rgb(91,60,17)" />
<ellipse cx="99.2804" cy="568.98" rx="9.95925" ry="5.97555" fill="rgb(27,79,8)" />
<ellipse cx="89.9436" cy="576.281" rx="4.97962" ry="2.98777" fill="rgb(27,79,8)" />
<polygon points=" 355.853,607.438 358.152,608.971 360.451,607.438 360.451,584.446 355.853,584.446 " fill=" rgb(91,60,17)" />
<polygon points=" 365.05,592.336 365.625,592.336 359.877,594.891 358.152,594.891 " fill=" rgb(91,60,17)" />
<polygon points=" 351.254,590.56 350.68,590.56 356.428,593.115 358.152,593.115 " fill=" rgb(91,60,17)" />
<ellipse cx="358.152" cy="584.446" rx="7.66425" ry="4.59855" fill="rgb(27,79,8)" />
<ellipse cx="365.337" cy="592.336" rx="3.83212" ry="2.29927" fill="rgb(27,79,8)" />
<ellipse cx="350.967" cy="590.56" rx="3.83212" ry="2.29927" fill="rgb(27,79,8)" />
<polygon points=" 36.0206,594.374 38.4254,595.977 40.8303,594.374 40.8303,570.325 36.0206,570.325 " fill=" rgb(91,60,17)" />
<polygon points=" 45.64,584.518 46.2412,584.518 40.2291,587.19 38.4254,587.19 " fill=" rgb(91,60,17)" />
<polygon points=" 31.2108,580.77 30.6096,580.77 36.6218,583.442 38.4254,583.442 " fill=" rgb(91,60,17)" />
<ellipse cx="38.4254" cy="570.325" rx="8.01622" ry="4.80973" fill="rgb(27,79,8)" />
<ellipse cx="45.9406" cy="584.518" rx="4.00811" ry="2.40487" fill="rgb(27,79,8)" />
<ellipse cx="30.9102" cy="580.77" rx="4.00811" ry="2.40487" fill="rgb(27,79,8)" />
<polygon points=" 631.95,703.229 635.059,705.301 638.168,703.229 638.168,672.141 631.95,672.141 " fill=" rgb(91,60,17)" />
<polygon points=" 644.385,679.435 645.163,679.435 637.39,682.89 635.059,682.89 " fill=" rgb(91,60,17)" />
<ellipse cx="635.059" cy="672.141" rx="10.3627" ry="6.21761" fill="rgb(27,79,8)" />
<ellipse cx="644.774" cy="679.435" rx="5.18135" ry="3.10881" fill="rgb(27,79,8)" />
<polygon points=" 472.231,586.887 474.698,588.531 477.164,586.887 477.164,562.223 472.231,562.223 " fill=" rgb(91,60,17)" />
<polygon points=" 482.097,576.779 482.713,576.779 476.547,579.519 474.698,579.519 " fill=" rgb(91,60,17)" />
<polygon points=" 467.298,572.935 466.682,572.935 472.848,575.676 474.698,575.676 " fill=" rgb(91,60,17)" />
<ellipse cx="474.698" cy="562.223" rx="8.22117" ry="4.9327" fill="rgb(27,79,8)" />
<ellipse cx="482.405" cy="576.779" rx="4.11059" ry="2.46635" fill="rgb(27,79,8)" />
<ellipse cx="466.99" cy="572.935" rx="4.11059" ry="2.46635" fill="rgb(27,79,8)" />
<polygon points=" 314.736,513.73 317.202,515.373 319.667,513.73 319.667,489.075 314.736,489.075 " fill=" rgb(91,60,17)" />
<polygon points=" 324.598,502.412 325.215,502.412 319.051,505.152 317.202,505.152 " fill=" rgb(91,60,17)" />
<polygon points=" 309.805,496.773 309.189,496.773 315.353,499.513 317.202,499.513 " fill=" rgb(91,60,17)" />
<ellipse cx="317.202" cy="489.075" rx="8.21825" ry="4.93095" fill="rgb(27,79,8)" />
<ellipse cx="324.906" cy="502.412" rx="4.10912" ry="2.46547" fill="rgb(27,79,8)" />
<ellipse cx="309.497" cy="496.773" rx="4.10912" ry="2.46547" fill="rgb(27,79,8)" />
<polygon points=" 10.4631,700.414 13.5716,702.486 16.6801,700.414 16.6801,669.329 10.4631,669.329 " fill=" rgb(91,60,17)" />
<polygon points=" 22.8971,687.674 23.6743,687.674 15.903,691.128 13.5716,691.128 " fill=" rgb(91,60,17)" />
<polygon points=" 4.24615,682.83 3.46903,682.83 11.2403,686.284 13.5716,686.284 " fill=" rgb(91,60,17)" />
<ellipse cx="13.5716" cy="669.329" rx="10.3617" ry="6.21699" fill="rgb(27,79,8)" />
<ellipse cx="23.2857" cy="687.674" rx="5.18083" ry="3.1085" fill="rgb(27,79,8)" />
<ellipse cx="3.85759" cy="682.83" rx="5.18083" ry="3.1085" fill="rgb(27,79,8)" />
<polygon points=" 875.071,617.709 878.193,619.791 881.316,617.709 881.316,586.486 875.071,586.486 " fill=" rgb(91,60,17)" />
<polygon points=" 887.56,599.046 888.341,599.046 880.535,602.515 878.193,602.515 " fill=" rgb(91,60,17)" />
<ellipse cx="878.193" cy="586.486" rx="10.4076" ry="6.24459" fill="rgb(27,79,8)" />
<ellipse cx="887.951" cy="599.046" rx="5.20382" ry="3.12229" fill="rgb(27,79,8)" />
<polygon points=" 18.0482,426.412 19.9877,427.704 21.9271,426.412 21.9271,407.017 18.0482,407.017 " fill=" rgb(91,60,17)" />
<polygon points=" 25.8059,413.843 26.2908,413.843 21.4422,415.998 19.9877,415.998 " fill=" rgb(91,60,17)" />
<polygon points=" 14.1694,416.736 13.6845,416.736 18.5331,418.891 19.9877,418.891 " fill=" rgb(91,60,17)" />
<ellipse cx="19.9877" cy="407.017" rx="6.46475" ry="3.87885" fill="rgb(27,79,8)" />
<ellipse cx="26.0484" cy="413.843" rx="3.23237" ry="1.93942" fill="rgb(27,79,8)" />
<ellipse cx="13.927" cy="416.736" rx="3.23237" ry="1.93942" fill="rgb(27,79,8)" />
<polygon points=" 478.056,708.064 480.894,709.956 483.731,708.064 483.731,679.688 478.056,679.688 " fill=" rgb(91,60,17)" />
<ellipse cx="480.894" cy="679.688" rx="9.45858" ry="5.67515" fill="rgb(27,79,8)" />
<polygon points=" 213.532,680.594 216.822,682.787 220.112,680.594 220.112,647.692 213.532,647.692 " fill=" rgb(91,60,17)" />
<polygon points=" 226.693,660.581 227.515,660.581 219.29,664.236 216.822,664.236 " fill=" rgb(91,60,17)" />
<ellipse cx="216.822" cy="647.692" rx="10.9672" ry="6.58035" fill="rgb(27,79,8)" />
<ellipse cx="227.104" cy="660.581" rx="5.48362" ry="3.29017" fill="rgb(27,79,8)" />
<polygon points=" 913.859,673.853 916.723,675.763 919.587,673.853 919.587,645.209 913.859,645.209 " fill=" rgb(91,60,17)" />
<polygon points=" 925.316,657.483 926.032,657.483 918.871,660.666 916.723,660.666 " fill=" rgb(91,60,17)" />
<polygon points=" 908.13,651.326 907.414,651.326 914.575,654.509 916.723,654.509 " fill=" rgb(91,60,17)" />
<ellipse cx="916.723" cy="645.209" rx="9.54812" ry="5.72887" fill="rgb(27,79,8)" />
<ellipse cx="925.674" cy="657.483" rx="4.77406" ry="2.86444" fill="rgb(27,79,8)" />
<ellipse cx="907.772" cy="651.326" rx="4.77406" ry="2.86444" fill="rgb(27,79,8)" />
<polygon points=" 7.56136,433.91 9.3567,435.107 11.152,433.91 11.152,415.957 7.56136,415.957 " fill=" rgb(91,60,17)" />
<polygon points=" 14.7427,426.486 15.1916,426.486 10.7032,428.481 9.3567,428.481 " fill=" rgb(91,60,17)" />
<polygon points=" 3.97068,423.31 3.52185,423.31 8.0102,425.304 9.3567,425.304 " fill=" rgb(91,60,17)" />
<ellipse cx="9.3567" cy="415.957" rx="5.98446" ry="3.59068" fill="rgb(27,79,8)" />
<ellipse cx="14.9671" cy="426.486" rx="2.99223" ry="1.79534" fill="rgb(27,79,8)" />
<ellipse cx="3.74627" cy="423.31" rx="2.99223" ry="1.79534" fill="rgb(27,79,8)" />
<polygon points=" 261.767,608.969 264.73,610.945 267.694,608.969 267.694,579.335 261.767,579.335 " fill=" rgb(91,60,17)" />
<polygon points=" 255.84,588.744 255.099,588.744 262.508,592.036 264.73,592.036 " fill=" rgb(91,60,17)" />
<ellipse cx="264.73" cy="579.335" rx="9.87786" ry="5.92672" fill="rgb(27,79,8)" />
<ellipse cx="255.47" cy="588.744" rx="4.93893" ry="2.96336" fill="rgb(27,79,8)" />
<polygon points=" 367.622,576.776 369.808,578.233 371.994,576.776 371.994,554.917 367.622,554.917 " fill=" rgb(91,60,17)" />
<polygon points=" 363.251,560.832 362.704,560.832 368.169,563.261 369.808,563.261 " fill=" rgb(91,60,17)" />
<ellipse cx="369.808" cy="554.917" rx="7.28607" ry="4.37164" fill="rgb(27,79,8)" />
<ellipse cx="362.977" cy="560.832" rx="3.64303" ry="2.18582" fill="rgb(27,79,8)" />
<polygon points=" 285.734,584.599 288.476,586.427 291.219,584.599 291.219,557.172 285.734,557.172 " fill=" rgb(91,60,17)" />
<polygon points=" 280.249,569.543 279.563,569.543 286.419,572.59 288.476,572.59 " fill=" rgb(91,60,17)" />
<ellipse cx="288.476" cy="557.172" rx="9.14205" ry="5.48523" fill="rgb(27,79,8)" />
<ellipse cx="279.906" cy="569.543" rx="4.57102" ry="2.74261" fill="rgb(27,79,8)" />
<polygon points=" 893.404,640.006 896.038,641.762 898.673,640.006 898.673,613.658 893.404,613.658 " fill=" rgb(91,60,17)" />
<polygon points=" 903.943,629.208 904.601,629.208 898.014,632.135 896.038,632.135 " fill=" rgb(91,60,17)" />
<polygon points=" 888.134,625.102 887.475,625.102 894.062,628.029 896.038,628.029 " fill=" rgb(91,60,17)" />
<ellipse cx="896.038" cy="613.658" rx="8.78261" ry="5.26957" fill="rgb(27,79,8)" />
<ellipse cx="904.272" cy="629.208" rx="4.39131" ry="2.63478" fill="rgb(27,79,8)" />
<ellipse cx="887.805" cy="625.102" rx="4.39131" ry="2.63478" fill="rgb(27,79,8)" />
<polygon points=" 446.134,682.786 449.198,684.828 452.262,682.786 452.262,652.147 446.134,652.147 " fill=" rgb(91,60,17)" />
<polygon points=" 440.006,659.633 439.24,659.633 446.9,663.038 449.198,663.038 " fill=" rgb(91,60,17)" />
<ellipse cx="449.198" cy="652.147" rx="10.2129" ry="6.12773" fill="rgb(27,79,8)" />
<ellipse cx="439.623" cy="659.633" rx="5.10644" ry="3.06386" fill="rgb(27,79,8)" />
<polygon points=" 409.5,446.461 411.82,448.008 414.14,446.461 414.14,423.26 409.5,423.26 " fill=" rgb(91,60,17)" />
<polygon points=" 418.78,431.058 419.36,431.058 413.56,433.636 411.82,433.636 " fill=" rgb(91,60,17)" />
<polygon points=" 404.86,427.113 404.28,427.113 410.08,429.691 411.82,429.691 " fill=" rgb(91,60,17)" />
<ellipse cx="411.82" cy="423.26" rx="7.73366" ry="4.64019" fill="rgb(27,79,8)" />
<ellipse cx="419.07" cy="431.058" rx="3.86683" ry="2.3201" fill="rgb(27,79,8)" />
<ellipse cx="404.57" cy="427.113" rx="3.86683" ry="2.3201" fill="rgb(27,79,8)" />
<polygon points=" 963.407,484.986 965.416,486.326 967.426,484.986 967.426,464.892 963.407,464.892 " fill=" rgb(91,60,17)" />
<polygon points=" 971.445,469.987 971.947,469.987 966.923,472.22 965.416,472.22 " fill=" rgb(91,60,17)" />
<polygon points=" 959.388,472.05 958.886,472.05 963.909,474.283 965.416,474.283 " fill=" rgb(91,60,17)" />
<ellipse cx="965.416" cy="464.892" rx="6.6981" ry="4.01886" fill="rgb(27,79,8)" />
<ellipse cx="971.696" cy="469.987" rx="3.34905" ry="2.00943" fill="rgb(27,79,8)" />
<ellipse cx="959.137" cy="472.05" rx="3.34905" ry="2.00943" fill="rgb(27,79,8)" />
<polygon points=" 227.864,611.243 230.533,613.022 233.202,611.243 233.202,584.558 227.864,584.558 " fill=" rgb(91,60,17)" />
<polygon points=" 222.527,593.03 221.86,593.03 228.532,595.995 230.533,595.995 " fill=" rgb(91,60,17)" />
<ellipse cx="230.533" cy="584.558" rx="8.89522" ry="5.33713" fill="rgb(27,79,8)" />
<ellipse cx="222.194" cy="593.03" rx="4.44761" ry="2.66857" fill="rgb(27,79,8)" />
<polygon points=" 467.566,598.475 470.132,600.186 472.699,598.475 472.699,572.81 467.566,572.81 " fill=" rgb(91,60,17)" />
<polygon points=" 477.832,579.619 478.473,579.619 472.057,582.47 470.132,582.47 " fill=" rgb(91,60,17)" />
<polygon points=" 462.433,576.023 461.791,576.023 468.207,578.874 470.132,578.874 " fill=" rgb(91,60,17)" />
<ellipse cx="470.132" cy="572.81" rx="8.55483" ry="5.1329" fill="rgb(27,79,8)" />
<ellipse cx="478.152" cy="579.619" rx="4.27741" ry="2.56645" fill="rgb(27,79,8)" />
<ellipse cx="462.112" cy="576.023" rx="4.27741" ry="2.56645" fill="rgb(27,79,8)" />
<polygon points=" 747.049,497 749.17,498.414 751.29,497 751.29,475.794 747.049,475.794 " fill=" rgb(91,60,17)" />
<polygon points=" 742.808,479.242 742.278,479.242 747.579,481.598 749.17,481.598 " fill=" rgb(91,60,17)" />
<ellipse cx="749.17" cy="475.794" rx="7.06865" ry="4.24119" fill="rgb(27,79,8)" />
<ellipse cx="742.543" cy="479.242" rx="3.53433" ry="2.1206" fill="rgb(27,79,8)" />
<polygon points=" 352.416,439.015 354.047,440.102 355.678,439.015 355.678,422.703 352.416,422.703 " fill=" rgb(91,60,17)" />
<polygon points=" 358.94,431.159 359.348,431.159 355.27,432.972 354.047,432.972 " fill=" rgb(91,60,17)" />
<polygon points=" 349.153,427.652 348.745,427.652 352.823,429.465 354.047,429.465 " fill=" rgb(91,60,17)" />
<ellipse cx="354.047" cy="422.703" rx="5.43719" ry="3.26231" fill="rgb(27,79,8)" />
<ellipse cx="359.144" cy="431.159" rx="2.71859" ry="1.63116" fill="rgb(27,79,8)" />
<ellipse cx="348.949" cy="427.652" rx="2.71859" ry="1.63116" fill="rgb(27,79,8)" />
<polygon points=" 318.564,422.255 320.997,423.878 323.431,422.255 323.431,397.92 318.564,397.92 " fill=" rgb(91,60,17)" />
<ellipse cx="320.997" cy="397.92" rx="8.11187" ry="4.86712" fill="rgb(27,79,8)" />
<polygon points=" 982.365,450.765 984.042,451.883 985.719,450.765 985.719,433.993 982.365,433.993 " fill=" rgb(91,60,17)" />
<polygon points=" 989.074,437.849 989.493,437.849 985.3,439.712 984.042,439.712 " fill=" rgb(91,60,17)" />
<polygon points=" 979.011,437.359 978.591,437.359 982.784,439.223 984.042,439.223 " fill=" rgb(91,60,17)" />
<ellipse cx="984.042" cy="433.993" rx="5.59062" ry="3.35437" fill="rgb(27,79,8)" />
<ellipse cx="989.283" cy="437.849" rx="2.79531" ry="1.67719" fill="rgb(27,79,8)" />
<ellipse cx="978.801" cy="437.359" rx="2.79531" ry="1.67719" fill="rgb(27,79,8)" />
<polygon points=" 97.1172,573.366 99.5691,575.001 102.021,573.366 102.021,548.847 97.1172,548.847 " fill=" rgb(91,60,17)" />
<polygon points=" 106.925,558.076 107.538,558.076 101.408,560.801 99.5691,560.801 " fill=" rgb(91,60,17)" />
<polygon points=" 92.2134,561.463 91.6005,561.463 97.7302,564.187 99.5691,564.187 " fill=" rgb(91,60,17)" />
<ellipse cx="99.5691" cy="548.847" rx="8.17293" ry="4.90376" fill="rgb(27,79,8)" />
<ellipse cx="107.231" cy="558.076" rx="4.08646" ry="2.45188" fill="rgb(27,79,8)" />
<ellipse cx="91.907" cy="561.463" rx="4.08646" ry="2.45188" fill="rgb(27,79,8)" />
<polygon points=" 901.875,554.637 904.648,556.485 907.42,554.637 907.42,526.912 901.875,526.912 " fill=" rgb(91,60,17)" />
<polygon points=" 912.965,539.978 913.658,539.978 906.727,543.059 904.648,543.059 " fill=" rgb(91,60,17)" />
<ellipse cx="904.648" cy="526.912" rx="9.2416" ry="5.54496" fill="rgb(27,79,8)" />
<ellipse cx="913.312" cy="539.978" rx="4.6208" ry="2.77248" fill="rgb(27,79,8)" />
<polygon points=" 776.911,563.195 779.051,564.622 781.191,563.195 781.191,541.794 776.911,541.794 " fill=" rgb(91,60,17)" />
<polygon points=" 772.631,545.273 772.096,545.273 777.446,547.651 779.051,547.651 " fill=" rgb(91,60,17)" />
<ellipse cx="779.051" cy="541.794" rx="7.13348" ry="4.28009" fill="rgb(27,79,8)" />
<ellipse cx="772.363" cy="545.273" rx="3.56674" ry="2.14004" fill="rgb(27,79,8)" />
<polygon points=" 31.2131,533.466 33.2224,534.805 35.2317,533.466 35.2317,513.372 31.2131,513.372 " fill=" rgb(91,60,17)" />
<polygon points=" 39.2504,518.087 39.7527,518.087 34.7294,520.32 33.2224,520.32 " fill=" rgb(91,60,17)" />
<ellipse cx="33.2224" cy="513.372" rx="6.69775" ry="4.01865" fill="rgb(27,79,8)" />
<ellipse cx="39.5015" cy="518.087" rx="3.34888" ry="2.00933" fill="rgb(27,79,8)" />
<polygon points=" 48.3395,523.23 50.5881,524.729 52.8367,523.23 52.8367,500.744 48.3395,500.744 " fill=" rgb(91,60,17)" />
<polygon points=" 57.3339,508.925 57.8961,508.925 52.2746,511.424 50.5881,511.424 " fill=" rgb(91,60,17)" />
<polygon points=" 43.8423,513.456 43.2802,513.456 48.9017,515.954 50.5881,515.954 " fill=" rgb(91,60,17)" />
<ellipse cx="50.5881" cy="500.744" rx="7.49534" ry="4.4972" fill="rgb(27,79,8)" />
<ellipse cx="57.615" cy="508.925" rx="3.74767" ry="2.2486" fill="rgb(27,79,8)" />
<ellipse cx="43.5612" cy="513.456" rx="3.74767" ry="2.2486" fill="rgb(27,79,8)" />
<polygon points=" 763.235,413.374 764.912,414.492 766.589,413.374 766.589,396.603 763.235,396.603 " fill=" rgb(91,60,17)" />
<polygon points=" 759.88,406.094 759.461,406.094 763.654,407.958 764.912,407.958 " fill=" rgb(91,60,17)" />
<ellipse cx="764.912" cy="396.603" rx="5.59043" ry="3.35426" fill="rgb(27,79,8)" />
<ellipse cx="759.671" cy="406.094" rx="2.79522" ry="1.67713" fill="rgb(27,79,8)" />
<polygon points=" 486.977,637.858 489.549,639.572 492.12,637.858 492.12,612.142 486.977,612.142 " fill=" rgb(91,60,17)" />
<polygon points=" 497.264,621.726 497.906,621.726 491.478,624.583 489.549,624.583 " fill=" rgb(91,60,17)" />
<polygon points=" 481.834,616.789 481.191,616.789 487.62,619.646 489.549,619.646 " fill=" rgb(91,60,17)" />
<ellipse cx="489.549" cy="612.142" rx="8.57182" ry="5.14309" fill="rgb(27,79,8)" />
<ellipse cx="497.585" cy="621.726" rx="4.28591" ry="2.57155" fill="rgb(27,79,8)" />
<ellipse cx="481.513" cy="616.789" rx="4.28591" ry="2.57155" fill="rgb(27,79,8)" />
<polygon points=" 461.659,462.806 463.451,464.001 465.243,462.806 465.243,444.888 461.659,444.888 " fill=" rgb(91,60,17)" />
<polygon points=" 458.075,447.801 457.627,447.801 462.107,449.792 463.451,449.792 " fill=" rgb(91,60,17)" />
<ellipse cx="463.451" cy="444.888" rx="5.9729" ry="3.58374" fill="rgb(27,79,8)" />
<ellipse cx="457.851" cy="447.801" rx="2.98645" ry="1.79187" fill="rgb(27,79,8)" />
<polygon points=" 593.607,698.478 596.655,700.51 599.704,698.478 599.704,667.994 593.607,667.994 " fill=" rgb(91,60,17)" />
<polygon points=" 605.801,683.543 606.563,683.543 598.942,686.93 596.655,686.93 " fill=" rgb(91,60,17)" />
<polygon points=" 587.51,684.011 586.748,684.011 594.369,687.398 596.655,687.398 " fill=" rgb(91,60,17)" />
<ellipse cx="596.655" cy="667.994" rx="10.1613" ry="6.09676" fill="rgb(27,79,8)" />
<ellipse cx="606.182" cy="683.543" rx="5.08064" ry="3.04838" fill="rgb(27,79,8)" />
<ellipse cx="587.129" cy="684.011" rx="5.08064" ry="3.04838" fill="rgb(27,79,8)" />
<polygon points=" 697.083,560.081 699.098,561.424 701.113,560.081 701.113,539.934 697.083,539.934 " fill=" rgb(91,60,17)" />
<polygon points=" 705.142,544.662 705.646,544.662 700.609,546.9 699.098,546.9 " fill=" rgb(91,60,17)" />
<ellipse cx="699.098" cy="539.934" rx="6.71561" ry="4.02937" fill="rgb(27,79,8)" />
<ellipse cx="705.394" cy="544.662" rx="3.35781" ry="2.01468" fill="rgb(27,79,8)" />
<polygon points=" 861.887,492.149 864.281,493.745 866.675,492.149 866.675,468.209 861.887,468.209 " fill=" rgb(91,60,17)" />
<polygon points=" 871.463,476.424 872.062,476.424 866.077,479.084 864.281,479.084 " fill=" rgb(91,60,17)" />
<polygon points=" 857.099,474.576 856.501,474.576 862.486,477.236 864.281,477.236 " fill=" rgb(91,60,17)" />
<ellipse cx="864.281" cy="468.209" rx="7.98005" ry="4.78803" fill="rgb(27,79,8)" />
<ellipse cx="871.763" cy="476.424" rx="3.99002" ry="2.39401" fill="rgb(27,79,8)" />
<ellipse cx="856.8" cy="474.576" rx="3.99002" ry="2.39401" fill="rgb(27,79,8)" />
<polygon points=" 209.374,704.428 212.391,706.439 215.407,704.428 215.407,674.266 209.374,674.266 " fill=" rgb(91,60,17)" />
<ellipse cx="212.391" cy="674.266" rx="10.054" ry="6.03239" fill="rgb(27,79,8)" />
<polygon points=" 449.877,476.787 452.109,478.276 454.342,476.787 454.342,454.462 449.877,454.462 " fill=" rgb(91,60,17)" />
<polygon points=" 445.411,459.917 444.853,459.917 450.435,462.398 452.109,462.398 " fill=" rgb(91,60,17)" />
<ellipse cx="452.109" cy="454.462" rx="7.44173" ry="4.46504" fill="rgb(27,79,8)" />
<ellipse cx="445.132" cy="459.917" rx="3.72087" ry="2.23252" fill="rgb(27,79,8)" />
<polygon points=" 54.1753,615.379 56.4183,616.874 58.6614,615.379 58.6614,592.948 54.1753,592.948 " fill=" rgb(91,60,17)" />
<polygon points=" 63.1474,603.286 63.7082,603.286 58.1006,605.778 56.4183,605.778 " fill=" rgb(91,60,17)" />
<polygon points=" 49.6893,606.476 49.1285,606.476 54.7361,608.968 56.4183,608.968 " fill=" rgb(91,60,17)" />
<ellipse cx="56.4183" cy="592.948" rx="7.47674" ry="4.48604" fill="rgb(27,79,8)" />
<ellipse cx="63.4278" cy="603.286" rx="3.73837" ry="2.24302" fill="rgb(27,79,8)" />
<ellipse cx="49.4089" cy="606.476" rx="3.73837" ry="2.24302" fill="rgb(27,79,8)" />
<polygon points=" 614.309,681.046 617.658,683.279 621.007,681.046 621.007,647.557 614.309,647.557 " fill=" rgb(91,60,17)" />
<polygon points=" 627.705,664.918 628.542,664.918 620.17,668.639 617.658,668.639 " fill=" rgb(91,60,17)" />
<polygon points=" 607.611,657.718 606.774,657.718 615.146,661.439 617.658,661.439 " fill=" rgb(91,60,17)" />
<ellipse cx="617.658" cy="647.557" rx="11.163" ry="6.69782" fill="rgb(27,79,8)" />
<ellipse cx="628.123" cy="664.918" rx="5.58152" ry="3.34891" fill="rgb(27,79,8)" />
<ellipse cx="607.193" cy="657.718" rx="5.58152" ry="3.34891" fill="rgb(27,79,8)" />
<polygon points=" 475.508,671.824 478.596,673.883 481.684,671.824 481.684,640.944 475.508,640.944 " fill=" rgb(91,60,17)" />
<polygon points=" 487.861,651.323 488.633,651.323 480.912,654.754 478.596,654.754 " fill=" rgb(91,60,17)" />
<polygon points=" 469.332,646.072 468.56,646.072 476.28,649.504 478.596,649.504 " fill=" rgb(91,60,17)" />
<ellipse cx="478.596" cy="640.944" rx="10.2935" ry="6.17613" fill="rgb(27,79,8)" />
<ellipse cx="488.247" cy="651.323" rx="5.14677" ry="3.08806" fill="rgb(27,79,8)" />
<ellipse cx="468.946" cy="646.072" rx="5.14677" ry="3.08806" fill="rgb(27,79,8)" />
<polygon points=" 466.704,596.082 469.497,597.944 472.291,596.082 472.291,568.145 466.704,568.145 " fill=" rgb(91,60,17)" />
<polygon points=" 477.878,577.978 478.577,577.978 471.592,581.082 469.497,581.082 " fill=" rgb(91,60,17)" />
<polygon points=" 461.116,582.145 460.418,582.145 467.402,585.249 469.497,585.249 " fill=" rgb(91,60,17)" />
<ellipse cx="469.497" cy="568.145" rx="9.31225" ry="5.58735" fill="rgb(27,79,8)" />
<ellipse cx="478.227" cy="577.978" rx="4.65612" ry="2.79367" fill="rgb(27,79,8)" />
<ellipse cx="460.767" cy="582.145" rx="4.65612" ry="2.79367" fill="rgb(27,79,8)" />
<polygon points=" 226.682,684.61 229.219,686.301 231.756,684.61 231.756,659.241 226.682,659.241 " fill=" rgb(91,60,17)" />
<polygon points=" 236.83,663.389 237.464,663.389 231.122,666.208 229.219,666.208 " fill=" rgb(91,60,17)" />
<polygon points=" 221.608,664.399 220.974,664.399 227.317,667.218 229.219,667.218 " fill=" rgb(91,60,17)" />
<ellipse cx="229.219" cy="659.241" rx="8.45651" ry="5.07391" fill="rgb(27,79,8)" />
<ellipse cx="237.147" cy="663.389" rx="4.22826" ry="2.53695" fill="rgb(27,79,8)" />
<ellipse cx="221.291" cy="664.399" rx="4.22826" ry="2.53695" fill="rgb(27,79,8)" />
<polygon points=" 321.64,686.544 324.683,688.573 327.726,686.544 327.726,656.111 321.64,656.111 " fill=" rgb(91,60,17)" />
<polygon points=" 333.813,668.353 334.574,668.353 326.966,671.734 324.683,671.734 " fill=" rgb(91,60,17)" />
<ellipse cx="324.683" cy="656.111" rx="10.1446" ry="6.08677" fill="rgb(27,79,8)" />
<ellipse cx="334.194" cy="668.353" rx="5.0723" ry="3.04338" fill="rgb(27,79,8)" />
<polygon points=" 423.711,408.719 425.452,409.879 427.192,408.719 427.192,391.314 423.711,391.314 " fill=" rgb(91,60,17)" />
<polygon points=" 430.673,394.16 431.108,394.16 426.757,396.094 425.452,396.094 " fill=" rgb(91,60,17)" />
<polygon points=" 420.23,394.853 419.795,394.853 424.146,396.787 425.452,396.787 " fill=" rgb(91,60,17)" />
<ellipse cx="425.452" cy="391.314" rx="5.80164" ry="3.48098" fill="rgb(27,79,8)" />
<ellipse cx="430.891" cy="394.16" rx="2.90082" ry="1.74049" fill="rgb(27,79,8)" />
<ellipse cx="420.013" cy="394.853" rx="2.90082" ry="1.74049" fill="rgb(27,79,8)" />
<polygon points=" 480.795,617.03 483.409,618.772 486.022,617.03 486.022,590.898 480.795,590.898 " fill=" rgb(91,60,17)" />
<polygon points=" 491.248,604.227 491.901,604.227 485.368,607.13 483.409,607.13 " fill=" rgb(91,60,17)" />
<polygon points=" 475.569,604.629 474.916,604.629 481.449,607.532 483.409,607.532 " fill=" rgb(91,60,17)" />
<ellipse cx="483.409" cy="590.898" rx="8.71048" ry="5.22629" fill="rgb(27,79,8)" />
<ellipse cx="491.575" cy="604.227" rx="4.35524" ry="2.61314" fill="rgb(27,79,8)" />
<ellipse cx="475.243" cy="604.629" rx="4.35524" ry="2.61314" fill="rgb(27,79,8)" />
<polygon points=" 311.138,481.606 313.692,483.309 316.247,481.606 316.247,456.059 311.138,456.059 " fill=" rgb(91,60,17)" />
<polygon points=" 306.028,470.517 305.39,470.517 311.776,473.356 313.692,473.356 " fill=" rgb(91,60,17)" />
<ellipse cx="313.692" cy="456.059" rx="8.51567" ry="5.1094" fill="rgb(27,79,8)" />
<ellipse cx="305.709" cy="470.517" rx="4.25783" ry="2.5547" fill="rgb(27,79,8)" />
<polygon points=" 151.049,554.753 153.694,556.517 156.34,554.753 156.34,528.297 151.049,528.297 " fill=" rgb(91,60,17)" />
<polygon points=" 161.631,539.195 162.293,539.195 155.679,542.135 153.694,542.135 " fill=" rgb(91,60,17)" />
<polygon points=" 145.757,542.653 145.096,542.653 151.71,545.593 153.694,545.593 " fill=" rgb(91,60,17)" />
<ellipse cx="153.694" cy="528.297" rx="8.81868" ry="5.29121" fill="rgb(27,79,8)" />
<ellipse cx="161.962" cy="539.195" rx="4.40934" ry="2.6456" fill="rgb(27,79,8)" />
<ellipse cx="145.427" cy="542.653" rx="4.40934" ry="2.6456" fill="rgb(27,79,8)" />
<polygon points=" 184.122,605.559 186.458,607.116 188.794,605.559 188.794,582.2 184.122,582.2 " fill=" rgb(91,60,17)" />
<polygon points=" 193.466,585.442 194.05,585.442 188.21,588.037 186.458,588.037 " fill=" rgb(91,60,17)" />
<polygon points=" 179.451,586.489 178.867,586.489 184.706,589.085 186.458,589.085 " fill=" rgb(91,60,17)" />
<ellipse cx="186.458" cy="582.2" rx="7.78626" ry="4.67176" fill="rgb(27,79,8)" />
<ellipse cx="193.758" cy="585.442" rx="3.89313" ry="2.33588" fill="rgb(27,79,8)" />
<ellipse cx="179.159" cy="586.489" rx="3.89313" ry="2.33588" fill="rgb(27,79,8)" />
<polygon points=" 273.99,638.643 276.894,640.579 279.798,638.643 279.798,609.605 273.99,609.605 " fill=" rgb(91,60,17)" />
<polygon points=" 285.605,626.894 286.331,626.894 279.072,630.12 276.894,630.12 " fill=" rgb(91,60,17)" />
<polygon points=" 268.182,624.685 267.456,624.685 274.716,627.912 276.894,627.912 " fill=" rgb(91,60,17)" />
<ellipse cx="276.894" cy="609.605" rx="9.67954" ry="5.80772" fill="rgb(27,79,8)" />
<ellipse cx="285.968" cy="626.894" rx="4.83977" ry="2.90386" fill="rgb(27,79,8)" />
<ellipse cx="267.819" cy="624.685" rx="4.83977" ry="2.90386" fill="rgb(27,79,8)" />
<polygon points=" 837.782,624.575 840.429,626.339 843.075,624.575 843.075,598.11 837.782,598.11 " fill=" rgb(91,60,17)" />
<polygon points=" 848.368,601.325 849.03,601.325 842.413,604.265 840.429,604.265 " fill=" rgb(91,60,17)" />
<polygon points=" 832.489,612.059 831.827,612.059 838.444,614.999 840.429,614.999 " fill=" rgb(91,60,17)" />
<ellipse cx="840.429" cy="598.11" rx="8.82172" ry="5.29303" fill="rgb(27,79,8)" />
<ellipse cx="848.699" cy="601.325" rx="4.41086" ry="2.64652" fill="rgb(27,79,8)" />
<ellipse cx="832.158" cy="612.059" rx="4.41086" ry="2.64652" fill="rgb(27,79,8)" />
<polygon points=" 720.351,458.138 722.081,459.292 723.811,458.138 723.811,440.837 720.351,440.837 " fill=" rgb(91,60,17)" />
<polygon points=" 727.271,448.991 727.704,448.991 723.378,450.913 722.081,450.913 " fill=" rgb(91,60,17)" />
<ellipse cx="722.081" cy="440.837" rx="5.76715" ry="3.46029" fill="rgb(27,79,8)" />
<ellipse cx="727.487" cy="448.991" rx="2.88358" ry="1.73015" fill="rgb(27,79,8)" />
<polygon points=" 215.129,635.706 217.45,637.254 219.772,635.706 219.772,612.491 215.129,612.491 " fill=" rgb(91,60,17)" />
<polygon points=" 224.415,620.457 224.995,620.457 219.192,623.037 217.45,623.037 " fill=" rgb(91,60,17)" />
<polygon points=" 210.486,618.665 209.906,618.665 215.709,621.244 217.45,621.244 " fill=" rgb(91,60,17)" />
<ellipse cx="217.45" cy="612.491" rx="7.7384" ry="4.64304" fill="rgb(27,79,8)" />
<ellipse cx="224.705" cy="620.457" rx="3.8692" ry="2.32152" fill="rgb(27,79,8)" />
<ellipse cx="210.196" cy="618.665" rx="3.8692" ry="2.32152" fill="rgb(27,79,8)" />
<polygon points=" 206.899,630.799 209.157,632.304 211.415,630.799 211.415,608.217 206.899,608.217 " fill=" rgb(91,60,17)" />
<polygon points=" 215.931,619.456 216.496,619.456 210.851,621.965 209.157,621.965 " fill=" rgb(91,60,17)" />
<polygon points=" 202.383,612.409 201.818,612.409 207.463,614.918 209.157,614.918 " fill=" rgb(91,60,17)" />
<ellipse cx="209.157" cy="608.217" rx="7.52715" ry="4.51629" fill="rgb(27,79,8)" />
<ellipse cx="216.214" cy="619.456" rx="3.76357" ry="2.25814" fill="rgb(27,79,8)" />
<ellipse cx="202.1" cy="612.409" rx="3.76357" ry="2.25814" fill="rgb(27,79,8)" />
<polygon points=" 553.432,614.265 555.649,615.743 557.866,614.265 557.866,592.093 553.432,592.093 " fill=" rgb(91,60,17)" />
<polygon points=" 562.301,602.485 562.855,602.485 557.312,604.949 555.649,604.949 " fill=" rgb(91,60,17)" />
<polygon points=" 548.997,603.949 548.443,603.949 553.986,606.413 555.649,606.413 " fill=" rgb(91,60,17)" />
<ellipse cx="555.649" cy="592.093" rx="7.39083" ry="4.4345" fill="rgb(27,79,8)" />
<ellipse cx="562.578" cy="602.485" rx="3.69541" ry="2.21725" fill="rgb(27,79,8)" />
<ellipse cx="548.72" cy="603.949" rx="3.69541" ry="2.21725" fill="rgb(27,79,8)" />
<polygon points=" 700.189,666.439 703.495,668.642 706.8,666.439 706.8,633.384 700.189,633.384 " fill=" rgb(91,60,17)" />
<polygon points=" 693.578,645.306 692.752,645.306 701.016,648.979 703.495,648.979 " fill=" rgb(91,60,17)" />
<ellipse cx="703.495" cy="633.384" rx="11.0181" ry="6.61088" fill="rgb(27,79,8)" />
<ellipse cx="693.165" cy="645.306" rx="5.50907" ry="3.30544" fill="rgb(27,79,8)" />
<polygon points=" 784.984,566.508 787.542,568.213 790.1,566.508 790.1,540.928 784.984,540.928 " fill=" rgb(91,60,17)" />
<polygon points=" 795.216,548.64 795.856,548.64 789.461,551.482 787.542,551.482 " fill=" rgb(91,60,17)" />
<polygon points=" 779.868,551.995 779.229,551.995 785.624,554.837 787.542,554.837 " fill=" rgb(91,60,17)" />
<ellipse cx="787.542" cy="540.928" rx="8.52671" ry="5.11602" fill="rgb(27,79,8)" />
<ellipse cx="795.536" cy="548.64" rx="4.26335" ry="2.55801" fill="rgb(27,79,8)" />
<ellipse cx="779.548" cy="551.995" rx="4.26335" ry="2.55801" fill="rgb(27,79,8)" />
<polygon points=" 876.752,476.11 878.87,477.521 880.987,476.11 880.987,454.932 876.752,454.932 " fill=" rgb(91,60,17)" />
<polygon points=" 885.223,464.692 885.752,464.692 880.458,467.045 878.87,467.045 " fill=" rgb(91,60,17)" />
<polygon points=" 872.517,467.704 871.987,467.704 877.281,470.057 878.87,470.057 " fill=" rgb(91,60,17)" />
<ellipse cx="878.87" cy="454.932" rx="7.05914" ry="4.23549" fill="rgb(27,79,8)" />
<ellipse cx="885.488" cy="464.692" rx="3.52957" ry="2.11774" fill="rgb(27,79,8)" />
<ellipse cx="872.252" cy="467.704" rx="3.52957" ry="2.11774" fill="rgb(27,79,8)" />
<polygon points=" 705.867,628.075 708.548,629.863 711.23,628.075 711.23,601.261 705.867,601.261 " fill=" rgb(91,60,17)" />
<polygon points=" 716.592,613.619 717.263,613.619 710.559,616.598 708.548,616.598 " fill=" rgb(91,60,17)" />
<polygon points=" 700.504,617.432 699.834,617.432 706.537,620.412 708.548,620.412 " fill=" rgb(91,60,17)" />
<ellipse cx="708.548" cy="601.261" rx="8.93801" ry="5.36281" fill="rgb(27,79,8)" />
<ellipse cx="716.928" cy="613.619" rx="4.46901" ry="2.6814" fill="rgb(27,79,8)" />
<ellipse cx="700.169" cy="617.432" rx="4.46901" ry="2.6814" fill="rgb(27,79,8)" />
<polygon points=" 770.798,666.004 773.326,667.689 775.854,666.004 775.854,640.726 770.798,640.726 " fill=" rgb(91,60,17)" />
<polygon points=" 765.743,646.903 765.111,646.903 771.43,649.711 773.326,649.711 " fill=" rgb(91,60,17)" />
<ellipse cx="773.326" cy="640.726" rx="8.42596" ry="5.05558" fill="rgb(27,79,8)" />
<ellipse cx="765.427" cy="646.903" rx="4.21298" ry="2.52779" fill="rgb(27,79,8)" />
<polygon points=" 981.899,674.357 985.032,676.446 988.165,674.357 988.165,643.028 981.899,643.028 " fill=" rgb(91,60,17)" />
<polygon points=" 994.431,653.779 995.214,653.779 987.382,657.26 985.032,657.26 " fill=" rgb(91,60,17)" />
<polygon points=" 975.634,651.36 974.85,651.36 982.683,654.841 985.032,654.841 " fill=" rgb(91,60,17)" />
<ellipse cx="985.032" cy="643.028" rx="10.443" ry="6.2658" fill="rgb(27,79,8)" />
<ellipse cx="994.823" cy="653.779" rx="5.2215" ry="3.1329" fill="rgb(27,79,8)" />
<ellipse cx="975.242" cy="651.36" rx="5.2215" ry="3.1329" fill="rgb(27,79,8)" />
<polygon points=" 408.79,409.726 410.492,410.861 412.195,409.726 412.195,392.702 408.79,392.702 " fill=" rgb(91,60,17)" />
<polygon points=" 405.385,400.381 404.959,400.381 409.215,402.272 410.492,402.272 " fill=" rgb(91,60,17)" />
<ellipse cx="410.492" cy="392.702" rx="5.67463" ry="3.40478" fill="rgb(27,79,8)" />
<ellipse cx="405.172" cy="400.381" rx="2.83731" ry="1.70239" fill="rgb(27,79,8)" />
<polygon points=" 118.508,500.097 120.657,501.529 122.806,500.097 122.806,478.608 118.508,478.608 " fill=" rgb(91,60,17)" />
<polygon points=" 127.103,483.65 127.641,483.65 122.269,486.038 120.657,486.038 " fill=" rgb(91,60,17)" />
<ellipse cx="120.657" cy="478.608" rx="7.16273" ry="4.29764" fill="rgb(27,79,8)" />
<ellipse cx="127.372" cy="483.65" rx="3.58137" ry="2.14882" fill="rgb(27,79,8)" />
<polygon points=" 341.173,534.001 343.605,535.623 346.038,534.001 346.038,509.672 341.173,509.672 " fill=" rgb(91,60,17)" />
<polygon points=" 350.904,522.081 351.512,522.081 345.43,524.784 343.605,524.784 " fill=" rgb(91,60,17)" />
<polygon points=" 336.307,522.455 335.699,522.455 341.781,525.158 343.605,525.158 " fill=" rgb(91,60,17)" />
<ellipse cx="343.605" cy="509.672" rx="8.1097" ry="4.86582" fill="rgb(27,79,8)" />
<ellipse cx="351.208" cy="522.081" rx="4.05485" ry="2.43291" fill="rgb(27,79,8)" />
<ellipse cx="336.003" cy="522.455" rx="4.05485" ry="2.43291" fill="rgb(27,79,8)" />
</svg>