<?xml version="1.0" encoding="utf-8"?>
<svg xmlns="http://www.w3.org/2000/svg" version="1.1" width="1000" height="800">
<polygon points=" 844.266,68.5689 810.932,168.569 894.266,101.902 794.266,101.902 877.599,168.569 " style="fill:rgb(253,238,0)"/>
<polygon points=" 623.564,119.45 590.23,219.45 673.564,152.784 573.564,152.784 656.897,219.45 " style="fill:rgb(253,238,0)"/>
<polygon points=" 56.713,9.50692 23.3796,109.507 106.713,42.8403 6.71298,42.8403 90.0463,109.507 " style="fill:rgb(253,238,0)"/>
<polygon points=" 812.169,45.533 778.835,145.533 862.169,78.8664 762.169,78.8664 845.502,145.533 " style="fill:rgb(253,238,0)"/>
<polygon points=" 836.079,28.557 802.745,128.557 886.079,61.8903 786.079,61.8903 869.412,128.557 " style="fill:rgb(253,238,0)"/>
<polygon points=" 368.242,79.6344 334.908,179.634 418.242,112.968 318.242,112.968 401.575,179.634 " style="fill:rgb(253,238,0)"/>
<polygon points=" 870.087,-21.9298 836.754,78.0702 920.087,11.4035 820.087,11.4035 903.421,78.0702 " style="fill:rgb(253,238,0)"/>
<polygon points=" 520.477,110.182 487.144,210.182 570.477,143.515 470.477,143.515 553.811,210.182 " style="fill:rgb(253,238,0)"/>
<polygon points=" 582.02,94.1265 548.686,194.127 632.02,127.46 532.02,127.46 615.353,194.127 " style="fill:rgb(253,238,0)"/>
<polygon points=" 105.908,101.723 72.5743,201.723 155.908,135.056 55.9076,135.056 139.241,201.723 " style="fill:rgb(253,238,0)"/>
<polygon points=" 736.918,-12.7335 703.585,87.2665 786.918,20.5998 686.918,20.5998 770.252,87.2665 " style="fill:rgb(253,238,0)"/>
<polygon points=" 324.141,-22.9564 290.808,77.0436 374.141,10.377 274.141,10.377 357.474,77.0436 " style="fill:rgb(253,238,0)"/>
<polygon points=" 386.489,-5.53572 353.156,94.4643 436.489,27.7976 336.489,27.7976 419.822,94.4643 " style="fill:rgb(253,238,0)"/>
<ellipse cx="613.063" cy="89.99" rx="25" ry="25" style="fill:rgb(169,234,254);stroke:black;stroke-width:1" />
<ellipse cx="663.063" cy="106.657" rx="66.6667" ry="33.3333" style="fill:rgb(169,234,254);stroke:black;stroke-width:1" />
<ellipse cx="663.063" cy="73.3233" rx="66.6667" ry="33.3333" style="fill:rgb(169,234,254);stroke:black;stroke-width:1" />
<ellipse cx="563.063" cy="106.657" rx="66.6667" ry="33.3333" style="fill:rgb(169,234,254);stroke:black;stroke-width:1" />
<ellipse cx="613.063" cy="109.99" rx="66.6667" ry="33.3333" style="fill:rgb(169,234,254);stroke:black;stroke-width:1" />
<ellipse cx="613.063" cy="69.99" rx="66.6667" ry="33.3333" style="fill:rgb(169,234,254);stroke:black;stroke-width:1" />
<ellipse cx="969.809" cy="19.8561" rx="25" ry="25" style="fill:rgb(169,234,254);stroke:black;stroke-width:1" />
<ellipse cx="1019.81" cy="36.5227" rx="66.6667" ry="33.3333" style="fill:rgb(169,234,254);stroke:black;stroke-width:1" />
<ellipse cx="1019.81" cy="3.1894" rx="66.6667" ry="33.3333" style="fill:rgb(169,234,254);stroke:black;stroke-width:1" />
<ellipse cx="919.809" cy="36.5227" rx="66.6667" ry="33.3333" style="fill:rgb(169,234,254);stroke:black;stroke-width:1" />
<ellipse cx="358.152" cy="34.1819" rx="25" ry="25" style="fill:rgb(169,234,254);stroke:black;stroke-width:1" />
<ellipse cx="408.152" cy="50.8486" rx="66.6667" ry="33.3333" style="fill:rgb(169,234,254);stroke:black;stroke-width:1" />
<ellipse cx="408.152" cy="17.5153" rx="66.6667" ry="33.3333" style="fill:rgb(169,234,254);stroke:black;stroke-width:1" />
<ellipse cx="308.152" cy="50.8486" rx="66.6667" ry="33.3333" style="fill:rgb(169,234,254);stroke:black;stroke-width:1" />
<ellipse cx="358.152" cy="14.1819" rx="66.6667" ry="33.3333" style="fill:rgb(169,234,254);stroke:black;stroke-width:1" />
<ellipse cx="325.047" cy="121.566" rx="25" ry="25" style="fill:rgb(169,234,254);stroke:black;stroke-width:1" />
<ellipse cx="375.047" cy="138.233" rx="66.6667" ry="33.3333" style="fill:rgb(169,234,254);stroke:black;stroke-width:1" />
<ellipse cx="375.047" cy="104.899" rx="66.6667" ry="33.3333" style="fill:rgb(169,234,254);stroke:black;stroke-width:1" />
<ellipse cx="275.047" cy="104.899" rx="66.6667" ry="33.3333" style="fill:rgb(169,234,254);stroke:black;stroke-width:1" />
<ellipse cx="325.047" cy="141.566" rx="66.6667" ry="33.3333" style="fill:rgb(169,234,254);stroke:black;stroke-width:1" />
<ellipse cx="325.047" cy="101.566" rx="66.6667" ry="33.3333" style="fill:rgb(169,234,254);stroke:black;stroke-width:1" />
<ellipse cx="958.949" cy="126.855" rx="25" ry="25" style="fill:rgb(169,234,254);stroke:black;stroke-width:1" />
<ellipse cx="1008.95" cy="143.521" rx="66.6667" ry="33.3333" style="fill:rgb(169,234,254);stroke:black;stroke-width:1" />
<ellipse cx="1008.95" cy="110.188" rx="66.6667" ry="33.3333" style="fill:rgb(169,234,254);stroke:black;stroke-width:1" />
<ellipse cx="908.949" cy="143.521" rx="66.6667" ry="33.3333" style="fill:rgb(169,234,254);stroke:black;stroke-width:1" />
<ellipse cx="995.3" cy="127.012" rx="25" ry="25" style="fill:rgb(169,234,254);stroke:black;stroke-width:1" />
<ellipse cx="1045.3" cy="143.678" rx="66.6667" ry="33.3333" style="fill:rgb(169,234,254);stroke:black;stroke-width:1" />
<ellipse cx="1045.3" cy="110.345" rx="66.6667" ry="33.3333" style="fill:rgb(169,234,254);stroke:black;stroke-width:1" />
<ellipse cx="945.3" cy="143.678" rx="66.6667" ry="33.3333" style="fill:rgb(169,234,254);stroke:black;stroke-width:1" />
<ellipse cx="945.3" cy="110.345" rx="66.6667" ry="33.3333" style="fill:rgb(169,234,254);stroke:black;stroke-width:1" />
<ellipse cx="474.698" cy="82.8737" rx="25" ry="25" style="fill:rgb(169,234,254);stroke:black;stroke-width:1" />
<ellipse cx="524.698" cy="99.5404" rx="66.6667" ry="33.3333" style="fill:rgb(169,234,254);stroke:black;stroke-width:1" />
<ellipse cx="524.698" cy="66.2071" rx="66.6667" ry="33.3333" style="fill:rgb(169,234,254);stroke:black;stroke-width:1" />
<ellipse cx="474.698" cy="102.874" rx="66.6667" ry="33.3333" style="fill:rgb(169,234,254);stroke:black;stroke-width:1" />
<ellipse cx="674.752" cy="67.6015" rx="25" ry="25" style="fill:rgb(169,234,254);stroke:black;stroke-width:1" />
<ellipse cx="724.752" cy="84.2682" rx="66.6667" ry="33.3333" style="fill:rgb(169,234,254);stroke:black;stroke-width:1" />
<ellipse cx="724.752" cy="50.9349" rx="66.6667" ry="33.3333" style="fill:rgb(169,234,254);stroke:black;stroke-width:1" />
<ellipse cx="624.752" cy="84.2682" rx="66.6667" ry="33.3333" style="fill:rgb(169,234,254);stroke:black;stroke-width:1" />
<ellipse cx="624.752" cy="50.9349" rx="66.6667" ry="33.3333" style="fill:rgb(169,234,254);stroke:black;stroke-width:1" />
<ellipse cx="674.752" cy="47.6015" rx="66.6667" ry="33.3333" style="fill:rgb(169,234,254);stroke:black;stroke-width:1" />
<ellipse cx="949.571" cy="155.669" rx="25" ry="25" style="fill:rgb(169,234,254);stroke:black;stroke-width:1" />
<ellipse cx="999.571" cy="172.336" rx="66.6667" ry="33.3333" style="fill:rgb(169,234,254);stroke:black;stroke-width:1" />
<ellipse cx="999.571" cy="139.002" rx="66.6667" ry="33.3333" style="fill:rgb(169,234,254);stroke:black;stroke-width:1" />
<ellipse cx="899.571" cy="139.002" rx="66.6667" ry="33.3333" style="fill:rgb(169,234,254);stroke:black;stroke-width:1" />
<ellipse cx="949.571" cy="135.669" rx="66.6667" ry="33.3333" style="fill:rgb(169,234,254);stroke:black;stroke-width:1" />
<ellipse cx="622.846" cy="2.71433" rx="25" ry="25" style="fill:rgb(169,234,254);stroke:black;stroke-width:1" />
<ellipse cx="672.846" cy="19.381" rx="66.6667" ry="33.3333" style="fill:rgb(169,234,254);stroke:black;stroke-width:1" />
<ellipse cx="672.846" cy="-13.9523" rx="66.6667" ry="33.3333" style="fill:rgb(169,234,254);stroke:black;stroke-width:1" />
<ellipse cx="572.846" cy="-13.9523" rx="66.6667" ry="33.3333" style="fill:rgb(169,234,254);stroke:black;stroke-width:1" />
<ellipse cx="622.846" cy="-17.2857" rx="66.6667" ry="33.3333" style="fill:rgb(169,234,254);stroke:black;stroke-width:1" />
<ellipse cx="878.193" cy="194.389" rx="25" ry="25" style="fill:rgb(169,234,254);stroke:black;stroke-width:1" />
<ellipse cx="928.193" cy="211.056" rx="66.6667" ry="33.3333" style="fill:rgb(169,234,254);stroke:black;stroke-width:1" />
<ellipse cx="928.193" cy="177.722" rx="66.6667" ry="33.3333" style="fill:rgb(169,234,254);stroke:black;stroke-width:1" />
<ellipse cx="828.193" cy="211.056" rx="66.6667" ry="33.3333" style="fill:rgb(169,234,254);stroke:black;stroke-width:1" />
<ellipse cx="828.193" cy="177.722" rx="66.6667" ry="33.3333" style="fill:rgb(169,234,254);stroke:black;stroke-width:1" />
<ellipse cx="878.193" cy="214.389" rx="66.6667" ry="33.3333" style="fill:rgb(169,234,254);stroke:black;stroke-width:1" />
<ellipse cx="451.159" cy="11.1429" rx="25" ry="25" style="fill:rgb(169,234,254);stroke:black;stroke-width:1" />
<ellipse cx="501.159" cy="27.8096" rx="66.6667" ry="33.3333" style="fill:rgb(169,234,254);stroke:black;stroke-width:1" />
<ellipse cx="501.159" cy="-5.52373" rx="66.6667" ry="33.3333" style="fill:rgb(169,234,254);stroke:black;stroke-width:1" />
<ellipse cx="401.159" cy="27.8096" rx="66.6667" ry="33.3333" style="fill:rgb(169,234,254);stroke:black;stroke-width:1" />
<ellipse cx="401.159" cy="-5.52373" rx="66.6667" ry="33.3333" style="fill:rgb(169,234,254);stroke:black;stroke-width:1" />
<ellipse cx="451.159" cy="31.1429" rx="66.6667" ry="33.3333" style="fill:rgb(169,234,254);stroke:black;stroke-width:1" />
<ellipse cx="451.159" cy="-8.85706" rx="66.6667" ry="33.3333" style="fill:rgb(169,234,254);stroke:black;stroke-width:1" />
<ellipse cx="979.587" cy="88.3422" rx="25" ry="25" style="fill:rgb(169,234,254);stroke:black;stroke-width:1" />
<ellipse cx="1029.59" cy="105.009" rx="66.6667" ry="33.3333" style="fill:rgb(169,234,254);stroke:black;stroke-width:1" />
<ellipse cx="1029.59" cy="71.6755" rx="66.6667" ry="33.3333" style="fill:rgb(169,234,254);stroke:black;stroke-width:1" />
<ellipse cx="979.587" cy="108.342" rx="66.6667" ry="33.3333" style="fill:rgb(169,234,254);stroke:black;stroke-width:1" />
<ellipse cx="979.587" cy="68.3422" rx="66.6667" ry="33.3333" style="fill:rgb(169,234,254);stroke:black;stroke-width:1" />
<polygon points=" 549.062,435.707 555.649,440.098 562.236,435.707 562.236,369.837 549.062,369.837 " style="fill:rgb(91,60,17)"/>
<polygon points=" 575.41,385.293 577.057,385.293 560.589,392.612 555.649,392.612 " style="fill:rgb(91,60,17)"/>
<ellipse cx="555.649" cy="369.837" rx="21.9564" ry="13.1738" style="fill:rgb(27,79,8);stroke:black;stroke-width:1" />
<ellipse cx="576.233" cy="385.293" rx="10.9782" ry="6.58692" style="fill:rgb(27,79,8);stroke:black;stroke-width:1" />
<polygon points=" 760.899,433.252 766.964,437.295 773.028,433.252 773.028,372.608 760.899,372.608 " style="fill:rgb(91,60,17)"/>
<ellipse cx="766.964" cy="372.608" rx="20.2148" ry="12.1289" style="fill:rgb(27,79,8);stroke:black;stroke-width:1" />
<polygon points=" 715.489,442.095 722.081,446.489 728.672,442.095 728.672,376.177 715.489,376.177 " style="fill:rgb(91,60,17)"/>
<polygon points=" 741.856,401.537 743.504,401.537 727.025,408.862 722.081,408.862 " style="fill:rgb(91,60,17)"/>
<polygon points=" 702.305,403.574 700.657,403.574 717.137,410.899 722.081,410.899 " style="fill:rgb(91,60,17)"/>
<ellipse cx="722.081" cy="376.177" rx="21.9726" ry="13.1836" style="fill:rgb(27,79,8);stroke:black;stroke-width:1" />
<ellipse cx="742.68" cy="401.537" rx="10.9863" ry="6.59179" style="fill:rgb(27,79,8);stroke:black;stroke-width:1" />
<ellipse cx="701.481" cy="403.574" rx="10.9863" ry="6.59179" style="fill:rgb(27,79,8);stroke:black;stroke-width:1" />
<polygon points=" 898.264,443.186 904.648,447.441 911.031,443.186 911.031,379.35 898.264,379.35 " style="fill:rgb(91,60,17)"/>
<polygon points=" 923.798,417.357 925.394,417.357 909.435,424.449 904.648,424.449 " style="fill:rgb(91,60,17)"/>
<polygon points=" 885.497,412.503 883.901,412.503 899.86,419.595 904.648,419.595 " style="fill:rgb(91,60,17)"/>
<ellipse cx="904.648" cy="379.35" rx="21.2786" ry="12.7671" style="fill:rgb(27,79,8);stroke:black;stroke-width:1" />
<ellipse cx="924.596" cy="417.357" rx="10.6393" ry="6.38357" style="fill:rgb(27,79,8);stroke:black;stroke-width:1" />
<ellipse cx="884.699" cy="412.503" rx="10.6393" ry="6.38357" style="fill:rgb(27,79,8);stroke:black;stroke-width:1" />
<polygon points=" 725.575,444.279 731.694,448.358 737.813,444.279 737.813,383.09 725.575,383.09 " style="fill:rgb(91,60,17)"/>
<polygon points=" 750.051,413.543 751.58,413.543 736.283,420.342 731.694,420.342 " style="fill:rgb(91,60,17)"/>
<polygon points=" 713.337,394.447 711.807,394.447 727.105,401.246 731.694,401.246 " style="fill:rgb(91,60,17)"/>
<ellipse cx="731.694" cy="383.09" rx="20.3964" ry="12.2379" style="fill:rgb(27,79,8);stroke:black;stroke-width:1" />
<ellipse cx="750.815" cy="413.543" rx="10.1982" ry="6.11893" style="fill:rgb(27,79,8);stroke:black;stroke-width:1" />
<ellipse cx="712.572" cy="394.447" rx="10.1982" ry="6.11893" style="fill:rgb(27,79,8);stroke:black;stroke-width:1" />
<polygon points=" 493.397,448.257 500.026,452.677 506.656,448.257 506.656,381.965 493.397,381.965 " style="fill:rgb(91,60,17)"/>
<polygon points=" 519.914,397.52 521.571,397.52 504.998,404.886 500.026,404.886 " style="fill:rgb(91,60,17)"/>
<ellipse cx="500.026" cy="381.965" rx="22.0975" ry="13.2585" style="fill:rgb(27,79,8);stroke:black;stroke-width:1" />
<ellipse cx="520.743" cy="397.52" rx="11.0488" ry="6.62926" style="fill:rgb(27,79,8);stroke:black;stroke-width:1" />
<polygon points=" 172.344,451.075 178.367,455.09 184.391,451.075 184.391,390.841 172.344,390.841 " style="fill:rgb(91,60,17)"/>
<polygon points=" 196.437,400.69 197.943,400.69 182.885,407.382 178.367,407.382 " style="fill:rgb(91,60,17)"/>
<polygon points=" 160.297,403.088 158.791,403.088 173.85,409.78 178.367,409.78 " style="fill:rgb(91,60,17)"/>
<ellipse cx="178.367" cy="390.841" rx="20.0779" ry="12.0467" style="fill:rgb(27,79,8);stroke:black;stroke-width:1" />
<ellipse cx="197.19" cy="400.69" rx="10.0389" ry="6.02337" style="fill:rgb(27,79,8);stroke:black;stroke-width:1" />
<ellipse cx="159.544" cy="403.088" rx="10.0389" ry="6.02337" style="fill:rgb(27,79,8);stroke:black;stroke-width:1" />
<polygon points=" 795.136,454.633 801.836,459.1 808.536,454.633 808.536,387.635 795.136,387.635 " style="fill:rgb(91,60,17)"/>
<polygon points=" 781.737,408.906 780.062,408.906 796.811,416.35 801.836,416.35 " style="fill:rgb(91,60,17)"/>
<ellipse cx="801.836" cy="387.635" rx="22.3326" ry="13.3996" style="fill:rgb(27,79,8);stroke:black;stroke-width:1" />
<ellipse cx="780.899" cy="408.906" rx="11.1663" ry="6.69978" style="fill:rgb(27,79,8);stroke:black;stroke-width:1" />
<polygon points=" 674.408,456.27 680.545,460.361 686.681,456.27 686.681,394.907 674.408,394.907 " style="fill:rgb(91,60,17)"/>
<polygon points=" 698.953,423.187 700.488,423.187 685.147,430.005 680.545,430.005 " style="fill:rgb(91,60,17)"/>
<polygon points=" 662.136,431.914 660.602,431.914 675.943,438.732 680.545,438.732 " style="fill:rgb(91,60,17)"/>
<ellipse cx="680.545" cy="394.907" rx="20.4542" ry="12.2725" style="fill:rgb(27,79,8);stroke:black;stroke-width:1" />
<ellipse cx="699.72" cy="423.187" rx="10.2271" ry="6.13626" style="fill:rgb(27,79,8);stroke:black;stroke-width:1" />
<ellipse cx="661.369" cy="431.914" rx="10.2271" ry="6.13626" style="fill:rgb(27,79,8);stroke:black;stroke-width:1" />
<polygon points=" 602.949,460.685 609.178,464.837 615.406,460.685 615.406,398.402 602.949,398.402 " style="fill:rgb(91,60,17)"/>
<polygon points=" 627.863,406.129 629.42,406.129 613.849,413.05 609.178,413.05 " style="fill:rgb(91,60,17)"/>
<polygon points=" 590.492,420.418 588.935,420.418 604.506,427.338 609.178,427.338 " style="fill:rgb(91,60,17)"/>
<ellipse cx="609.178" cy="398.402" rx="20.7612" ry="12.4567" style="fill:rgb(27,79,8);stroke:black;stroke-width:1" />
<ellipse cx="628.641" cy="406.129" rx="10.3806" ry="6.22836" style="fill:rgb(27,79,8);stroke:black;stroke-width:1" />
<ellipse cx="589.714" cy="420.418" rx="10.3806" ry="6.22836" style="fill:rgb(27,79,8);stroke:black;stroke-width:1" />
<polygon points=" 209.932,473.655 216.55,478.067 223.168,473.655 223.168,407.476 209.932,407.476 " style="fill:rgb(91,60,17)"/>
<polygon points=" 196.697,425.384 195.042,425.384 211.587,432.737 216.55,432.737 " style="fill:rgb(91,60,17)"/>
<ellipse cx="216.55" cy="407.476" rx="22.0598" ry="13.2359" style="fill:rgb(27,79,8);stroke:black;stroke-width:1" />
<ellipse cx="195.869" cy="425.384" rx="11.0299" ry="6.61793" style="fill:rgb(27,79,8);stroke:black;stroke-width:1" />
<polygon points=" 405.049,473.729 411.397,477.96 417.744,473.729 417.744,410.255 405.049,410.255 " style="fill:rgb(91,60,17)"/>
<polygon points=" 430.439,425.148 432.026,425.148 416.157,432.201 411.397,432.201 " style="fill:rgb(91,60,17)"/>
<ellipse cx="411.397" cy="410.255" rx="21.158" ry="12.6948" style="fill:rgb(27,79,8);stroke:black;stroke-width:1" />
<ellipse cx="431.232" cy="425.148" rx="10.579" ry="6.34739" style="fill:rgb(27,79,8);stroke:black;stroke-width:1" />
<polygon points=" 546.031,483.437 552.821,487.964 559.612,483.437 559.612,415.527 546.031,415.527 " style="fill:rgb(91,60,17)"/>
<polygon points=" 532.449,433.903 530.751,433.903 547.728,441.449 552.821,441.449 " style="fill:rgb(91,60,17)"/>
<ellipse cx="552.821" cy="415.527" rx="22.6366" ry="13.582" style="fill:rgb(27,79,8);stroke:black;stroke-width:1" />
<ellipse cx="531.6" cy="433.903" rx="11.3183" ry="6.79098" style="fill:rgb(27,79,8);stroke:black;stroke-width:1" />
<polygon points=" 269.725,488.315 276.894,493.093 284.062,488.315 284.062,416.631 269.725,416.631 " style="fill:rgb(91,60,17)"/>
<polygon points=" 298.399,458.537 300.191,458.537 282.27,466.501 276.894,466.501 " style="fill:rgb(91,60,17)"/>
<polygon points=" 255.389,445.166 253.597,445.166 271.517,453.13 276.894,453.13 " style="fill:rgb(91,60,17)"/>
<ellipse cx="276.894" cy="416.631" rx="23.8946" ry="14.3367" style="fill:rgb(27,79,8);stroke:black;stroke-width:1" />
<ellipse cx="299.295" cy="458.537" rx="11.9473" ry="7.16837" style="fill:rgb(27,79,8);stroke:black;stroke-width:1" />
<ellipse cx="254.493" cy="445.166" rx="11.9473" ry="7.16837" style="fill:rgb(27,79,8);stroke:black;stroke-width:1" />
<polygon points=" 833.671,495.246 840.429,499.751 847.186,495.246 847.186,427.674 833.671,427.674 " style="fill:rgb(91,60,17)"/>
<polygon points=" 860.7,446.398 862.39,446.398 845.496,453.906 840.429,453.906 " style="fill:rgb(91,60,17)"/>
<ellipse cx="840.429" cy="427.674" rx="22.5241" ry="13.5145" style="fill:rgb(27,79,8);stroke:black;stroke-width:1" />
<ellipse cx="861.545" cy="446.398" rx="11.2621" ry="6.75724" style="fill:rgb(27,79,8);stroke:black;stroke-width:1" />
<polygon points=" 652.593,499.213 660.04,504.178 667.487,499.213 667.487,424.744 652.593,424.744 " style="fill:rgb(91,60,17)"/>
<ellipse cx="660.04" cy="424.744" rx="24.8232" ry="14.8939" style="fill:rgb(27,79,8);stroke:black;stroke-width:1" />
<polygon points=" 314.193,500.398 320.997,504.934 327.801,500.398 327.801,432.36 314.193,432.36 " style="fill:rgb(91,60,17)"/>
<polygon points=" 341.409,458.536 343.11,458.536 326.1,466.096 320.997,466.096 " style="fill:rgb(91,60,17)"/>
<polygon points=" 300.586,460.638 298.885,460.638 315.894,468.198 320.997,468.198 " style="fill:rgb(91,60,17)"/>
<ellipse cx="320.997" cy="432.36" rx="22.6794" ry="13.6076" style="fill:rgb(27,79,8);stroke:black;stroke-width:1" />
<ellipse cx="342.259" cy="458.536" rx="11.3397" ry="6.80382" style="fill:rgb(27,79,8);stroke:black;stroke-width:1" />
<ellipse cx="299.735" cy="460.638" rx="11.3397" ry="6.80382" style="fill:rgb(27,79,8);stroke:black;stroke-width:1" />
<polygon points=" 9.15988,506.563 16.628,511.542 24.0961,506.563 24.0961,431.882 9.15988,431.882 " style="fill:rgb(91,60,17)"/>
<polygon points=" -5.77631,474.148 -7.64333,474.148 11.0269,482.446 16.628,482.446 " style="fill:rgb(91,60,17)"/>
<ellipse cx="16.628" cy="431.882" rx="24.8936" ry="14.9362" style="fill:rgb(27,79,8);stroke:black;stroke-width:1" />
<ellipse cx="-6.70982" cy="474.148" rx="12.4468" ry="7.46809" style="fill:rgb(27,79,8);stroke:black;stroke-width:1" />
<polygon points=" 114.082,507.352 121.06,512.004 128.038,507.352 128.038,437.575 114.082,437.575 " style="fill:rgb(91,60,17)"/>
<polygon points=" 141.993,469.733 143.738,469.733 126.293,477.486 121.06,477.486 " style="fill:rgb(91,60,17)"/>
<polygon points=" 100.127,479.657 98.3822,479.657 115.827,487.41 121.06,487.41 " style="fill:rgb(91,60,17)"/>
<ellipse cx="121.06" cy="437.575" rx="23.2592" ry="13.9555" style="fill:rgb(27,79,8);stroke:black;stroke-width:1" />
<ellipse cx="142.865" cy="469.733" rx="11.6296" ry="6.97775" style="fill:rgb(27,79,8);stroke:black;stroke-width:1" />
<ellipse cx="99.2544" cy="479.657" rx="11.6296" ry="6.97775" style="fill:rgb(27,79,8);stroke:black;stroke-width:1" />
<polygon points=" 974.503,509.081 981.64,513.839 988.777,509.081 988.777,437.71 974.503,437.71 " style="fill:rgb(91,60,17)"/>
<polygon points=" 1003.05,446.565 1004.84,446.565 986.993,454.495 981.64,454.495 " style="fill:rgb(91,60,17)"/>
<polygon points=" 960.228,462.939 958.444,462.939 976.287,470.869 981.64,470.869 " style="fill:rgb(91,60,17)"/>
<ellipse cx="981.64" cy="437.71" rx="23.7904" ry="14.2742" style="fill:rgb(27,79,8);stroke:black;stroke-width:1" />
<ellipse cx="1003.94" cy="446.565" rx="11.8952" ry="7.13711" style="fill:rgb(27,79,8);stroke:black;stroke-width:1" />
<ellipse cx="959.336" cy="462.939" rx="11.8952" ry="7.13711" style="fill:rgb(27,79,8);stroke:black;stroke-width:1" />
<polygon points=" 76.1986,517.885 83.1125,522.494 90.0264,517.885 90.0264,448.746 76.1986,448.746 " style="fill:rgb(91,60,17)"/>
<polygon points=" 103.854,489.294 105.583,489.294 88.2979,496.976 83.1125,496.976 " style="fill:rgb(91,60,17)"/>
<polygon points=" 62.3709,477.061 60.6424,477.061 77.9271,484.743 83.1125,484.743 " style="fill:rgb(91,60,17)"/>
<ellipse cx="83.1125" cy="448.746" rx="23.0462" ry="13.8277" style="fill:rgb(27,79,8);stroke:black;stroke-width:1" />
<ellipse cx="104.718" cy="489.294" rx="11.5231" ry="6.91386" style="fill:rgb(27,79,8);stroke:black;stroke-width:1" />
<ellipse cx="61.5067" cy="477.061" rx="11.5231" ry="6.91386" style="fill:rgb(27,79,8);stroke:black;stroke-width:1" />
<polygon points=" 391.716,529.465 399.499,534.653 407.282,529.465 407.282,451.634 391.716,451.634 " style="fill:rgb(91,60,17)"/>
<polygon points=" 422.848,484.987 424.794,484.987 405.336,493.634 399.499,493.634 " style="fill:rgb(91,60,17)"/>
<polygon points=" 376.15,468.257 374.204,468.257 393.662,476.905 399.499,476.905 " style="fill:rgb(91,60,17)"/>
<ellipse cx="399.499" cy="451.634" rx="25.9436" ry="15.5661" style="fill:rgb(27,79,8);stroke:black;stroke-width:1" />
<ellipse cx="423.821" cy="484.987" rx="12.9718" ry="7.78307" style="fill:rgb(27,79,8);stroke:black;stroke-width:1" />
<ellipse cx="375.177" cy="468.257" rx="12.9718" ry="7.78307" style="fill:rgb(27,79,8);stroke:black;stroke-width:1" />
<polygon points=" 531.967,533.991 539.224,538.829 546.481,533.991 546.481,461.42 531.967,461.42 " style="fill:rgb(91,60,17)"/>
<polygon points=" 517.452,481.057 515.638,481.057 533.781,489.121 539.224,489.121 " style="fill:rgb(91,60,17)"/>
<ellipse cx="539.224" cy="461.42" rx="24.1903" ry="14.5142" style="fill:rgb(27,79,8);stroke:black;stroke-width:1" />
<ellipse cx="516.545" cy="481.057" rx="12.0952" ry="7.25709" style="fill:rgb(27,79,8);stroke:black;stroke-width:1" />
<polygon points=" 482.202,538.428 489.549,543.326 496.896,538.428 496.896,464.963 482.202,464.963 " style="fill:rgb(91,60,17)"/>
<polygon points=" 511.589,508.703 513.425,508.703 495.059,516.866 489.549,516.866 " style="fill:rgb(91,60,17)"/>
<polygon points=" 467.509,503.116 465.673,503.116 484.039,511.279 489.549,511.279 " style="fill:rgb(91,60,17)"/>
<ellipse cx="489.549" cy="464.963" rx="24.4886" ry="14.6931" style="fill:rgb(27,79,8);stroke:black;stroke-width:1" />
<ellipse cx="512.507" cy="508.703" rx="12.2443" ry="7.34657" style="fill:rgb(27,79,8);stroke:black;stroke-width:1" />
<ellipse cx="466.591" cy="503.116" rx="12.2443" ry="7.34657" style="fill:rgb(27,79,8);stroke:black;stroke-width:1" />
<polygon points=" 971.851,546.512 979.587,551.669 987.322,546.512 987.322,469.155 971.851,469.155 " style="fill:rgb(91,60,17)"/>
<ellipse cx="979.587" cy="469.155" rx="25.7855" ry="15.4713" style="fill:rgb(27,79,8);stroke:black;stroke-width:1" />
<polygon points=" 615.905,553.61 623.564,558.716 631.223,553.61 631.223,477.019 615.905,477.019 " style="fill:rgb(91,60,17)"/>
<polygon points=" 646.541,486.522 648.456,486.522 629.308,495.032 623.564,495.032 " style="fill:rgb(91,60,17)"/>
<polygon points=" 600.586,504.093 598.671,504.093 617.819,512.603 623.564,512.603 " style="fill:rgb(91,60,17)"/>
<ellipse cx="623.564" cy="477.019" rx="25.5306" ry="15.3183" style="fill:rgb(27,79,8);stroke:black;stroke-width:1" />
<ellipse cx="647.499" cy="486.522" rx="12.7653" ry="7.65917" style="fill:rgb(27,79,8);stroke:black;stroke-width:1" />
<ellipse cx="599.629" cy="504.093" rx="12.7653" ry="7.65917" style="fill:rgb(27,79,8);stroke:black;stroke-width:1" />
<polygon points=" 214.048,557.313 222.321,562.829 230.595,557.313 230.595,474.58 214.048,474.58 " style="fill:rgb(91,60,17)"/>
<polygon points=" 247.141,503.698 249.209,503.698 228.526,512.891 222.321,512.891 " style="fill:rgb(91,60,17)"/>
<polygon points=" 197.502,516.04 195.433,516.04 216.116,525.233 222.321,525.233 " style="fill:rgb(91,60,17)"/>
<ellipse cx="222.321" cy="474.58" rx="27.5776" ry="16.5465" style="fill:rgb(27,79,8);stroke:black;stroke-width:1" />
<ellipse cx="248.175" cy="503.698" rx="13.7888" ry="8.27327" style="fill:rgb(27,79,8);stroke:black;stroke-width:1" />
<ellipse cx="196.467" cy="516.04" rx="13.7888" ry="8.27327" style="fill:rgb(27,79,8);stroke:black;stroke-width:1" />
<polygon points=" 747.799,560.369 756.107,565.908 764.415,560.369 764.415,477.29 747.799,477.29 " style="fill:rgb(91,60,17)"/>
<polygon points=" 781.03,526.32 783.107,526.32 762.338,535.551 756.107,535.551 " style="fill:rgb(91,60,17)"/>
<polygon points=" 731.183,513.373 729.106,513.373 749.876,522.604 756.107,522.604 " style="fill:rgb(91,60,17)"/>
<ellipse cx="756.107" cy="477.29" rx="27.693" ry="16.6158" style="fill:rgb(27,79,8);stroke:black;stroke-width:1" />
<ellipse cx="782.069" cy="526.32" rx="13.8465" ry="8.30789" style="fill:rgb(27,79,8);stroke:black;stroke-width:1" />
<ellipse cx="730.145" cy="513.373" rx="13.8465" ry="8.30789" style="fill:rgb(27,79,8);stroke:black;stroke-width:1" />
<polygon points=" 365.726,563.849 373.291,568.892 380.856,563.849 380.856,488.197 365.726,488.197 " style="fill:rgb(91,60,17)"/>
<polygon points=" 395.986,515.722 397.878,515.722 378.965,524.127 373.291,524.127 " style="fill:rgb(91,60,17)"/>
<polygon points=" 350.595,530.963 348.704,530.963 367.617,539.368 373.291,539.368 " style="fill:rgb(91,60,17)"/>
<ellipse cx="373.291" cy="488.197" rx="25.2173" ry="15.1304" style="fill:rgb(27,79,8);stroke:black;stroke-width:1" />
<ellipse cx="396.932" cy="515.722" rx="12.6087" ry="7.5652" style="fill:rgb(27,79,8);stroke:black;stroke-width:1" />
<ellipse cx="349.65" cy="530.963" rx="12.6087" ry="7.5652" style="fill:rgb(27,79,8);stroke:black;stroke-width:1" />
<polygon points=" 402.645,567.704 410.492,572.936 418.34,567.704 418.34,489.23 402.645,489.23 " style="fill:rgb(91,60,17)"/>
<polygon points=" 434.034,533.173 435.996,533.173 416.378,541.892 410.492,541.892 " style="fill:rgb(91,60,17)"/>
<polygon points=" 386.95,522.335 384.988,522.335 404.607,531.054 410.492,531.054 " style="fill:rgb(91,60,17)"/>
<ellipse cx="410.492" cy="489.23" rx="26.1579" ry="15.6947" style="fill:rgb(27,79,8);stroke:black;stroke-width:1" />
<ellipse cx="435.015" cy="533.173" rx="13.079" ry="7.84737" style="fill:rgb(27,79,8);stroke:black;stroke-width:1" />
<ellipse cx="385.969" cy="522.335" rx="13.079" ry="7.84737" style="fill:rgb(27,79,8);stroke:black;stroke-width:1" />
<polygon points=" 802.106,571.237 810.424,576.782 818.743,571.237 818.743,488.052 802.106,488.052 " style="fill:rgb(91,60,17)"/>
<polygon points=" 835.38,499.212 837.459,499.212 816.663,508.455 810.424,508.455 " style="fill:rgb(91,60,17)"/>
<ellipse cx="810.424" cy="488.052" rx="27.7283" ry="16.637" style="fill:rgb(27,79,8);stroke:black;stroke-width:1" />
<ellipse cx="836.419" cy="499.212" rx="13.8641" ry="8.31848" style="fill:rgb(27,79,8);stroke:black;stroke-width:1" />
<polygon points=" 928.387,576.01 936.746,581.583 945.106,576.01 945.106,492.417 928.387,492.417 " style="fill:rgb(91,60,17)"/>
<polygon points=" 961.824,521.103 963.914,521.103 943.016,530.391 936.746,530.391 " style="fill:rgb(91,60,17)"/>
<polygon points=" 911.669,514.648 909.579,514.648 930.477,523.936 936.746,523.936 " style="fill:rgb(91,60,17)"/>
<ellipse cx="936.746" cy="492.417" rx="27.8644" ry="16.7186" style="fill:rgb(27,79,8);stroke:black;stroke-width:1" />
<ellipse cx="962.869" cy="521.103" rx="13.9322" ry="8.35932" style="fill:rgb(27,79,8);stroke:black;stroke-width:1" />
<ellipse cx="910.624" cy="514.648" rx="13.9322" ry="8.35932" style="fill:rgb(27,79,8);stroke:black;stroke-width:1" />
<polygon points=" 529.289,573.046 537.023,578.201 544.756,573.046 544.756,495.71 529.289,495.71 " style="fill:rgb(91,60,17)"/>
<polygon points=" 560.223,524.82 562.157,524.82 542.823,533.412 537.023,533.412 " style="fill:rgb(91,60,17)"/>
<polygon points=" 513.822,535.501 511.889,535.501 531.222,544.094 537.023,544.094 " style="fill:rgb(91,60,17)"/>
<ellipse cx="537.023" cy="495.71" rx="25.7785" ry="15.4671" style="fill:rgb(27,79,8);stroke:black;stroke-width:1" />
<ellipse cx="561.19" cy="524.82" rx="12.8892" ry="7.73354" style="fill:rgb(27,79,8);stroke:black;stroke-width:1" />
<ellipse cx="512.855" cy="535.501" rx="12.8892" ry="7.73354" style="fill:rgb(27,79,8);stroke:black;stroke-width:1" />
<polygon points=" 48.0469,573.687 55.7147,578.799 63.3825,573.687 63.3825,497.009 48.0469,497.009 " style="fill:rgb(91,60,17)"/>
<polygon points=" 78.7181,523.996 80.6351,523.996 61.4656,532.515 55.7147,532.515 " style="fill:rgb(91,60,17)"/>
<polygon points=" 32.7113,535.434 30.7943,535.434 49.9638,543.954 55.7147,543.954 " style="fill:rgb(91,60,17)"/>
<ellipse cx="55.7147" cy="497.009" rx="25.5594" ry="15.3356" style="fill:rgb(27,79,8);stroke:black;stroke-width:1" />
<ellipse cx="79.6766" cy="523.996" rx="12.7797" ry="7.66781" style="fill:rgb(27,79,8);stroke:black;stroke-width:1" />
<ellipse cx="31.7528" cy="535.434" rx="12.7797" ry="7.66781" style="fill:rgb(27,79,8);stroke:black;stroke-width:1" />
<polygon points=" 671.727,577.602 679.879,583.037 688.032,577.602 688.032,496.076 671.727,496.076 " style="fill:rgb(91,60,17)"/>
<polygon points=" 704.337,537.659 706.375,537.659 685.994,546.718 679.879,546.718 " style="fill:rgb(91,60,17)"/>
<polygon points=" 655.422,538.913 653.384,538.913 673.765,547.971 679.879,547.971 " style="fill:rgb(91,60,17)"/>
<ellipse cx="679.879" cy="496.076" rx="27.1751" ry="16.3051" style="fill:rgb(27,79,8);stroke:black;stroke-width:1" />
<ellipse cx="705.356" cy="537.659" rx="13.5876" ry="8.15254" style="fill:rgb(27,79,8);stroke:black;stroke-width:1" />
<ellipse cx="654.403" cy="538.913" rx="13.5876" ry="8.15254" style="fill:rgb(27,79,8);stroke:black;stroke-width:1" />
<polygon points=" 97.9773,581.732 105.908,587.019 113.838,581.732 113.838,502.428 97.9773,502.428 " style="fill:rgb(91,60,17)"/>
<polygon points=" 129.699,535.095 131.681,535.095 111.855,543.906 105.908,543.906 " style="fill:rgb(91,60,17)"/>
<polygon points=" 82.1166,545.461 80.134,545.461 99.9599,554.273 105.908,554.273 " style="fill:rgb(91,60,17)"/>
<ellipse cx="105.908" cy="502.428" rx="26.4344" ry="15.8607" style="fill:rgb(27,79,8);stroke:black;stroke-width:1" />
<ellipse cx="130.69" cy="535.095" rx="13.2172" ry="7.93033" style="fill:rgb(27,79,8);stroke:black;stroke-width:1" />
<ellipse cx="81.1253" cy="545.461" rx="13.2172" ry="7.93033" style="fill:rgb(27,79,8);stroke:black;stroke-width:1" />
<polygon points=" 264.083,586.167 272.656,591.883 281.23,586.167 281.23,500.432 264.083,500.432 " style="fill:rgb(91,60,17)"/>
<polygon points=" 298.377,550.552 300.52,550.552 279.086,560.078 272.656,560.078 " style="fill:rgb(91,60,17)"/>
<polygon points=" 246.936,534.56 244.792,534.56 266.226,544.086 272.656,544.086 " style="fill:rgb(91,60,17)"/>
<ellipse cx="272.656" cy="500.432" rx="28.5786" ry="17.1472" style="fill:rgb(27,79,8);stroke:black;stroke-width:1" />
<ellipse cx="299.449" cy="550.552" rx="14.2893" ry="8.57359" style="fill:rgb(27,79,8);stroke:black;stroke-width:1" />
<ellipse cx="245.864" cy="534.56" rx="14.2893" ry="8.57359" style="fill:rgb(27,79,8);stroke:black;stroke-width:1" />
<polygon points=" 468.213,587.7 476.477,593.209 484.741,587.7 484.741,505.061 468.213,505.061 " style="fill:rgb(91,60,17)"/>
<polygon points=" 501.269,535.704 503.335,535.704 482.675,544.886 476.477,544.886 " style="fill:rgb(91,60,17)"/>
<polygon points=" 451.685,518.348 449.619,518.348 470.279,527.53 476.477,527.53 " style="fill:rgb(91,60,17)"/>
<ellipse cx="476.477" cy="505.061" rx="27.5465" ry="16.5279" style="fill:rgb(27,79,8);stroke:black;stroke-width:1" />
<ellipse cx="502.302" cy="535.704" rx="13.7732" ry="8.26395" style="fill:rgb(27,79,8);stroke:black;stroke-width:1" />
<ellipse cx="450.652" cy="518.348" rx="13.7732" ry="8.26395" style="fill:rgb(27,79,8);stroke:black;stroke-width:1" />
<polygon points=" 856.29,596.752 865.103,602.627 873.915,596.752 873.915,508.629 856.29,508.629 " style="fill:rgb(91,60,17)"/>
<polygon points=" 891.539,546.392 893.743,546.392 871.712,556.184 865.103,556.184 " style="fill:rgb(91,60,17)"/>
<polygon points=" 838.666,527.45 836.463,527.45 858.493,537.242 865.103,537.242 " style="fill:rgb(91,60,17)"/>
<ellipse cx="865.103" cy="508.629" rx="29.3743" ry="17.6246" style="fill:rgb(27,79,8);stroke:black;stroke-width:1" />
<ellipse cx="892.641" cy="546.392" rx="14.6872" ry="8.8123" style="fill:rgb(27,79,8);stroke:black;stroke-width:1" />
<ellipse cx="837.564" cy="527.45" rx="14.6872" ry="8.8123" style="fill:rgb(27,79,8);stroke:black;stroke-width:1" />
<polygon points=" 608.764,607.219 617.658,613.148 626.552,607.219 626.552,518.28 608.764,518.28 " style="fill:rgb(91,60,17)"/>
<polygon points=" 644.34,548.8 646.563,548.8 624.328,558.683 617.658,558.683 " style="fill:rgb(91,60,17)"/>
<polygon points=" 590.976,541.933 588.753,541.933 610.987,551.815 617.658,551.815 " style="fill:rgb(91,60,17)"/>
<ellipse cx="617.658" cy="518.28" rx="29.6463" ry="17.7878" style="fill:rgb(27,79,8);stroke:black;stroke-width:1" />
<ellipse cx="645.451" cy="548.8" rx="14.8232" ry="8.89389" style="fill:rgb(27,79,8);stroke:black;stroke-width:1" />
<ellipse cx="589.865" cy="541.933" rx="14.8232" ry="8.89389" style="fill:rgb(27,79,8);stroke:black;stroke-width:1" />
<polygon points=" 345.934,606.109 354.047,611.518 362.16,606.109 362.16,524.981 345.934,524.981 " style="fill:rgb(91,60,17)"/>
<polygon points=" 329.708,544.804 327.68,544.804 347.962,553.818 354.047,553.818 " style="fill:rgb(91,60,17)"/>
<ellipse cx="354.047" cy="524.981" rx="27.0428" ry="16.2257" style="fill:rgb(27,79,8);stroke:black;stroke-width:1" />
<ellipse cx="328.694" cy="544.804" rx="13.5214" ry="8.11284" style="fill:rgb(27,79,8);stroke:black;stroke-width:1" />
<polygon points=" 397.623,613.25 406.12,618.915 414.618,613.25 414.618,528.276 397.623,528.276 " style="fill:rgb(91,60,17)"/>
<polygon points=" 431.613,571.618 433.737,571.618 412.494,581.06 406.12,581.06 " style="fill:rgb(91,60,17)"/>
<polygon points=" 380.628,572.925 378.504,572.925 399.747,582.366 406.12,582.366 " style="fill:rgb(91,60,17)"/>
<ellipse cx="406.12" cy="528.276" rx="28.3246" ry="16.9947" style="fill:rgb(27,79,8);stroke:black;stroke-width:1" />
<ellipse cx="432.675" cy="571.618" rx="14.1623" ry="8.49737" style="fill:rgb(27,79,8);stroke:black;stroke-width:1" />
<ellipse cx="379.566" cy="572.925" rx="14.1623" ry="8.49737" style="fill:rgb(27,79,8);stroke:black;stroke-width:1" />
<polygon points=" 210.142,613.909 218.749,619.647 227.357,613.909 227.357,527.835 210.142,527.835 " style="fill:rgb(91,60,17)"/>
<polygon points=" 192.927,548.867 190.775,548.867 212.294,558.431 218.749,558.431 " style="fill:rgb(91,60,17)"/>
<ellipse cx="218.749" cy="527.835" rx="28.6914" ry="17.2148" style="fill:rgb(27,79,8);stroke:black;stroke-width:1" />
<ellipse cx="191.851" cy="548.867" rx="14.3457" ry="8.60742" style="fill:rgb(27,79,8);stroke:black;stroke-width:1" />
<polygon points=" 503.404,619.081 512.393,625.074 521.383,619.081 521.383,529.187 503.404,529.187 " style="fill:rgb(91,60,17)"/>
<polygon points=" 539.362,556.289 541.609,556.289 519.136,566.277 512.393,566.277 " style="fill:rgb(91,60,17)"/>
<polygon points=" 485.425,568.079 483.178,568.079 505.651,578.067 512.393,578.067 " style="fill:rgb(91,60,17)"/>
<ellipse cx="512.393" cy="529.187" rx="29.9649" ry="17.9789" style="fill:rgb(27,79,8);stroke:black;stroke-width:1" />
<ellipse cx="540.486" cy="556.289" rx="14.9824" ry="8.98946" style="fill:rgb(27,79,8);stroke:black;stroke-width:1" />
<ellipse cx="484.301" cy="568.079" rx="14.9824" ry="8.98946" style="fill:rgb(27,79,8);stroke:black;stroke-width:1" />
<polygon points=" 711.887,618.336 720.633,624.167 729.379,618.336 729.379,530.876 711.887,530.876 " style="fill:rgb(91,60,17)"/>
<polygon points=" 746.871,560.889 749.057,560.889 727.192,570.606 720.633,570.606 " style="fill:rgb(91,60,17)"/>
<polygon points=" 694.395,554.136 692.208,554.136 714.073,563.853 720.633,563.853 " style="fill:rgb(91,60,17)"/>
<ellipse cx="720.633" cy="530.876" rx="29.1534" ry="17.4921" style="fill:rgb(27,79,8);stroke:black;stroke-width:1" />
<ellipse cx="747.964" cy="560.889" rx="14.5767" ry="8.74603" style="fill:rgb(27,79,8);stroke:black;stroke-width:1" />
<ellipse cx="693.301" cy="554.136" rx="14.5767" ry="8.74603" style="fill:rgb(27,79,8);stroke:black;stroke-width:1" />
<polygon points=" 956.52,621.019 965.416,626.95 974.312,621.019 974.312,532.06 956.52,532.06 " style="fill:rgb(91,60,17)"/>
<polygon points=" 992.104,565.047 994.328,565.047 972.088,574.931 965.416,574.931 " style="fill:rgb(91,60,17)"/>
<polygon points=" 938.728,546.363 936.504,546.363 958.744,556.247 965.416,556.247 " style="fill:rgb(91,60,17)"/>
<ellipse cx="965.416" cy="532.06" rx="29.6532" ry="17.7919" style="fill:rgb(27,79,8);stroke:black;stroke-width:1" />
<ellipse cx="993.216" cy="565.047" rx="14.8266" ry="8.89595" style="fill:rgb(27,79,8);stroke:black;stroke-width:1" />
<ellipse cx="937.616" cy="546.363" rx="14.8266" ry="8.89595" style="fill:rgb(27,79,8);stroke:black;stroke-width:1" />
<polygon points=" 465.973,630.675 474.698,636.492 483.422,630.675 483.422,543.431 465.973,543.431 " style="fill:rgb(91,60,17)"/>
<polygon points=" 500.871,572.754 503.052,572.754 481.241,582.447 474.698,582.447 " style="fill:rgb(91,60,17)"/>
<polygon points=" 448.524,557.92 446.343,557.92 468.154,567.614 474.698,567.614 " style="fill:rgb(91,60,17)"/>
<ellipse cx="474.698" cy="543.431" rx="29.0816" ry="17.449" style="fill:rgb(27,79,8);stroke:black;stroke-width:1" />
<ellipse cx="501.962" cy="572.754" rx="14.5408" ry="8.72448" style="fill:rgb(27,79,8);stroke:black;stroke-width:1" />
<ellipse cx="447.434" cy="557.92" rx="14.5408" ry="8.72448" style="fill:rgb(27,79,8);stroke:black;stroke-width:1" />
<polygon points=" 29.0339,637.24 38.4254,643.501 47.817,637.24 47.817,543.324 29.0339,543.324 " style="fill:rgb(91,60,17)"/>
<polygon points=" 66.6001,571.261 68.948,571.261 45.4691,581.696 38.4254,581.696 " style="fill:rgb(91,60,17)"/>
<polygon points=" 10.2508,589.165 7.90288,589.165 31.3818,599.601 38.4254,599.601 " style="fill:rgb(91,60,17)"/>
<ellipse cx="38.4254" cy="543.324" rx="31.3052" ry="18.7831" style="fill:rgb(27,79,8);stroke:black;stroke-width:1" />
<ellipse cx="67.774" cy="571.261" rx="15.6526" ry="9.39155" style="fill:rgb(27,79,8);stroke:black;stroke-width:1" />
<ellipse cx="9.07682" cy="589.165" rx="15.6526" ry="9.39155" style="fill:rgb(27,79,8);stroke:black;stroke-width:1" />
<polygon points=" 798.197,636.134 807.023,642.018 815.848,636.134 815.848,547.881 798.197,547.881 " style="fill:rgb(91,60,17)"/>
<polygon points=" 833.499,565.581 835.705,565.581 813.642,575.386 807.023,575.386 " style="fill:rgb(91,60,17)"/>
<ellipse cx="807.023" cy="547.881" rx="29.4178" ry="17.6507" style="fill:rgb(27,79,8);stroke:black;stroke-width:1" />
<ellipse cx="834.602" cy="565.581" rx="14.7089" ry="8.82535" style="fill:rgb(27,79,8);stroke:black;stroke-width:1" />
<polygon points=" 257.774,651.172 267.263,657.498 276.751,651.172 276.751,556.282 257.774,556.282 " style="fill:rgb(91,60,17)"/>
<polygon points=" 295.729,588.845 298.102,588.845 274.379,599.388 267.263,599.388 " style="fill:rgb(91,60,17)"/>
<polygon points=" 238.796,581.518 236.423,581.518 260.146,592.061 267.263,592.061 " style="fill:rgb(91,60,17)"/>
<ellipse cx="267.263" cy="556.282" rx="31.6299" ry="18.9779" style="fill:rgb(27,79,8);stroke:black;stroke-width:1" />
<ellipse cx="296.916" cy="588.845" rx="15.8149" ry="9.48896" style="fill:rgb(27,79,8);stroke:black;stroke-width:1" />
<ellipse cx="237.61" cy="581.518" rx="15.8149" ry="9.48896" style="fill:rgb(27,79,8);stroke:black;stroke-width:1" />
<polygon points=" 882.476,649.407 891.554,655.459 900.632,649.407 900.632,558.627 882.476,558.627 " style="fill:rgb(91,60,17)"/>
<polygon points=" 864.32,580.808 862.051,580.808 884.746,590.895 891.554,590.895 " style="fill:rgb(91,60,17)"/>
<ellipse cx="891.554" cy="558.627" rx="30.26" ry="18.156" style="fill:rgb(27,79,8);stroke:black;stroke-width:1" />
<ellipse cx="863.186" cy="580.808" rx="15.13" ry="9.07801" style="fill:rgb(27,79,8);stroke:black;stroke-width:1" />
<polygon points=" 560.6,656.215 569.618,662.228 578.637,656.215 578.637,566.027 560.6,566.027 " style="fill:rgb(91,60,17)"/>
<polygon points=" 542.562,606.705 540.307,606.705 562.854,616.726 569.618,616.726 " style="fill:rgb(91,60,17)"/>
<ellipse cx="569.618" cy="566.027" rx="30.0626" ry="18.0376" style="fill:rgb(27,79,8);stroke:black;stroke-width:1" />
<ellipse cx="541.435" cy="606.705" rx="15.0313" ry="9.01878" style="fill:rgb(27,79,8);stroke:black;stroke-width:1" />
<polygon points=" 597.798,660.643 607.045,666.807 616.292,660.643 616.292,568.175 597.798,568.175 " style="fill:rgb(91,60,17)"/>
<polygon points=" 634.785,600.719 637.097,600.719 613.98,610.994 607.045,610.994 " style="fill:rgb(91,60,17)"/>
<polygon points=" 579.305,614.513 576.993,614.513 600.11,624.788 607.045,624.788 " style="fill:rgb(91,60,17)"/>
<ellipse cx="607.045" cy="568.175" rx="30.8226" ry="18.4935" style="fill:rgb(27,79,8);stroke:black;stroke-width:1" />
<ellipse cx="635.941" cy="600.719" rx="15.4113" ry="9.24677" style="fill:rgb(27,79,8);stroke:black;stroke-width:1" />
<ellipse cx="578.149" cy="614.513" rx="15.4113" ry="9.24677" style="fill:rgb(27,79,8);stroke:black;stroke-width:1" />
<polygon points=" 915.893,660.904 925.163,667.085 934.434,660.904 934.434,568.203 915.893,568.203 " style="fill:rgb(91,60,17)"/>
<polygon points=" 952.974,622.395 955.291,622.395 932.116,632.696 925.163,632.696 " style="fill:rgb(91,60,17)"/>
<polygon points=" 897.353,605.104 895.035,605.104 918.211,615.404 925.163,615.404 " style="fill:rgb(91,60,17)"/>
<ellipse cx="925.163" cy="568.203" rx="30.9005" ry="18.5403" style="fill:rgb(27,79,8);stroke:black;stroke-width:1" />
<ellipse cx="954.133" cy="622.395" rx="15.4503" ry="9.27016" style="fill:rgb(27,79,8);stroke:black;stroke-width:1" />
<ellipse cx="896.194" cy="605.104" rx="15.4503" ry="9.27016" style="fill:rgb(27,79,8);stroke:black;stroke-width:1" />
<polygon points=" 144.203,666.588 153.694,672.915 163.185,666.588 163.185,571.678 144.203,571.678 " style="fill:rgb(91,60,17)"/>
<polygon points=" 182.167,583.208 184.54,583.208 160.813,593.754 153.694,593.754 " style="fill:rgb(91,60,17)"/>
<polygon points=" 125.221,621.702 122.848,621.702 146.576,632.247 153.694,632.247 " style="fill:rgb(91,60,17)"/>
<ellipse cx="153.694" cy="571.678" rx="31.6367" ry="18.982" style="fill:rgb(27,79,8);stroke:black;stroke-width:1" />
<ellipse cx="183.354" cy="583.208" rx="15.8184" ry="9.49102" style="fill:rgb(27,79,8);stroke:black;stroke-width:1" />
<ellipse cx="124.035" cy="621.702" rx="15.8184" ry="9.49102" style="fill:rgb(27,79,8);stroke:black;stroke-width:1" />
<polygon points=" 348.613,672.903 358.152,679.262 367.692,672.903 367.692,577.509 348.613,577.509 " style="fill:rgb(91,60,17)"/>
<polygon points=" 386.77,613.062 389.155,613.062 365.307,623.661 358.152,623.661 " style="fill:rgb(91,60,17)"/>
<polygon points=" 329.534,594.748 327.149,594.748 350.998,605.347 358.152,605.347 " style="fill:rgb(91,60,17)"/>
<ellipse cx="358.152" cy="577.509" rx="31.7978" ry="19.0787" style="fill:rgb(27,79,8);stroke:black;stroke-width:1" />
<ellipse cx="387.963" cy="613.062" rx="15.8989" ry="9.53934" style="fill:rgb(27,79,8);stroke:black;stroke-width:1" />
<ellipse cx="328.342" cy="594.748" rx="15.8989" ry="9.53934" style="fill:rgb(27,79,8);stroke:black;stroke-width:1" />
<polygon points=" 976.084,670.81 985.032,676.776 993.98,670.81 993.98,581.331 976.084,581.331 " style="fill:rgb(91,60,17)"/>
<polygon points=" 1011.88,601.901 1014.11,601.901 991.743,611.843 985.032,611.843 " style="fill:rgb(91,60,17)"/>
<polygon points=" 958.189,599.289 955.952,599.289 978.321,609.231 985.032,609.231 " style="fill:rgb(91,60,17)"/>
<ellipse cx="985.032" cy="581.331" rx="29.8264" ry="17.8958" style="fill:rgb(27,79,8);stroke:black;stroke-width:1" />
<ellipse cx="1012.99" cy="601.901" rx="14.9132" ry="8.94792" style="fill:rgb(27,79,8);stroke:black;stroke-width:1" />
<ellipse cx="957.07" cy="599.289" rx="14.9132" ry="8.94792" style="fill:rgb(27,79,8);stroke:black;stroke-width:1" />
<polygon points=" 106.789,677.174 116.202,683.449 125.615,677.174 125.615,583.04 106.789,583.04 " style="fill:rgb(91,60,17)"/>
<polygon points=" 144.442,614.679 146.795,614.679 123.262,625.138 116.202,625.138 " style="fill:rgb(91,60,17)"/>
<polygon points=" 87.9619,598.674 85.6085,598.674 109.142,609.134 116.202,609.134 " style="fill:rgb(91,60,17)"/>
<ellipse cx="116.202" cy="583.04" rx="31.3778" ry="18.8267" style="fill:rgb(27,79,8);stroke:black;stroke-width:1" />
<ellipse cx="145.619" cy="614.679" rx="15.6889" ry="9.41335" style="fill:rgb(27,79,8);stroke:black;stroke-width:1" />
<ellipse cx="86.7852" cy="598.674" rx="15.6889" ry="9.41335" style="fill:rgb(27,79,8);stroke:black;stroke-width:1" />
<polygon points=" 307.202,683.502 317.202,690.168 327.201,683.502 327.201,583.506 307.202,583.506 " style="fill:rgb(91,60,17)"/>
<polygon points=" 347.201,617.114 349.701,617.114 324.701,628.225 317.202,628.225 " style="fill:rgb(91,60,17)"/>
<polygon points=" 287.203,600.113 284.703,600.113 309.702,611.224 317.202,611.224 " style="fill:rgb(91,60,17)"/>
<ellipse cx="317.202" cy="583.506" rx="33.3321" ry="19.9992" style="fill:rgb(27,79,8);stroke:black;stroke-width:1" />
<ellipse cx="348.451" cy="617.114" rx="16.666" ry="9.99962" style="fill:rgb(27,79,8);stroke:black;stroke-width:1" />
<ellipse cx="285.953" cy="600.113" rx="16.666" ry="9.99962" style="fill:rgb(27,79,8);stroke:black;stroke-width:1" />
<polygon points=" 463.941,688.609 473.608,695.054 483.275,688.609 483.275,591.937 463.941,591.937 " style="fill:rgb(91,60,17)"/>
<polygon points=" 502.61,624.429 505.027,624.429 480.858,635.17 473.608,635.17 " style="fill:rgb(91,60,17)"/>
<polygon points=" 444.606,607.993 442.19,607.993 466.358,618.734 473.608,618.734 " style="fill:rgb(91,60,17)"/>
<ellipse cx="473.608" cy="591.937" rx="32.2241" ry="19.3345" style="fill:rgb(27,79,8);stroke:black;stroke-width:1" />
<ellipse cx="503.818" cy="624.429" rx="16.1121" ry="9.66724" style="fill:rgb(27,79,8);stroke:black;stroke-width:1" />
<ellipse cx="443.398" cy="607.993" rx="16.1121" ry="9.66724" style="fill:rgb(27,79,8);stroke:black;stroke-width:1" />
<polygon points=" 176.536,691.886 186.458,698.501 196.381,691.886 196.381,592.662 176.536,592.662 " style="fill:rgb(91,60,17)"/>
<polygon points=" 216.225,626.011 218.706,626.011 193.9,637.036 186.458,637.036 " style="fill:rgb(91,60,17)"/>
<polygon points=" 156.691,609.141 154.21,609.141 179.016,620.166 186.458,620.166 " style="fill:rgb(91,60,17)"/>
<ellipse cx="186.458" cy="592.662" rx="33.0747" ry="19.8448" style="fill:rgb(27,79,8);stroke:black;stroke-width:1" />
<ellipse cx="217.466" cy="626.011" rx="16.5374" ry="9.92242" style="fill:rgb(27,79,8);stroke:black;stroke-width:1" />
<ellipse cx="155.451" cy="609.141" rx="16.5374" ry="9.92242" style="fill:rgb(27,79,8);stroke:black;stroke-width:1" />
<polygon points=" 423.672,696.898 433.439,703.409 443.206,696.898 443.206,599.224 423.672,599.224 " style="fill:rgb(91,60,17)"/>
<polygon points=" 462.741,636.802 465.183,636.802 440.764,647.655 433.439,647.655 " style="fill:rgb(91,60,17)"/>
<polygon points=" 404.137,639.82 401.695,639.82 426.113,650.673 433.439,650.673 " style="fill:rgb(91,60,17)"/>
<ellipse cx="433.439" cy="599.224" rx="32.5579" ry="19.5347" style="fill:rgb(27,79,8);stroke:black;stroke-width:1" />
<ellipse cx="463.962" cy="636.802" rx="16.2789" ry="9.76736" style="fill:rgb(27,79,8);stroke:black;stroke-width:1" />
<ellipse cx="402.916" cy="639.82" rx="16.2789" ry="9.76736" style="fill:rgb(27,79,8);stroke:black;stroke-width:1" />
<polygon points=" 383.15,698.998 392.785,705.421 402.42,698.998 402.42,602.649 383.15,602.649 " style="fill:rgb(91,60,17)"/>
<polygon points=" 421.689,631.31 424.098,631.31 400.011,642.015 392.785,642.015 " style="fill:rgb(91,60,17)"/>
<polygon points=" 363.88,649.678 361.471,649.678 385.559,660.383 392.785,660.383 " style="fill:rgb(91,60,17)"/>
<ellipse cx="392.785" cy="602.649" rx="32.1163" ry="19.2698" style="fill:rgb(27,79,8);stroke:black;stroke-width:1" />
<ellipse cx="422.894" cy="631.31" rx="16.0581" ry="9.63488" style="fill:rgb(27,79,8);stroke:black;stroke-width:1" />
<ellipse cx="362.676" cy="649.678" rx="16.0581" ry="9.63488" style="fill:rgb(27,79,8);stroke:black;stroke-width:1" />
<polygon points=" 637.589,700.341 647.174,706.731 656.759,700.341 656.759,604.491 637.589,604.491 " style="fill:rgb(91,60,17)"/>
<polygon points=" 618.419,634.922 616.023,634.922 639.985,645.572 647.174,645.572 " style="fill:rgb(91,60,17)"/>
<ellipse cx="647.174" cy="604.491" rx="31.9499" ry="19.1699" style="fill:rgb(27,79,8);stroke:black;stroke-width:1" />
<ellipse cx="617.221" cy="634.922" rx="15.9749" ry="9.58496" style="fill:rgb(27,79,8);stroke:black;stroke-width:1" />
<polygon points=" 582.654,704.232 592.845,711.026 603.035,704.232 603.035,602.327 582.654,602.327 " style="fill:rgb(91,60,17)"/>
<polygon points=" 623.416,662.091 625.964,662.091 600.488,673.414 592.845,673.414 " style="fill:rgb(91,60,17)"/>
<polygon points=" 562.273,644.061 559.725,644.061 585.202,655.384 592.845,655.384 " style="fill:rgb(91,60,17)"/>
<ellipse cx="592.845" cy="602.327" rx="33.9684" ry="20.381" style="fill:rgb(27,79,8);stroke:black;stroke-width:1" />
<ellipse cx="624.69" cy="662.091" rx="16.9842" ry="10.1905" style="fill:rgb(27,79,8);stroke:black;stroke-width:1" />
<ellipse cx="560.999" cy="644.061" rx="16.9842" ry="10.1905" style="fill:rgb(27,79,8);stroke:black;stroke-width:1" />
<polygon points=" 739.588,711.445 749.17,717.833 758.752,711.445 758.752,615.626 739.588,615.626 " style="fill:rgb(91,60,17)"/>
<polygon points=" 777.916,652.49 780.311,652.49 756.356,663.137 749.17,663.137 " style="fill:rgb(91,60,17)"/>
<polygon points=" 720.424,655.451 718.029,655.451 741.983,666.098 749.17,666.098 " style="fill:rgb(91,60,17)"/>
<ellipse cx="749.17" cy="615.626" rx="31.9398" ry="19.1639" style="fill:rgb(27,79,8);stroke:black;stroke-width:1" />
<ellipse cx="779.113" cy="652.49" rx="15.9699" ry="9.58194" style="fill:rgb(27,79,8);stroke:black;stroke-width:1" />
<ellipse cx="719.226" cy="655.451" rx="15.9699" ry="9.58194" style="fill:rgb(27,79,8);stroke:black;stroke-width:1" />
<polygon points=" 218.822,716.46 229.219,723.392 239.616,716.46 239.616,612.491 218.822,612.491 " style="fill:rgb(91,60,17)"/>
<polygon points=" 260.41,643.418 263.009,643.418 237.017,654.971 229.219,654.971 " style="fill:rgb(91,60,17)"/>
<polygon points=" 198.029,663.239 195.429,663.239 221.422,674.791 229.219,674.791 " style="fill:rgb(91,60,17)"/>
<ellipse cx="229.219" cy="612.491" rx="34.6564" ry="20.7939" style="fill:rgb(27,79,8);stroke:black;stroke-width:1" />
<ellipse cx="261.71" cy="643.418" rx="17.3282" ry="10.3969" style="fill:rgb(27,79,8);stroke:black;stroke-width:1" />
<ellipse cx="196.729" cy="663.239" rx="17.3282" ry="10.3969" style="fill:rgb(27,79,8);stroke:black;stroke-width:1" />
<polygon points=" 870.609,724.803 880.476,731.38 890.342,724.803 890.342,626.139 870.609,626.139 " style="fill:rgb(91,60,17)"/>
<polygon points=" 910.075,664.788 912.542,664.788 887.876,675.751 880.476,675.751 " style="fill:rgb(91,60,17)"/>
<ellipse cx="880.476" cy="626.139" rx="32.888" ry="19.7328" style="fill:rgb(27,79,8);stroke:black;stroke-width:1" />
<ellipse cx="911.308" cy="664.788" rx="16.444" ry="9.8664" style="fill:rgb(27,79,8);stroke:black;stroke-width:1" />
<polygon points=" 493.068,737.914 503.427,744.82 513.787,737.914 513.787,634.319 493.068,634.319 " style="fill:rgb(91,60,17)"/>
<polygon points=" 534.506,674.175 537.096,674.175 511.197,685.685 503.427,685.685 " style="fill:rgb(91,60,17)"/>
<polygon points=" 472.349,677.376 469.759,677.376 495.658,688.887 503.427,688.887 " style="fill:rgb(91,60,17)"/>
<ellipse cx="503.427" cy="634.319" rx="34.5316" ry="20.7189" style="fill:rgb(27,79,8);stroke:black;stroke-width:1" />
<ellipse cx="535.801" cy="674.175" rx="17.2658" ry="10.3595" style="fill:rgb(27,79,8);stroke:black;stroke-width:1" />
<ellipse cx="471.054" cy="677.376" rx="17.2658" ry="10.3595" style="fill:rgb(27,79,8);stroke:black;stroke-width:1" />
<polygon points=" 358.285,736.93 368.242,743.568 378.198,736.93 378.198,637.363 358.285,637.363 " style="fill:rgb(91,60,17)"/>
<polygon points=" 338.371,653.549 335.882,653.549 360.774,664.612 368.242,664.612 " style="fill:rgb(91,60,17)"/>
<ellipse cx="368.242" cy="637.363" rx="33.1891" ry="19.9135" style="fill:rgb(27,79,8);stroke:black;stroke-width:1" />
<ellipse cx="337.127" cy="653.549" rx="16.5946" ry="9.95673" style="fill:rgb(27,79,8);stroke:black;stroke-width:1" />
<polygon points=" 303.403,738.682 313.692,745.542 323.982,738.682 323.982,635.788 303.403,635.788 " style="fill:rgb(91,60,17)"/>
<polygon points=" 344.561,663.085 347.133,663.085 321.409,674.517 313.692,674.517 " style="fill:rgb(91,60,17)"/>
<polygon points=" 282.824,648.668 280.252,648.668 305.975,660.101 313.692,660.101 " style="fill:rgb(91,60,17)"/>
<ellipse cx="313.692" cy="635.788" rx="34.298" ry="20.5788" style="fill:rgb(27,79,8);stroke:black;stroke-width:1" />
<ellipse cx="345.847" cy="663.085" rx="17.149" ry="10.2894" style="fill:rgb(27,79,8);stroke:black;stroke-width:1" />
<ellipse cx="281.538" cy="648.668" rx="17.149" ry="10.2894" style="fill:rgb(27,79,8);stroke:black;stroke-width:1" />
<polygon points=" 88.7566,743.561 99.2804,750.577 109.804,743.561 109.804,638.324 88.7566,638.324 " style="fill:rgb(91,60,17)"/>
<polygon points=" 130.852,700.98 133.483,700.98 107.173,712.673 99.2804,712.673 " style="fill:rgb(91,60,17)"/>
<polygon points=" 67.7091,692.978 65.0782,692.978 91.3875,704.671 99.2804,704.671 " style="fill:rgb(91,60,17)"/>
<ellipse cx="99.2804" cy="638.324" rx="35.0792" ry="21.0475" style="fill:rgb(27,79,8);stroke:black;stroke-width:1" />
<ellipse cx="132.167" cy="700.98" rx="17.5396" ry="10.5238" style="fill:rgb(27,79,8);stroke:black;stroke-width:1" />
<ellipse cx="66.3936" cy="692.978" rx="17.5396" ry="10.5238" style="fill:rgb(27,79,8);stroke:black;stroke-width:1" />
<polygon points=" 662.902,745.373 673.66,752.545 684.418,745.373 684.418,637.794 662.902,637.794 " style="fill:rgb(91,60,17)"/>
<polygon points=" 705.934,681.068 708.623,681.068 681.728,693.021 673.66,693.021 " style="fill:rgb(91,60,17)"/>
<ellipse cx="673.66" cy="637.794" rx="35.8599" ry="21.5159" style="fill:rgb(27,79,8);stroke:black;stroke-width:1" />
<ellipse cx="707.278" cy="681.068" rx="17.9299" ry="10.758" style="fill:rgb(27,79,8);stroke:black;stroke-width:1" />
<polygon points=" 147.58,747.992 157.632,754.693 167.685,747.992 167.685,647.466 147.58,647.466 " style="fill:rgb(91,60,17)"/>
<polygon points=" 187.79,686.141 190.303,686.141 165.172,697.311 157.632,697.311 " style="fill:rgb(91,60,17)"/>
<polygon points=" 127.475,689.247 124.961,689.247 150.093,700.417 157.632,700.417 " style="fill:rgb(91,60,17)"/>
<ellipse cx="157.632" cy="647.466" rx="33.5085" ry="20.1051" style="fill:rgb(27,79,8);stroke:black;stroke-width:1" />
<ellipse cx="189.047" cy="686.141" rx="16.7543" ry="10.0526" style="fill:rgb(27,79,8);stroke:black;stroke-width:1" />
<ellipse cx="126.218" cy="689.247" rx="16.7543" ry="10.0526" style="fill:rgb(27,79,8);stroke:black;stroke-width:1" />
<polygon points=" 624.497,751.398 635.059,758.44 645.621,751.398 645.621,645.781 624.497,645.781 " style="fill:rgb(91,60,17)"/>
<polygon points=" 666.744,704.924 669.384,704.924 642.98,716.659 635.059,716.659 " style="fill:rgb(91,60,17)"/>
<polygon points=" 603.374,690.336 600.733,690.336 627.138,702.072 635.059,702.072 " style="fill:rgb(91,60,17)"/>
<ellipse cx="635.059" cy="645.781" rx="35.2057" ry="21.1234" style="fill:rgb(27,79,8);stroke:black;stroke-width:1" />
<ellipse cx="668.064" cy="704.924" rx="17.6028" ry="10.5617" style="fill:rgb(27,79,8);stroke:black;stroke-width:1" />
<ellipse cx="602.054" cy="690.336" rx="17.6028" ry="10.5617" style="fill:rgb(27,79,8);stroke:black;stroke-width:1" /></svg>