<?xml version="1.0" encoding="utf-8"?>
<svg xmlns="http://www.w3.org/2000/svg" version="1.1" width="1000" height="800">
<ellipse cx="842.342" cy="1.87134" rx="6.25" ry="6.25" fill="rgb(169,234,254)" />
<ellipse cx="854.842" cy="6.03801" rx="16.6667" ry="8.33333" fill="rgb(169,234,254)" />
<ellipse cx="854.842" cy="-2.29533" rx="16.6667" ry="8.33333" fill="rgb(169,234,254)" />
<ellipse cx="829.842" cy="6.03801" rx="16.6667" ry="8.33333" fill="rgb(169,234,254)" />
<ellipse cx="622.846" cy="2.71433" rx="6.25" ry="6.25" fill="rgb(169,234,254)" />
<ellipse cx="635.346" cy="6.881" rx="16.6667" ry="8.33333" fill="rgb(169,234,254)" />
<ellipse cx="635.346" cy="-1.45234" rx="16.6667" ry="8.33333" fill="rgb(169,234,254)" />
<ellipse cx="610.346" cy="-1.45234" rx="16.6667" ry="8.33333" fill="rgb(169,234,254)" />
<ellipse cx="622.846" cy="-2.28567" rx="16.6667" ry="8.33333" fill="rgb(169,234,254)" />
<ellipse cx="451.159" cy="11.1429" rx="6.25" ry="6.25" fill="rgb(169,234,254)" />
<ellipse cx="463.659" cy="15.3096" rx="16.6667" ry="8.33333" fill="rgb(169,234,254)" />
<ellipse cx="463.659" cy="6.97627" rx="16.6667" ry="8.33333" fill="rgb(169,234,254)" />
<ellipse cx="438.659" cy="15.3096" rx="16.6667" ry="8.33333" fill="rgb(169,234,254)" />
<ellipse cx="438.659" cy="6.97627" rx="16.6667" ry="8.33333" fill="rgb(169,234,254)" />
<ellipse cx="451.159" cy="16.1429" rx="16.6667" ry="8.33333" fill="rgb(169,234,254)" />
<ellipse cx="451.159" cy="6.14294" rx="16.6667" ry="8.33333" fill="rgb(169,234,254)" />
<ellipse cx="984.042" cy="19.452" rx="6.25" ry="6.25" fill="rgb(169,234,254)" />
<ellipse cx="996.542" cy="23.6187" rx="16.6667" ry="8.33333" fill="rgb(169,234,254)" />
<ellipse cx="996.542" cy="15.2853" rx="16.6667" ry="8.33333" fill="rgb(169,234,254)" />
<ellipse cx="971.542" cy="23.6187" rx="16.6667" ry="8.33333" fill="rgb(169,234,254)" />
<ellipse cx="971.542" cy="15.2853" rx="16.6667" ry="8.33333" fill="rgb(169,234,254)" />
<ellipse cx="984.042" cy="14.452" rx="16.6667" ry="8.33333" fill="rgb(169,234,254)" />
<ellipse cx="969.809" cy="19.8561" rx="6.25" ry="6.25" fill="rgb(169,234,254)" />
<ellipse cx="982.309" cy="24.0227" rx="16.6667" ry="8.33333" fill="rgb(169,234,254)" />
<ellipse cx="982.309" cy="15.6894" rx="16.6667" ry="8.33333" fill="rgb(169,234,254)" />
<ellipse cx="957.309" cy="24.0227" rx="16.6667" ry="8.33333" fill="rgb(169,234,254)" />
<ellipse cx="92.3739" cy="20.5727" rx="6.25" ry="6.25" fill="rgb(169,234,254)" />
<ellipse cx="104.874" cy="24.7393" rx="16.6667" ry="8.33333" fill="rgb(169,234,254)" />
<ellipse cx="104.874" cy="16.406" rx="16.6667" ry="8.33333" fill="rgb(169,234,254)" />
<ellipse cx="92.3739" cy="25.5727" rx="16.6667" ry="8.33333" fill="rgb(169,234,254)" />
<ellipse cx="92.3739" cy="15.5727" rx="16.6667" ry="8.33333" fill="rgb(169,234,254)" />
<ellipse cx="324.141" cy="27.0436" rx="6.25" ry="6.25" fill="rgb(169,234,254)" />
<ellipse cx="336.641" cy="31.2103" rx="16.6667" ry="8.33333" fill="rgb(169,234,254)" />
<ellipse cx="336.641" cy="22.877" rx="16.6667" ry="8.33333" fill="rgb(169,234,254)" />
<ellipse cx="324.141" cy="32.0436" rx="16.6667" ry="8.33333" fill="rgb(169,234,254)" />
<ellipse cx="870.087" cy="28.0702" rx="6.25" ry="6.25" fill="rgb(169,234,254)" />
<ellipse cx="882.587" cy="32.2368" rx="16.6667" ry="8.33333" fill="rgb(169,234,254)" />
<ellipse cx="882.587" cy="23.9035" rx="16.6667" ry="8.33333" fill="rgb(169,234,254)" />
<ellipse cx="857.587" cy="32.2368" rx="16.6667" ry="8.33333" fill="rgb(169,234,254)" />
<ellipse cx="857.587" cy="23.9035" rx="16.6667" ry="8.33333" fill="rgb(169,234,254)" />
<ellipse cx="870.087" cy="33.0702" rx="16.6667" ry="8.33333" fill="rgb(169,234,254)" />
<ellipse cx="569.618" cy="29.2884" rx="6.25" ry="6.25" fill="rgb(169,234,254)" />
<ellipse cx="582.118" cy="33.455" rx="16.6667" ry="8.33333" fill="rgb(169,234,254)" />
<ellipse cx="582.118" cy="25.1217" rx="16.6667" ry="8.33333" fill="rgb(169,234,254)" />
<ellipse cx="569.618" cy="24.2884" rx="16.6667" ry="8.33333" fill="rgb(169,234,254)" />
<ellipse cx="358.152" cy="34.1819" rx="6.25" ry="6.25" fill="rgb(169,234,254)" />
<ellipse cx="370.652" cy="38.3486" rx="16.6667" ry="8.33333" fill="rgb(169,234,254)" />
<ellipse cx="370.652" cy="30.0153" rx="16.6667" ry="8.33333" fill="rgb(169,234,254)" />
<ellipse cx="345.652" cy="38.3486" rx="16.6667" ry="8.33333" fill="rgb(169,234,254)" />
<ellipse cx="358.152" cy="29.1819" rx="16.6667" ry="8.33333" fill="rgb(169,234,254)" />
<ellipse cx="736.918" cy="37.2665" rx="6.25" ry="6.25" fill="rgb(169,234,254)" />
<ellipse cx="749.418" cy="41.4331" rx="16.6667" ry="8.33333" fill="rgb(169,234,254)" />
<ellipse cx="749.418" cy="33.0998" rx="16.6667" ry="8.33333" fill="rgb(169,234,254)" />
<ellipse cx="724.418" cy="41.4331" rx="16.6667" ry="8.33333" fill="rgb(169,234,254)" />
<ellipse cx="386.489" cy="44.4643" rx="6.25" ry="6.25" fill="rgb(169,234,254)" />
<ellipse cx="398.989" cy="48.6309" rx="16.6667" ry="8.33333" fill="rgb(169,234,254)" />
<ellipse cx="398.989" cy="40.2976" rx="16.6667" ry="8.33333" fill="rgb(169,234,254)" />
<ellipse cx="373.989" cy="48.6309" rx="16.6667" ry="8.33333" fill="rgb(169,234,254)" />
<ellipse cx="386.489" cy="49.4643" rx="16.6667" ry="8.33333" fill="rgb(169,234,254)" />
<ellipse cx="386.489" cy="39.4643" rx="16.6667" ry="8.33333" fill="rgb(169,234,254)" />
<ellipse cx="433.288" cy="57.6953" rx="6.25" ry="6.25" fill="rgb(169,234,254)" />
<ellipse cx="445.788" cy="61.862" rx="16.6667" ry="8.33333" fill="rgb(169,234,254)" />
<ellipse cx="445.788" cy="53.5286" rx="16.6667" ry="8.33333" fill="rgb(169,234,254)" />
<ellipse cx="420.788" cy="61.862" rx="16.6667" ry="8.33333" fill="rgb(169,234,254)" />
<ellipse cx="433.288" cy="52.6953" rx="16.6667" ry="8.33333" fill="rgb(169,234,254)" />
<ellipse cx="56.713" cy="59.5069" rx="6.25" ry="6.25" fill="rgb(169,234,254)" />
<ellipse cx="69.213" cy="63.6736" rx="16.6667" ry="8.33333" fill="rgb(169,234,254)" />
<ellipse cx="69.213" cy="55.3403" rx="16.6667" ry="8.33333" fill="rgb(169,234,254)" />
<ellipse cx="44.213" cy="63.6736" rx="16.6667" ry="8.33333" fill="rgb(169,234,254)" />
<ellipse cx="44.213" cy="55.3403" rx="16.6667" ry="8.33333" fill="rgb(169,234,254)" />
<ellipse cx="56.713" cy="54.5069" rx="16.6667" ry="8.33333" fill="rgb(169,234,254)" />
<ellipse cx="965.416" cy="62.6437" rx="6.25" ry="6.25" fill="rgb(169,234,254)" />
<ellipse cx="977.916" cy="66.8103" rx="16.6667" ry="8.33333" fill="rgb(169,234,254)" />
<ellipse cx="977.916" cy="58.477" rx="16.6667" ry="8.33333" fill="rgb(169,234,254)" />
<ellipse cx="952.916" cy="66.8103" rx="16.6667" ry="8.33333" fill="rgb(169,234,254)" />
<ellipse cx="952.916" cy="58.477" rx="16.6667" ry="8.33333" fill="rgb(169,234,254)" />
<ellipse cx="221.263" cy="64.1994" rx="6.25" ry="6.25" fill="rgb(169,234,254)" />
<ellipse cx="233.763" cy="68.3661" rx="16.6667" ry="8.33333" fill="rgb(169,234,254)" />
<ellipse cx="233.763" cy="60.0328" rx="16.6667" ry="8.33333" fill="rgb(169,234,254)" />
<ellipse cx="221.263" cy="69.1994" rx="16.6667" ry="8.33333" fill="rgb(169,234,254)" />
<ellipse cx="674.752" cy="67.6015" rx="6.25" ry="6.25" fill="rgb(169,234,254)" />
<ellipse cx="687.252" cy="71.7682" rx="16.6667" ry="8.33333" fill="rgb(169,234,254)" />
<ellipse cx="687.252" cy="63.4349" rx="16.6667" ry="8.33333" fill="rgb(169,234,254)" />
<ellipse cx="662.252" cy="71.7682" rx="16.6667" ry="8.33333" fill="rgb(169,234,254)" />
<ellipse cx="662.252" cy="63.4349" rx="16.6667" ry="8.33333" fill="rgb(169,234,254)" />
<ellipse cx="674.752" cy="62.6015" rx="16.6667" ry="8.33333" fill="rgb(169,234,254)" />
<ellipse cx="469.249" cy="70.4623" rx="6.25" ry="6.25" fill="rgb(169,234,254)" />
<ellipse cx="481.749" cy="74.629" rx="16.6667" ry="8.33333" fill="rgb(169,234,254)" />
<ellipse cx="481.749" cy="66.2957" rx="16.6667" ry="8.33333" fill="rgb(169,234,254)" />
<ellipse cx="456.749" cy="66.2957" rx="16.6667" ry="8.33333" fill="rgb(169,234,254)" />
<ellipse cx="469.249" cy="75.4623" rx="16.6667" ry="8.33333" fill="rgb(169,234,254)" />
<ellipse cx="749.17" cy="76.6924" rx="6.25" ry="6.25" fill="rgb(169,234,254)" />
<ellipse cx="761.67" cy="80.8591" rx="16.6667" ry="8.33333" fill="rgb(169,234,254)" />
<ellipse cx="761.67" cy="72.5258" rx="16.6667" ry="8.33333" fill="rgb(169,234,254)" />
<ellipse cx="749.17" cy="81.6924" rx="16.6667" ry="8.33333" fill="rgb(169,234,254)" />
<ellipse cx="836.079" cy="78.557" rx="6.25" ry="6.25" fill="rgb(169,234,254)" />
<ellipse cx="848.579" cy="82.7236" rx="16.6667" ry="8.33333" fill="rgb(169,234,254)" />
<ellipse cx="848.579" cy="74.3903" rx="16.6667" ry="8.33333" fill="rgb(169,234,254)" />
<ellipse cx="836.079" cy="83.557" rx="16.6667" ry="8.33333" fill="rgb(169,234,254)" />
<ellipse cx="618.809" cy="78.9739" rx="6.25" ry="6.25" fill="rgb(169,234,254)" />
<ellipse cx="631.309" cy="83.1405" rx="16.6667" ry="8.33333" fill="rgb(169,234,254)" />
<ellipse cx="631.309" cy="74.8072" rx="16.6667" ry="8.33333" fill="rgb(169,234,254)" />
<ellipse cx="606.309" cy="83.1405" rx="16.6667" ry="8.33333" fill="rgb(169,234,254)" />
<ellipse cx="606.309" cy="74.8072" rx="16.6667" ry="8.33333" fill="rgb(169,234,254)" />
<ellipse cx="618.809" cy="83.9739" rx="16.6667" ry="8.33333" fill="rgb(169,234,254)" />
<ellipse cx="896.038" cy="79.2197" rx="6.25" ry="6.25" fill="rgb(169,234,254)" />
<ellipse cx="908.538" cy="83.3863" rx="16.6667" ry="8.33333" fill="rgb(169,234,254)" />
<ellipse cx="908.538" cy="75.053" rx="16.6667" ry="8.33333" fill="rgb(169,234,254)" />
<ellipse cx="896.038" cy="84.2197" rx="16.6667" ry="8.33333" fill="rgb(169,234,254)" />
<ellipse cx="675.439" cy="82.364" rx="6.25" ry="6.25" fill="rgb(169,234,254)" />
<ellipse cx="687.939" cy="86.5307" rx="16.6667" ry="8.33333" fill="rgb(169,234,254)" />
<ellipse cx="687.939" cy="78.1974" rx="16.6667" ry="8.33333" fill="rgb(169,234,254)" />
<ellipse cx="675.439" cy="87.364" rx="16.6667" ry="8.33333" fill="rgb(169,234,254)" />
<ellipse cx="675.439" cy="77.364" rx="16.6667" ry="8.33333" fill="rgb(169,234,254)" />
<ellipse cx="474.698" cy="82.8737" rx="6.25" ry="6.25" fill="rgb(169,234,254)" />
<ellipse cx="487.198" cy="87.0404" rx="16.6667" ry="8.33333" fill="rgb(169,234,254)" />
<ellipse cx="487.198" cy="78.7071" rx="16.6667" ry="8.33333" fill="rgb(169,234,254)" />
<ellipse cx="474.698" cy="87.8737" rx="16.6667" ry="8.33333" fill="rgb(169,234,254)" />
<ellipse cx="979.587" cy="88.3422" rx="6.25" ry="6.25" fill="rgb(169,234,254)" />
<ellipse cx="992.087" cy="92.5089" rx="16.6667" ry="8.33333" fill="rgb(169,234,254)" />
<ellipse cx="992.087" cy="84.1755" rx="16.6667" ry="8.33333" fill="rgb(169,234,254)" />
<ellipse cx="979.587" cy="93.3422" rx="16.6667" ry="8.33333" fill="rgb(169,234,254)" />
<ellipse cx="979.587" cy="83.3422" rx="16.6667" ry="8.33333" fill="rgb(169,234,254)" />
<ellipse cx="613.063" cy="89.99" rx="6.25" ry="6.25" fill="rgb(169,234,254)" />
<ellipse cx="625.563" cy="94.1567" rx="16.6667" ry="8.33333" fill="rgb(169,234,254)" />
<ellipse cx="625.563" cy="85.8233" rx="16.6667" ry="8.33333" fill="rgb(169,234,254)" />
<ellipse cx="600.563" cy="94.1567" rx="16.6667" ry="8.33333" fill="rgb(169,234,254)" />
<ellipse cx="613.063" cy="94.99" rx="16.6667" ry="8.33333" fill="rgb(169,234,254)" />
<ellipse cx="613.063" cy="84.99" rx="16.6667" ry="8.33333" fill="rgb(169,234,254)" />
<ellipse cx="716.075" cy="94.0264" rx="6.25" ry="6.25" fill="rgb(169,234,254)" />
<ellipse cx="728.575" cy="98.1931" rx="16.6667" ry="8.33333" fill="rgb(169,234,254)" />
<ellipse cx="728.575" cy="89.8598" rx="16.6667" ry="8.33333" fill="rgb(169,234,254)" />
<ellipse cx="703.575" cy="98.1931" rx="16.6667" ry="8.33333" fill="rgb(169,234,254)" />
<ellipse cx="703.575" cy="89.8598" rx="16.6667" ry="8.33333" fill="rgb(169,234,254)" />
<ellipse cx="716.075" cy="99.0264" rx="16.6667" ry="8.33333" fill="rgb(169,234,254)" />
<ellipse cx="716.075" cy="89.0264" rx="16.6667" ry="8.33333" fill="rgb(169,234,254)" />
<ellipse cx="812.169" cy="95.533" rx="6.25" ry="6.25" fill="rgb(169,234,254)" />
<ellipse cx="824.669" cy="99.6997" rx="16.6667" ry="8.33333" fill="rgb(169,234,254)" />
<ellipse cx="824.669" cy="91.3664" rx="16.6667" ry="8.33333" fill="rgb(169,234,254)" />
<ellipse cx="799.669" cy="99.6997" rx="16.6667" ry="8.33333" fill="rgb(169,234,254)" />
<ellipse cx="799.669" cy="91.3664" rx="16.6667" ry="8.33333" fill="rgb(169,234,254)" />
<ellipse cx="812.169" cy="100.533" rx="16.6667" ry="8.33333" fill="rgb(169,234,254)" />
<ellipse cx="688.661" cy="96.1787" rx="6.25" ry="6.25" fill="rgb(169,234,254)" />
<ellipse cx="701.161" cy="100.345" rx="16.6667" ry="8.33333" fill="rgb(169,234,254)" />
<ellipse cx="701.161" cy="92.012" rx="16.6667" ry="8.33333" fill="rgb(169,234,254)" />
<ellipse cx="676.161" cy="100.345" rx="16.6667" ry="8.33333" fill="rgb(169,234,254)" />
<ellipse cx="447.926" cy="107.405" rx="6.25" ry="6.25" fill="rgb(169,234,254)" />
<ellipse cx="460.426" cy="111.571" rx="16.6667" ry="8.33333" fill="rgb(169,234,254)" />
<ellipse cx="460.426" cy="103.238" rx="16.6667" ry="8.33333" fill="rgb(169,234,254)" />
<ellipse cx="435.426" cy="111.571" rx="16.6667" ry="8.33333" fill="rgb(169,234,254)" />
<ellipse cx="435.426" cy="103.238" rx="16.6667" ry="8.33333" fill="rgb(169,234,254)" />
<ellipse cx="447.926" cy="112.405" rx="16.6667" ry="8.33333" fill="rgb(169,234,254)" />
<ellipse cx="33.6251" cy="110.363" rx="6.25" ry="6.25" fill="rgb(169,234,254)" />
<ellipse cx="46.1251" cy="114.53" rx="16.6667" ry="8.33333" fill="rgb(169,234,254)" />
<ellipse cx="46.1251" cy="106.197" rx="16.6667" ry="8.33333" fill="rgb(169,234,254)" />
<ellipse cx="33.6251" cy="115.363" rx="16.6667" ry="8.33333" fill="rgb(169,234,254)" />
<ellipse cx="164.94" cy="110.564" rx="6.25" ry="6.25" fill="rgb(169,234,254)" />
<ellipse cx="177.44" cy="114.731" rx="16.6667" ry="8.33333" fill="rgb(169,234,254)" />
<ellipse cx="177.44" cy="106.398" rx="16.6667" ry="8.33333" fill="rgb(169,234,254)" />
<ellipse cx="152.44" cy="114.731" rx="16.6667" ry="8.33333" fill="rgb(169,234,254)" />
<ellipse cx="164.94" cy="115.564" rx="16.6667" ry="8.33333" fill="rgb(169,234,254)" />
<ellipse cx="844.266" cy="118.569" rx="6.25" ry="6.25" fill="rgb(169,234,254)" />
<ellipse cx="856.766" cy="122.736" rx="16.6667" ry="8.33333" fill="rgb(169,234,254)" />
<ellipse cx="856.766" cy="114.402" rx="16.6667" ry="8.33333" fill="rgb(169,234,254)" />
<ellipse cx="831.766" cy="114.402" rx="16.6667" ry="8.33333" fill="rgb(169,234,254)" />
<ellipse cx="844.266" cy="123.569" rx="16.6667" ry="8.33333" fill="rgb(169,234,254)" />
<ellipse cx="325.047" cy="121.566" rx="6.25" ry="6.25" fill="rgb(169,234,254)" />
<ellipse cx="337.547" cy="125.733" rx="16.6667" ry="8.33333" fill="rgb(169,234,254)" />
<ellipse cx="337.547" cy="117.399" rx="16.6667" ry="8.33333" fill="rgb(169,234,254)" />
<ellipse cx="312.547" cy="117.399" rx="16.6667" ry="8.33333" fill="rgb(169,234,254)" />
<ellipse cx="325.047" cy="126.566" rx="16.6667" ry="8.33333" fill="rgb(169,234,254)" />
<ellipse cx="325.047" cy="116.566" rx="16.6667" ry="8.33333" fill="rgb(169,234,254)" />
<ellipse cx="958.949" cy="126.855" rx="6.25" ry="6.25" fill="rgb(169,234,254)" />
<ellipse cx="971.449" cy="131.021" rx="16.6667" ry="8.33333" fill="rgb(169,234,254)" />
<ellipse cx="971.449" cy="122.688" rx="16.6667" ry="8.33333" fill="rgb(169,234,254)" />
<ellipse cx="946.449" cy="131.021" rx="16.6667" ry="8.33333" fill="rgb(169,234,254)" />
<ellipse cx="995.3" cy="127.012" rx="6.25" ry="6.25" fill="rgb(169,234,254)" />
<ellipse cx="1007.8" cy="131.178" rx="16.6667" ry="8.33333" fill="rgb(169,234,254)" />
<ellipse cx="1007.8" cy="122.845" rx="16.6667" ry="8.33333" fill="rgb(169,234,254)" />
<ellipse cx="982.8" cy="131.178" rx="16.6667" ry="8.33333" fill="rgb(169,234,254)" />
<ellipse cx="982.8" cy="122.845" rx="16.6667" ry="8.33333" fill="rgb(169,234,254)" />
<ellipse cx="368.242" cy="129.634" rx="6.25" ry="6.25" fill="rgb(169,234,254)" />
<ellipse cx="380.742" cy="133.801" rx="16.6667" ry="8.33333" fill="rgb(169,234,254)" />
<ellipse cx="380.742" cy="125.468" rx="16.6667" ry="8.33333" fill="rgb(169,234,254)" />
<ellipse cx="355.742" cy="125.468" rx="16.6667" ry="8.33333" fill="rgb(169,234,254)" />
<ellipse cx="368.242" cy="134.634" rx="16.6667" ry="8.33333" fill="rgb(169,234,254)" />
<ellipse cx="368.242" cy="124.634" rx="16.6667" ry="8.33333" fill="rgb(169,234,254)" />
<ellipse cx="533.206" cy="131.934" rx="6.25" ry="6.25" fill="rgb(169,234,254)" />
<ellipse cx="545.706" cy="136.1" rx="16.6667" ry="8.33333" fill="rgb(169,234,254)" />
<ellipse cx="545.706" cy="127.767" rx="16.6667" ry="8.33333" fill="rgb(169,234,254)" />
<ellipse cx="533.206" cy="126.934" rx="16.6667" ry="8.33333" fill="rgb(169,234,254)" />
<ellipse cx="582.02" cy="144.127" rx="6.25" ry="6.25" fill="rgb(169,234,254)" />
<ellipse cx="594.52" cy="148.293" rx="16.6667" ry="8.33333" fill="rgb(169,234,254)" />
<ellipse cx="594.52" cy="139.96" rx="16.6667" ry="8.33333" fill="rgb(169,234,254)" />
<ellipse cx="569.52" cy="139.96" rx="16.6667" ry="8.33333" fill="rgb(169,234,254)" />
<ellipse cx="582.02" cy="149.127" rx="16.6667" ry="8.33333" fill="rgb(169,234,254)" />
<ellipse cx="105.908" cy="151.723" rx="6.25" ry="6.25" fill="rgb(169,234,254)" />
<ellipse cx="118.408" cy="155.89" rx="16.6667" ry="8.33333" fill="rgb(169,234,254)" />
<ellipse cx="118.408" cy="147.556" rx="16.6667" ry="8.33333" fill="rgb(169,234,254)" />
<ellipse cx="93.4076" cy="155.89" rx="16.6667" ry="8.33333" fill="rgb(169,234,254)" />
<ellipse cx="93.4076" cy="147.556" rx="16.6667" ry="8.33333" fill="rgb(169,234,254)" />
<ellipse cx="105.908" cy="156.723" rx="16.6667" ry="8.33333" fill="rgb(169,234,254)" />
<ellipse cx="949.571" cy="155.669" rx="6.25" ry="6.25" fill="rgb(169,234,254)" />
<ellipse cx="962.071" cy="159.836" rx="16.6667" ry="8.33333" fill="rgb(169,234,254)" />
<ellipse cx="962.071" cy="151.502" rx="16.6667" ry="8.33333" fill="rgb(169,234,254)" />
<ellipse cx="937.071" cy="151.502" rx="16.6667" ry="8.33333" fill="rgb(169,234,254)" />
<ellipse cx="949.571" cy="150.669" rx="16.6667" ry="8.33333" fill="rgb(169,234,254)" />
<ellipse cx="520.477" cy="160.182" rx="6.25" ry="6.25" fill="rgb(169,234,254)" />
<ellipse cx="532.977" cy="164.349" rx="16.6667" ry="8.33333" fill="rgb(169,234,254)" />
<ellipse cx="532.977" cy="156.015" rx="16.6667" ry="8.33333" fill="rgb(169,234,254)" />
<ellipse cx="507.977" cy="156.015" rx="16.6667" ry="8.33333" fill="rgb(169,234,254)" />
<ellipse cx="520.477" cy="155.182" rx="16.6667" ry="8.33333" fill="rgb(169,234,254)" />
<ellipse cx="264.73" cy="168.277" rx="6.25" ry="6.25" fill="rgb(169,234,254)" />
<ellipse cx="277.23" cy="172.444" rx="16.6667" ry="8.33333" fill="rgb(169,234,254)" />
<ellipse cx="277.23" cy="164.111" rx="16.6667" ry="8.33333" fill="rgb(169,234,254)" />
<ellipse cx="264.73" cy="173.277" rx="16.6667" ry="8.33333" fill="rgb(169,234,254)" />
<ellipse cx="623.564" cy="169.45" rx="6.25" ry="6.25" fill="rgb(169,234,254)" />
<ellipse cx="636.064" cy="173.617" rx="16.6667" ry="8.33333" fill="rgb(169,234,254)" />
<ellipse cx="636.064" cy="165.284" rx="16.6667" ry="8.33333" fill="rgb(169,234,254)" />
<ellipse cx="623.564" cy="174.45" rx="16.6667" ry="8.33333" fill="rgb(169,234,254)" />
<ellipse cx="508.969" cy="173.021" rx="6.25" ry="6.25" fill="rgb(169,234,254)" />
<ellipse cx="521.469" cy="177.187" rx="16.6667" ry="8.33333" fill="rgb(169,234,254)" />
<ellipse cx="521.469" cy="168.854" rx="16.6667" ry="8.33333" fill="rgb(169,234,254)" />
<ellipse cx="496.469" cy="177.187" rx="16.6667" ry="8.33333" fill="rgb(169,234,254)" />
<ellipse cx="508.969" cy="178.021" rx="16.6667" ry="8.33333" fill="rgb(169,234,254)" />
<ellipse cx="508.969" cy="168.021" rx="16.6667" ry="8.33333" fill="rgb(169,234,254)" />
<ellipse cx="680.056" cy="178.311" rx="6.25" ry="6.25" fill="rgb(169,234,254)" />
<ellipse cx="692.556" cy="182.478" rx="16.6667" ry="8.33333" fill="rgb(169,234,254)" />
<ellipse cx="692.556" cy="174.144" rx="16.6667" ry="8.33333" fill="rgb(169,234,254)" />
<ellipse cx="667.556" cy="174.144" rx="16.6667" ry="8.33333" fill="rgb(169,234,254)" />
<ellipse cx="680.056" cy="173.311" rx="16.6667" ry="8.33333" fill="rgb(169,234,254)" />
<ellipse cx="216.822" cy="183.647" rx="6.25" ry="6.25" fill="rgb(169,234,254)" />
<ellipse cx="229.322" cy="187.814" rx="16.6667" ry="8.33333" fill="rgb(169,234,254)" />
<ellipse cx="229.322" cy="179.48" rx="16.6667" ry="8.33333" fill="rgb(169,234,254)" />
<ellipse cx="204.322" cy="187.814" rx="16.6667" ry="8.33333" fill="rgb(169,234,254)" />
<ellipse cx="216.822" cy="188.647" rx="16.6667" ry="8.33333" fill="rgb(169,234,254)" />
<ellipse cx="83.1125" cy="184.232" rx="6.25" ry="6.25" fill="rgb(169,234,254)" />
<ellipse cx="95.6125" cy="188.398" rx="16.6667" ry="8.33333" fill="rgb(169,234,254)" />
<ellipse cx="95.6125" cy="180.065" rx="16.6667" ry="8.33333" fill="rgb(169,234,254)" />
<ellipse cx="70.6125" cy="188.398" rx="16.6667" ry="8.33333" fill="rgb(169,234,254)" />
<ellipse cx="70.6125" cy="180.065" rx="16.6667" ry="8.33333" fill="rgb(169,234,254)" />
<ellipse cx="83.1125" cy="179.232" rx="16.6667" ry="8.33333" fill="rgb(169,234,254)" />
<ellipse cx="878.193" cy="194.389" rx="6.25" ry="6.25" fill="rgb(169,234,254)" />
<ellipse cx="890.693" cy="198.556" rx="16.6667" ry="8.33333" fill="rgb(169,234,254)" />
<ellipse cx="890.693" cy="190.222" rx="16.6667" ry="8.33333" fill="rgb(169,234,254)" />
<ellipse cx="865.693" cy="198.556" rx="16.6667" ry="8.33333" fill="rgb(169,234,254)" />
<ellipse cx="865.693" cy="190.222" rx="16.6667" ry="8.33333" fill="rgb(169,234,254)" />
<ellipse cx="878.193" cy="199.389" rx="16.6667" ry="8.33333" fill="rgb(169,234,254)" />
<ellipse cx="116.202" cy="195.714" rx="6.25" ry="6.25" fill="rgb(169,234,254)" />
<ellipse cx="128.702" cy="199.881" rx="16.6667" ry="8.33333" fill="rgb(169,234,254)" />
<ellipse cx="128.702" cy="191.548" rx="16.6667" ry="8.33333" fill="rgb(169,234,254)" />
<ellipse cx="103.702" cy="191.548" rx="16.6667" ry="8.33333" fill="rgb(169,234,254)" />
<ellipse cx="116.202" cy="200.714" rx="16.6667" ry="8.33333" fill="rgb(169,234,254)" />
<ellipse cx="116.202" cy="190.714" rx="16.6667" ry="8.33333" fill="rgb(169,234,254)" />
<polygon points=" 690.789,414.06 693.153,415.636 695.517,414.06 695.517,390.421 690.789,390.421 " fill=" rgb(91,60,17)" />
<polygon points=" 700.245,396.692 700.836,396.692 694.926,399.319 693.153,399.319 " fill=" rgb(91,60,17)" />
<polygon points=" 686.061,393.38 685.47,393.38 691.38,396.006 693.153,396.006 " fill=" rgb(91,60,17)" />
<ellipse cx="693.153" cy="390.421" rx="7.87992" ry="4.72795" fill="rgb(27,79,8)" />
<ellipse cx="700.54" cy="396.692" rx="3.93996" ry="2.36398" fill="rgb(27,79,8)" />
<ellipse cx="685.765" cy="393.38" rx="3.93996" ry="2.36398" fill="rgb(27,79,8)" />
<polygon points=" 142.823,409.921 144.286,410.896 145.749,409.921 145.749,395.293 142.823,395.293 " fill=" rgb(91,60,17)" />
<polygon points=" 148.675,401.177 149.04,401.177 145.383,402.802 144.286,402.802 " fill=" rgb(91,60,17)" />
<ellipse cx="144.286" cy="395.293" rx="4.87609" ry="2.92565" fill="rgb(27,79,8)" />
<ellipse cx="148.857" cy="401.177" rx="2.43804" ry="1.46283" fill="rgb(27,79,8)" />
<polygon points=" 131.134,414.561 133.465,416.115 135.796,414.561 135.796,391.251 131.134,391.251 " fill=" rgb(91,60,17)" />
<polygon points=" 140.458,403.861 141.041,403.861 135.213,406.451 133.465,406.451 " fill=" rgb(91,60,17)" />
<polygon points=" 126.472,398.53 125.889,398.53 131.717,401.12 133.465,401.12 " fill=" rgb(91,60,17)" />
<ellipse cx="133.465" cy="391.251" rx="7.77" ry="4.662" fill="rgb(27,79,8)" />
<ellipse cx="140.75" cy="403.861" rx="3.885" ry="2.331" fill="rgb(27,79,8)" />
<ellipse cx="126.181" cy="398.53" rx="3.885" ry="2.331" fill="rgb(27,79,8)" />
<polygon points=" 302.605,414.069 304.582,415.387 306.559,414.069 306.559,394.3 302.605,394.3 " fill=" rgb(91,60,17)" />
<polygon points=" 310.513,397.532 311.007,397.532 306.065,399.729 304.582,399.729 " fill=" rgb(91,60,17)" />
<polygon points=" 298.651,398.319 298.157,398.319 303.099,400.516 304.582,400.516 " fill=" rgb(91,60,17)" />
<ellipse cx="304.582" cy="394.3" rx="6.58994" ry="3.95396" fill="rgb(27,79,8)" />
<ellipse cx="310.76" cy="397.532" rx="3.29497" ry="1.97698" fill="rgb(27,79,8)" />
<ellipse cx="298.404" cy="398.319" rx="3.29497" ry="1.97698" fill="rgb(27,79,8)" />
<polygon points=" 763.235,413.374 764.912,414.492 766.589,413.374 766.589,396.603 763.235,396.603 " fill=" rgb(91,60,17)" />
<polygon points=" 759.88,406.094 759.461,406.094 763.654,407.958 764.912,407.958 " fill=" rgb(91,60,17)" />
<ellipse cx="764.912" cy="396.603" rx="5.59043" ry="3.35426" fill="rgb(27,79,8)" />
<ellipse cx="759.671" cy="406.094" rx="2.79522" ry="1.67713" fill="rgb(27,79,8)" />
<polygon points=" 146.049,417.934 148.478,419.554 150.907,417.934 150.907,393.646 146.049,393.646 " fill=" rgb(91,60,17)" />
<polygon points=" 141.192,406.951 140.584,406.951 146.656,409.65 148.478,409.65 " fill=" rgb(91,60,17)" />
<ellipse cx="148.478" cy="393.646" rx="8.09608" ry="4.85765" fill="rgb(27,79,8)" />
<ellipse cx="140.888" cy="406.951" rx="4.04804" ry="2.42882" fill="rgb(27,79,8)" />
<polygon points=" 977.695,415.455 979.587,416.716 981.478,415.455 981.478,396.538 977.695,396.538 " fill=" rgb(91,60,17)" />
<polygon points=" 985.262,403.658 985.735,403.658 981.006,405.76 979.587,405.76 " fill=" rgb(91,60,17)" />
<polygon points=" 973.912,406.271 973.439,406.271 978.168,408.373 979.587,408.373 " fill=" rgb(91,60,17)" />
<ellipse cx="979.587" cy="396.538" rx="6.30566" ry="3.7834" fill="rgb(27,79,8)" />
<ellipse cx="985.498" cy="403.658" rx="3.15283" ry="1.8917" fill="rgb(27,79,8)" />
<ellipse cx="973.675" cy="406.271" rx="3.15283" ry="1.8917" fill="rgb(27,79,8)" />
<polygon points=" 370.844,422.2 373.291,423.832 375.737,422.2 375.737,397.733 370.844,397.733 " fill=" rgb(91,60,17)" />
<polygon points=" 365.951,408.769 365.339,408.769 371.456,411.487 373.291,411.487 " fill=" rgb(91,60,17)" />
<ellipse cx="373.291" cy="397.733" rx="8.15581" ry="4.89348" fill="rgb(27,79,8)" />
<ellipse cx="365.645" cy="408.769" rx="4.0779" ry="2.44674" fill="rgb(27,79,8)" />
<polygon points=" 842.503,421.973 844.854,423.54 847.204,421.973 847.204,398.47 842.503,398.47 " fill=" rgb(91,60,17)" />
<polygon points=" 851.904,407.924 852.492,407.924 846.616,410.535 844.854,410.535 " fill=" rgb(91,60,17)" />
<ellipse cx="844.854" cy="398.47" rx="7.83428" ry="4.70057" fill="rgb(27,79,8)" />
<ellipse cx="852.198" cy="407.924" rx="3.91714" ry="2.35028" fill="rgb(27,79,8)" />
<polygon points=" 956.845,422.048 958.949,423.45 961.053,422.048 961.053,401.008 956.845,401.008 " fill=" rgb(91,60,17)" />
<polygon points=" 965.261,407.266 965.787,407.266 960.527,409.604 958.949,409.604 " fill=" rgb(91,60,17)" />
<polygon points=" 952.637,411.277 952.111,411.277 957.371,413.615 958.949,413.615 " fill=" rgb(91,60,17)" />
<ellipse cx="958.949" cy="401.008" rx="7.01339" ry="4.20803" fill="rgb(27,79,8)" />
<ellipse cx="965.524" cy="407.266" rx="3.50669" ry="2.10402" fill="rgb(27,79,8)" />
<ellipse cx="952.374" cy="411.277" rx="3.50669" ry="2.10402" fill="rgb(27,79,8)" />
<polygon points=" 495.112,422.582 496.915,423.784 498.717,422.582 498.717,404.559 495.112,404.559 " fill=" rgb(91,60,17)" />
<polygon points=" 502.322,415.289 502.772,415.289 498.266,417.292 496.915,417.292 " fill=" rgb(91,60,17)" />
<polygon points=" 491.508,413.919 491.057,413.919 495.563,415.922 496.915,415.922 " fill=" rgb(91,60,17)" />
<ellipse cx="496.915" cy="404.559" rx="6.00778" ry="3.60467" fill="rgb(27,79,8)" />
<ellipse cx="502.547" cy="415.289" rx="3.00389" ry="1.80233" fill="rgb(27,79,8)" />
<ellipse cx="491.282" cy="413.919" rx="3.00389" ry="1.80233" fill="rgb(27,79,8)" />
<polygon points=" 882.553,428.526 884.952,430.125 887.351,428.526 887.351,404.538 882.553,404.538 " fill=" rgb(91,60,17)" />
<polygon points=" 892.148,408.46 892.748,408.46 886.751,411.126 884.952,411.126 " fill=" rgb(91,60,17)" />
<polygon points=" 877.755,409.415 877.156,409.415 883.153,412.081 884.952,412.081 " fill=" rgb(91,60,17)" />
<ellipse cx="884.952" cy="404.538" rx="7.99604" ry="4.79762" fill="rgb(27,79,8)" />
<ellipse cx="892.448" cy="408.46" rx="3.99802" ry="2.39881" fill="rgb(27,79,8)" />
<ellipse cx="877.456" cy="409.415" rx="3.99802" ry="2.39881" fill="rgb(27,79,8)" />
<polygon points=" 973.184,434.891 975.424,436.385 977.664,434.891 977.664,412.491 973.184,412.491 " fill=" rgb(91,60,17)" />
<polygon points=" 982.144,423.916 982.704,423.916 977.104,426.405 975.424,426.405 " fill=" rgb(91,60,17)" />
<polygon points=" 968.704,424.261 968.144,424.261 973.744,426.75 975.424,426.75 " fill=" rgb(91,60,17)" />
<ellipse cx="975.424" cy="412.491" rx="7.46687" ry="4.48012" fill="rgb(27,79,8)" />
<ellipse cx="982.424" cy="423.916" rx="3.73343" ry="2.24006" fill="rgb(27,79,8)" />
<ellipse cx="968.424" cy="424.261" rx="3.73343" ry="2.24006" fill="rgb(27,79,8)" />
<polygon points=" 753.075,434.176 755.106,435.53 757.138,434.176 757.138,413.861 753.075,413.861 " fill=" rgb(91,60,17)" />
<polygon points=" 761.201,423.435 761.709,423.435 756.63,425.692 755.106,425.692 " fill=" rgb(91,60,17)" />
<ellipse cx="755.106" cy="413.861" rx="6.77163" ry="4.06298" fill="rgb(27,79,8)" />
<ellipse cx="761.455" cy="423.435" rx="3.38581" ry="2.03149" fill="rgb(27,79,8)" />
<polygon points=" 631.994,433.571 633.608,434.647 635.222,433.571 635.222,417.43 631.994,417.43 " fill=" rgb(91,60,17)" />
<polygon points=" 628.766,426.565 628.362,426.565 632.397,428.358 633.608,428.358 " fill=" rgb(91,60,17)" />
<ellipse cx="633.608" cy="417.43" rx="5.38034" ry="3.2282" fill="rgb(27,79,8)" />
<ellipse cx="628.564" cy="426.565" rx="2.69017" ry="1.6141" fill="rgb(27,79,8)" />
<polygon points=" 79.6188,434.284 81.3717,435.453 83.1246,434.284 83.1246,416.756 79.6188,416.756 " fill=" rgb(91,60,17)" />
<polygon points=" 86.6304,423.288 87.0686,423.288 82.6864,425.236 81.3717,425.236 " fill=" rgb(91,60,17)" />
<polygon points=" 76.1131,419.923 75.6748,419.923 80.0571,421.871 81.3717,421.871 " fill=" rgb(91,60,17)" />
<ellipse cx="81.3717" cy="416.756" rx="5.84296" ry="3.50578" fill="rgb(27,79,8)" />
<ellipse cx="86.8495" cy="423.288" rx="2.92148" ry="1.75289" fill="rgb(27,79,8)" />
<ellipse cx="75.8939" cy="419.923" rx="2.92148" ry="1.75289" fill="rgb(27,79,8)" />
<polygon points=" 84.9494,435.524 86.5325,436.579 88.1156,435.524 88.1156,419.693 84.9494,419.693 " fill=" rgb(91,60,17)" />
<ellipse cx="86.5325" cy="419.693" rx="5.27713" ry="3.16628" fill="rgb(27,79,8)" />
<polygon points=" 80.5338,439.868 82.9717,441.493 85.4097,439.868 85.4097,415.488 80.5338,415.488 " fill=" rgb(91,60,17)" />
<polygon points=" 90.2856,418.872 90.8951,418.872 84.8002,421.581 82.9717,421.581 " fill=" rgb(91,60,17)" />
<polygon points=" 75.6578,419.965 75.0484,419.965 81.1433,422.674 82.9717,422.674 " fill=" rgb(91,60,17)" />
<ellipse cx="82.9717" cy="415.488" rx="8.12655" ry="4.87593" fill="rgb(27,79,8)" />
<ellipse cx="90.5904" cy="418.872" rx="4.06328" ry="2.43797" fill="rgb(27,79,8)" />
<ellipse cx="75.3531" cy="419.965" rx="4.06328" ry="2.43797" fill="rgb(27,79,8)" />
<polygon points=" 467.362,439.309 469.249,440.567 471.137,439.309 471.137,420.433 467.362,420.433 " fill=" rgb(91,60,17)" />
<polygon points=" 474.912,431.503 475.384,431.503 470.665,433.6 469.249,433.6 " fill=" rgb(91,60,17)" />
<polygon points=" 463.586,428.163 463.115,428.163 467.833,430.26 469.249,430.26 " fill=" rgb(91,60,17)" />
<ellipse cx="469.249" cy="420.433" rx="6.29188" ry="3.77513" fill="rgb(27,79,8)" />
<ellipse cx="475.148" cy="431.503" rx="3.14594" ry="1.88756" fill="rgb(27,79,8)" />
<ellipse cx="463.351" cy="428.163" rx="3.14594" ry="1.88756" fill="rgb(27,79,8)" />
<polygon points=" 80.2354,443.158 82.0577,444.373 83.8801,443.158 83.8801,424.934 80.2354,424.934 " fill=" rgb(91,60,17)" />
<polygon points=" 87.5249,434.792 87.9805,434.792 83.4245,436.817 82.0577,436.817 " fill=" rgb(91,60,17)" />
<polygon points=" 76.5906,430.624 76.135,430.624 80.691,432.649 82.0577,432.649 " fill=" rgb(91,60,17)" />
<ellipse cx="82.0577" cy="424.934" rx="6.07464" ry="3.64479" fill="rgb(27,79,8)" />
<ellipse cx="87.7527" cy="434.792" rx="3.03732" ry="1.82239" fill="rgb(27,79,8)" />
<ellipse cx="76.3628" cy="430.624" rx="3.03732" ry="1.82239" fill="rgb(27,79,8)" />
<polygon points=" 130.633,445.053 132.815,446.508 134.997,445.053 134.997,423.237 130.633,423.237 " fill=" rgb(91,60,17)" />
<polygon points=" 139.36,431.174 139.905,431.174 134.451,433.598 132.815,433.598 " fill=" rgb(91,60,17)" />
<polygon points=" 126.27,435.57 125.725,435.57 131.179,437.994 132.815,437.994 " fill=" rgb(91,60,17)" />
<ellipse cx="132.815" cy="423.237" rx="7.27214" ry="4.36329" fill="rgb(27,79,8)" />
<ellipse cx="139.633" cy="431.174" rx="3.63607" ry="2.18164" fill="rgb(27,79,8)" />
<ellipse cx="125.997" cy="435.57" rx="3.63607" ry="2.18164" fill="rgb(27,79,8)" />
<polygon points=" 284.88,447.47 287.119,448.962 289.358,447.47 289.358,425.082 284.88,425.082 " fill=" rgb(91,60,17)" />
<polygon points=" 293.836,427.859 294.395,427.859 288.798,430.347 287.119,430.347 " fill=" rgb(91,60,17)" />
<polygon points=" 280.403,432.996 279.843,432.996 285.44,435.483 287.119,435.483 " fill=" rgb(91,60,17)" />
<ellipse cx="287.119" cy="425.082" rx="7.46275" ry="4.47765" fill="rgb(27,79,8)" />
<ellipse cx="294.116" cy="427.859" rx="3.73138" ry="2.23883" fill="rgb(27,79,8)" />
<ellipse cx="280.123" cy="432.996" rx="3.73138" ry="2.23883" fill="rgb(27,79,8)" />
<polygon points=" 982.365,450.765 984.042,451.883 985.719,450.765 985.719,433.993 982.365,433.993 " fill=" rgb(91,60,17)" />
<polygon points=" 989.074,437.849 989.493,437.849 985.3,439.712 984.042,439.712 " fill=" rgb(91,60,17)" />
<polygon points=" 979.011,437.359 978.591,437.359 982.784,439.223 984.042,439.223 " fill=" rgb(91,60,17)" />
<ellipse cx="984.042" cy="433.993" rx="5.59062" ry="3.35437" fill="rgb(27,79,8)" />
<ellipse cx="989.283" cy="437.849" rx="2.79531" ry="1.67719" fill="rgb(27,79,8)" />
<ellipse cx="978.801" cy="437.359" rx="2.79531" ry="1.67719" fill="rgb(27,79,8)" />
<polygon points=" 706.198,453.248 707.917,454.395 709.637,453.248 709.637,436.049 706.198,436.049 " fill=" rgb(91,60,17)" />
<polygon points=" 713.077,440.612 713.507,440.612 709.207,442.523 707.917,442.523 " fill=" rgb(91,60,17)" />
<polygon points=" 702.758,438.202 702.328,438.202 706.628,440.113 707.917,440.113 " fill=" rgb(91,60,17)" />
<ellipse cx="707.917" cy="436.049" rx="5.73294" ry="3.43977" fill="rgb(27,79,8)" />
<ellipse cx="713.292" cy="440.612" rx="2.86647" ry="1.71988" fill="rgb(27,79,8)" />
<ellipse cx="702.543" cy="438.202" rx="2.86647" ry="1.71988" fill="rgb(27,79,8)" />
<polygon points=" 720.351,458.138 722.081,459.292 723.811,458.138 723.811,440.837 720.351,440.837 " fill=" rgb(91,60,17)" />
<polygon points=" 727.271,448.991 727.704,448.991 723.378,450.913 722.081,450.913 " fill=" rgb(91,60,17)" />
<ellipse cx="722.081" cy="440.837" rx="5.76715" ry="3.46029" fill="rgb(27,79,8)" />
<ellipse cx="727.487" cy="448.991" rx="2.88358" ry="1.73015" fill="rgb(27,79,8)" />
<polygon points=" 327.425,463.126 329.936,464.8 332.446,463.126 332.446,438.02 327.425,438.02 " fill=" rgb(91,60,17)" />
<polygon points=" 337.468,442.125 338.095,442.125 331.819,444.914 329.936,444.914 " fill=" rgb(91,60,17)" />
<polygon points=" 322.404,443.124 321.776,443.124 328.053,445.914 329.936,445.914 " fill=" rgb(91,60,17)" />
<ellipse cx="329.936" cy="438.02" rx="8.36891" ry="5.02134" fill="rgb(27,79,8)" />
<ellipse cx="337.782" cy="442.125" rx="4.18445" ry="2.51067" fill="rgb(27,79,8)" />
<ellipse cx="322.09" cy="443.124" rx="4.18445" ry="2.51067" fill="rgb(27,79,8)" />
<polygon points=" 533.626,467.417 535.468,468.645 537.31,467.417 537.31,448.997 533.626,448.997 " fill=" rgb(91,60,17)" />
<polygon points=" 529.942,457.305 529.482,457.305 534.087,459.352 535.468,459.352 " fill=" rgb(91,60,17)" />
<ellipse cx="535.468" cy="448.997" rx="6.14006" ry="3.68404" fill="rgb(27,79,8)" />
<ellipse cx="529.712" cy="457.305" rx="3.07003" ry="1.84202" fill="rgb(27,79,8)" />
<polygon points=" 306.682,472.954 309.251,474.667 311.82,472.954 311.82,447.265 306.682,447.265 " fill=" rgb(91,60,17)" />
<polygon points=" 316.958,461.65 317.6,461.65 311.178,464.504 309.251,464.504 " fill=" rgb(91,60,17)" />
<polygon points=" 301.544,458.102 300.902,458.102 307.325,460.956 309.251,460.956 " fill=" rgb(91,60,17)" />
<ellipse cx="309.251" cy="447.265" rx="8.56317" ry="5.1379" fill="rgb(27,79,8)" />
<ellipse cx="317.279" cy="461.65" rx="4.28158" ry="2.56895" fill="rgb(27,79,8)" />
<ellipse cx="301.223" cy="458.102" rx="4.28158" ry="2.56895" fill="rgb(27,79,8)" />
<polygon points=" 95.3359,470.942 97.4934,472.38 99.6509,470.942 99.6509,449.367 95.3359,449.367 " fill=" rgb(91,60,17)" />
<polygon points=" 103.966,462.02 104.505,462.02 99.1115,464.418 97.4934,464.418 " fill=" rgb(91,60,17)" />
<polygon points=" 91.021,458.203 90.4816,458.203 95.8753,460.6 97.4934,460.6 " fill=" rgb(91,60,17)" />
<ellipse cx="97.4934" cy="449.367" rx="7.19155" ry="4.31493" fill="rgb(27,79,8)" />
<ellipse cx="104.235" cy="462.02" rx="3.59577" ry="2.15746" fill="rgb(27,79,8)" />
<ellipse cx="90.7513" cy="458.203" rx="3.59577" ry="2.15746" fill="rgb(27,79,8)" />
<polygon points=" 186.642,475.561 189.063,477.175 191.483,475.561 191.483,451.359 186.642,451.359 " fill=" rgb(91,60,17)" />
<polygon points=" 196.323,455.316 196.928,455.316 190.878,458.006 189.063,458.006 " fill=" rgb(91,60,17)" />
<polygon points=" 181.802,456.28 181.197,456.28 187.247,458.969 189.063,458.969 " fill=" rgb(91,60,17)" />
<ellipse cx="189.063" cy="451.359" rx="8.06736" ry="4.84042" fill="rgb(27,79,8)" />
<ellipse cx="196.626" cy="455.316" rx="4.03368" ry="2.42021" fill="rgb(27,79,8)" />
<ellipse cx="181.5" cy="456.28" rx="4.03368" ry="2.42021" fill="rgb(27,79,8)" />
<polygon points=" 322.345,473.944 324.141,475.141 325.937,473.944 325.937,455.986 322.345,455.986 " fill=" rgb(91,60,17)" />
<polygon points=" 318.754,460.845 318.305,460.845 322.794,462.841 324.141,462.841 " fill=" rgb(91,60,17)" />
<ellipse cx="324.141" cy="455.986" rx="5.98603" ry="3.59162" fill="rgb(27,79,8)" />
<ellipse cx="318.529" cy="460.845" rx="2.99301" ry="1.79581" fill="rgb(27,79,8)" />
<polygon points=" 729.283,477.289 731.694,478.896 734.105,477.289 734.105,453.181 729.283,453.181 " fill=" rgb(91,60,17)" />
<polygon points=" 738.926,456.172 739.529,456.172 733.502,458.851 731.694,458.851 " fill=" rgb(91,60,17)" />
<polygon points=" 724.461,461.703 723.859,461.703 729.886,464.382 731.694,464.382 " fill=" rgb(91,60,17)" />
<ellipse cx="731.694" cy="453.181" rx="8.03603" ry="4.82162" fill="rgb(27,79,8)" />
<ellipse cx="739.228" cy="456.172" rx="4.01801" ry="2.41081" fill="rgb(27,79,8)" />
<ellipse cx="724.16" cy="461.703" rx="4.01801" ry="2.41081" fill="rgb(27,79,8)" />
<polygon points=" 876.752,476.11 878.87,477.521 880.987,476.11 880.987,454.932 876.752,454.932 " fill=" rgb(91,60,17)" />
<polygon points=" 885.223,464.692 885.752,464.692 880.458,467.045 878.87,467.045 " fill=" rgb(91,60,17)" />
<polygon points=" 872.517,467.704 871.987,467.704 877.281,470.057 878.87,470.057 " fill=" rgb(91,60,17)" />
<ellipse cx="878.87" cy="454.932" rx="7.05914" ry="4.23549" fill="rgb(27,79,8)" />
<ellipse cx="885.488" cy="464.692" rx="3.52957" ry="2.11774" fill="rgb(27,79,8)" />
<ellipse cx="872.252" cy="467.704" rx="3.52957" ry="2.11774" fill="rgb(27,79,8)" />
<polygon points=" 889.36,479.292 891.523,480.734 893.685,479.292 893.685,457.666 889.36,457.666 " fill=" rgb(91,60,17)" />
<polygon points=" 898.011,465.806 898.551,465.806 893.145,468.209 891.523,468.209 " fill=" rgb(91,60,17)" />
<polygon points=" 885.035,468.793 884.494,468.793 889.901,471.196 891.523,471.196 " fill=" rgb(91,60,17)" />
<ellipse cx="891.523" cy="457.666" rx="7.20883" ry="4.3253" fill="rgb(27,79,8)" />
<ellipse cx="898.281" cy="465.806" rx="3.60441" ry="2.16265" fill="rgb(27,79,8)" />
<ellipse cx="884.764" cy="468.793" rx="3.60441" ry="2.16265" fill="rgb(27,79,8)" />
<polygon points=" 616.738,479.512 618.809,480.892 620.879,479.512 620.879,458.808 616.738,458.808 " fill=" rgb(91,60,17)" />
<polygon points=" 625.02,470.911 625.537,470.911 620.361,473.212 618.809,473.212 " fill=" rgb(91,60,17)" />
<polygon points=" 612.597,467.049 612.08,467.049 617.256,469.35 618.809,469.35 " fill=" rgb(91,60,17)" />
<ellipse cx="618.809" cy="458.808" rx="6.90147" ry="4.14088" fill="rgb(27,79,8)" />
<ellipse cx="625.279" cy="470.911" rx="3.45073" ry="2.07044" fill="rgb(27,79,8)" />
<ellipse cx="612.338" cy="467.049" rx="3.45073" ry="2.07044" fill="rgb(27,79,8)" />
<polygon points=" 770.82,480.396 773.035,481.873 775.25,480.396 775.25,458.246 770.82,458.246 " fill=" rgb(91,60,17)" />
<polygon points=" 779.68,465.847 780.234,465.847 774.696,468.308 773.035,468.308 " fill=" rgb(91,60,17)" />
<polygon points=" 766.39,464.137 765.836,464.137 771.374,466.598 773.035,466.598 " fill=" rgb(91,60,17)" />
<ellipse cx="773.035" cy="458.246" rx="7.38338" ry="4.43003" fill="rgb(27,79,8)" />
<ellipse cx="779.957" cy="465.847" rx="3.69169" ry="2.21501" fill="rgb(27,79,8)" />
<ellipse cx="766.113" cy="464.137" rx="3.69169" ry="2.21501" fill="rgb(27,79,8)" />
<polygon points=" 143.606,482.736 145.87,484.245 148.135,482.736 148.135,460.091 143.606,460.091 " fill=" rgb(91,60,17)" />
<polygon points=" 152.664,468.53 153.23,468.53 147.569,471.046 145.87,471.046 " fill=" rgb(91,60,17)" />
<polygon points=" 139.077,464.183 138.511,464.183 144.172,466.699 145.87,466.699 " fill=" rgb(91,60,17)" />
<ellipse cx="145.87" cy="460.091" rx="7.54835" ry="4.52901" fill="rgb(27,79,8)" />
<ellipse cx="152.947" cy="468.53" rx="3.77418" ry="2.26451" fill="rgb(27,79,8)" />
<ellipse cx="138.794" cy="464.183" rx="3.77418" ry="2.26451" fill="rgb(27,79,8)" />
<polygon points=" 691.43,483.38 693.746,484.924 696.062,483.38 696.062,460.222 691.43,460.222 " fill=" rgb(91,60,17)" />
<polygon points=" 700.693,472.877 701.272,472.877 695.483,475.451 693.746,475.451 " fill=" rgb(91,60,17)" />
<polygon points=" 686.798,474.136 686.219,474.136 692.009,476.709 693.746,476.709 " fill=" rgb(91,60,17)" />
<ellipse cx="693.746" cy="460.222" rx="7.71958" ry="4.63175" fill="rgb(27,79,8)" />
<ellipse cx="700.983" cy="472.877" rx="3.85979" ry="2.31587" fill="rgb(27,79,8)" />
<ellipse cx="686.509" cy="474.136" rx="3.85979" ry="2.31587" fill="rgb(27,79,8)" />
<polygon points=" 963.407,484.986 965.416,486.326 967.426,484.986 967.426,464.892 963.407,464.892 " fill=" rgb(91,60,17)" />
<polygon points=" 971.445,469.987 971.947,469.987 966.923,472.22 965.416,472.22 " fill=" rgb(91,60,17)" />
<polygon points=" 959.388,472.05 958.886,472.05 963.909,474.283 965.416,474.283 " fill=" rgb(91,60,17)" />
<ellipse cx="965.416" cy="464.892" rx="6.6981" ry="4.01886" fill="rgb(27,79,8)" />
<ellipse cx="971.696" cy="469.987" rx="3.34905" ry="2.00943" fill="rgb(27,79,8)" />
<ellipse cx="959.137" cy="472.05" rx="3.34905" ry="2.00943" fill="rgb(27,79,8)" />
<polygon points=" 635.954,485.594 637.856,486.862 639.757,485.594 639.757,466.581 635.954,466.581 " fill=" rgb(91,60,17)" />
<polygon points=" 643.56,476.867 644.035,476.867 639.282,478.979 637.856,478.979 " fill=" rgb(91,60,17)" />
<polygon points=" 632.152,472.518 631.676,472.518 636.43,474.631 637.856,474.631 " fill=" rgb(91,60,17)" />
<ellipse cx="637.856" cy="466.581" rx="6.33775" ry="3.80265" fill="rgb(27,79,8)" />
<ellipse cx="643.797" cy="476.867" rx="3.16887" ry="1.90132" fill="rgb(27,79,8)" />
<ellipse cx="631.914" cy="472.518" rx="3.16887" ry="1.90132" fill="rgb(27,79,8)" />
<polygon points=" 474.182,488.317 476.477,489.847 478.772,488.317 478.772,465.367 474.182,465.367 " fill=" rgb(91,60,17)" />
<polygon points=" 483.362,475.944 483.936,475.944 478.198,478.494 476.477,478.494 " fill=" rgb(91,60,17)" />
<polygon points=" 469.592,479.208 469.019,479.208 474.756,481.758 476.477,481.758 " fill=" rgb(91,60,17)" />
<ellipse cx="476.477" cy="465.367" rx="7.64981" ry="4.58988" fill="rgb(27,79,8)" />
<ellipse cx="483.649" cy="475.944" rx="3.8249" ry="2.29494" fill="rgb(27,79,8)" />
<ellipse cx="469.306" cy="479.208" rx="3.8249" ry="2.29494" fill="rgb(27,79,8)" />
<polygon points=" 695.056,487.6 697.142,488.99 699.228,487.6 699.228,466.74 695.056,466.74 " fill=" rgb(91,60,17)" />
<polygon points=" 703.399,470.151 703.921,470.151 698.706,472.469 697.142,472.469 " fill=" rgb(91,60,17)" />
<polygon points=" 690.884,470.981 690.362,470.981 695.577,473.299 697.142,473.299 " fill=" rgb(91,60,17)" />
<ellipse cx="697.142" cy="466.74" rx="6.95313" ry="4.17188" fill="rgb(27,79,8)" />
<ellipse cx="703.66" cy="470.151" rx="3.47656" ry="2.08594" fill="rgb(27,79,8)" />
<ellipse cx="690.623" cy="470.981" rx="3.47656" ry="2.08594" fill="rgb(27,79,8)" />
<polygon points=" 176.831,491.083 179.41,492.802 181.989,491.083 181.989,465.294 176.831,465.294 " fill=" rgb(91,60,17)" />
<polygon points=" 171.673,476.926 171.029,476.926 177.476,479.791 179.41,479.791 " fill=" rgb(91,60,17)" />
<ellipse cx="179.41" cy="465.294" rx="8.59633" ry="5.1578" fill="rgb(27,79,8)" />
<ellipse cx="171.351" cy="476.926" rx="4.29816" ry="2.5789" fill="rgb(27,79,8)" />
<polygon points=" 809.97,492.789 812.169,494.254 814.367,492.789 814.367,470.805 809.97,470.805 " fill=" rgb(91,60,17)" />
<polygon points=" 818.764,483.657 819.313,483.657 813.818,486.099 812.169,486.099 " fill=" rgb(91,60,17)" />
<polygon points=" 805.574,479.556 805.024,479.556 810.52,481.999 812.169,481.999 " fill=" rgb(91,60,17)" />
<ellipse cx="812.169" cy="470.805" rx="7.32789" ry="4.39674" fill="rgb(27,79,8)" />
<ellipse cx="819.039" cy="483.657" rx="3.66395" ry="2.19837" fill="rgb(27,79,8)" />
<ellipse cx="805.299" cy="479.556" rx="3.66395" ry="2.19837" fill="rgb(27,79,8)" />
<polygon points=" 702.574,492.569 704.474,493.836 706.374,492.569 706.374,473.567 702.574,473.567 " fill=" rgb(91,60,17)" />
<polygon points=" 710.175,484.676 710.65,484.676 705.899,486.787 704.474,486.787 " fill=" rgb(91,60,17)" />
<polygon points=" 698.774,481.131 698.299,481.131 703.049,483.242 704.474,483.242 " fill=" rgb(91,60,17)" />
<ellipse cx="704.474" cy="473.567" rx="6.33384" ry="3.8003" fill="rgb(27,79,8)" />
<ellipse cx="710.412" cy="484.676" rx="3.16692" ry="1.90015" fill="rgb(27,79,8)" />
<ellipse cx="698.536" cy="481.131" rx="3.16692" ry="1.90015" fill="rgb(27,79,8)" />
<polygon points=" 23.9015,496.437 26.5226,498.185 29.1436,496.437 29.1436,470.227 23.9015,470.227 " fill=" rgb(91,60,17)" />
<polygon points=" 34.3857,485.695 35.041,485.695 28.4883,488.608 26.5226,488.608 " fill=" rgb(91,60,17)" />
<polygon points=" 18.6594,481.611 18.0041,481.611 24.5568,484.523 26.5226,484.523 " fill=" rgb(91,60,17)" />
<ellipse cx="26.5226" cy="470.227" rx="8.73683" ry="5.2421" fill="rgb(27,79,8)" />
<ellipse cx="34.7133" cy="485.695" rx="4.36842" ry="2.62105" fill="rgb(27,79,8)" />
<ellipse cx="18.3318" cy="481.611" rx="4.36842" ry="2.62105" fill="rgb(27,79,8)" />
<polygon points=" 559.134,496.565 561.577,498.194 564.021,496.565 564.021,472.127 559.134,472.127 " fill=" rgb(91,60,17)" />
<polygon points=" 554.246,479.886 553.635,479.886 559.744,482.601 561.577,482.601 " fill=" rgb(91,60,17)" />
<ellipse cx="561.577" cy="472.127" rx="8.14578" ry="4.88747" fill="rgb(27,79,8)" />
<ellipse cx="553.941" cy="479.886" rx="4.07289" ry="2.44373" fill="rgb(27,79,8)" />
<polygon points=" 747.049,497 749.17,498.414 751.29,497 751.29,475.794 747.049,475.794 " fill=" rgb(91,60,17)" />
<polygon points=" 742.808,479.242 742.278,479.242 747.579,481.598 749.17,481.598 " fill=" rgb(91,60,17)" />
<ellipse cx="749.17" cy="475.794" rx="7.06865" ry="4.24119" fill="rgb(27,79,8)" />
<ellipse cx="742.543" cy="479.242" rx="3.53433" ry="2.1206" fill="rgb(27,79,8)" />
<polygon points=" 721.87,498.323 724.148,499.842 726.426,498.323 726.426,475.542 721.87,475.542 " fill=" rgb(91,60,17)" />
<polygon points=" 717.313,482.775 716.744,482.775 722.439,485.306 724.148,485.306 " fill=" rgb(91,60,17)" />
<ellipse cx="724.148" cy="475.542" rx="7.59373" ry="4.55624" fill="rgb(27,79,8)" />
<ellipse cx="717.029" cy="482.775" rx="3.79687" ry="2.27812" fill="rgb(27,79,8)" />
<polygon points=" 804.431,505.982 807.023,507.71 809.615,505.982 809.615,480.059 804.431,480.059 " fill=" rgb(91,60,17)" />
<polygon points=" 814.8,487.77 815.448,487.77 808.967,490.65 807.023,490.65 " fill=" rgb(91,60,17)" />
<polygon points=" 799.246,492.712 798.598,492.712 805.079,495.592 807.023,495.592 " fill=" rgb(91,60,17)" />
<ellipse cx="807.023" cy="480.059" rx="8.64102" ry="5.18461" fill="rgb(27,79,8)" />
<ellipse cx="815.124" cy="487.77" rx="4.32051" ry="2.59231" fill="rgb(27,79,8)" />
<ellipse cx="798.922" cy="492.712" rx="4.32051" ry="2.59231" fill="rgb(27,79,8)" />
<polygon points=" 469.029,507.718 471.752,509.533 474.474,507.718 474.474,480.497 469.029,480.497 " fill=" rgb(91,60,17)" />
<polygon points=" 479.918,487.719 480.598,487.719 473.793,490.743 471.752,490.743 " fill=" rgb(91,60,17)" />
<polygon points=" 463.585,483.904 462.905,483.904 469.71,486.929 471.752,486.929 " fill=" rgb(91,60,17)" />
<ellipse cx="471.752" cy="480.497" rx="9.07374" ry="5.44424" fill="rgb(27,79,8)" />
<ellipse cx="480.258" cy="487.719" rx="4.53687" ry="2.72212" fill="rgb(27,79,8)" />
<ellipse cx="463.245" cy="483.904" rx="4.53687" ry="2.72212" fill="rgb(27,79,8)" />
<polygon points=" 560.769,505.017 562.783,506.36 564.797,505.017 564.797,484.875 560.769,484.875 " fill=" rgb(91,60,17)" />
<polygon points=" 568.826,492.648 569.329,492.648 564.294,494.886 562.783,494.886 " fill=" rgb(91,60,17)" />
<polygon points=" 556.741,496.754 556.237,496.754 561.272,498.992 562.783,498.992 " fill=" rgb(91,60,17)" />
<ellipse cx="562.783" cy="484.875" rx="6.714" ry="4.0284" fill="rgb(27,79,8)" />
<ellipse cx="569.078" cy="492.648" rx="3.357" ry="2.0142" fill="rgb(27,79,8)" />
<ellipse cx="556.489" cy="496.754" rx="3.357" ry="2.0142" fill="rgb(27,79,8)" />
<polygon points=" 947.024,507.894 949.571,509.592 952.118,507.894 952.118,482.427 947.024,482.427 " fill=" rgb(91,60,17)" />
<polygon points=" 957.211,490.986 957.848,490.986 951.481,493.816 949.571,493.816 " fill=" rgb(91,60,17)" />
<polygon points=" 941.931,486.656 941.294,486.656 947.661,489.486 949.571,489.486 " fill=" rgb(91,60,17)" />
<ellipse cx="949.571" cy="482.427" rx="8.48925" ry="5.09355" fill="rgb(27,79,8)" />
<ellipse cx="957.53" cy="490.986" rx="4.24463" ry="2.54678" fill="rgb(27,79,8)" />
<ellipse cx="941.612" cy="486.656" rx="4.24463" ry="2.54678" fill="rgb(27,79,8)" />
<polygon points=" -2.24081,508.886 0.0553505,510.416 2.35151,508.886 2.35151,485.924 -2.24081,485.924 " fill=" rgb(91,60,17)" />
<polygon points=" 6.94382,490.529 7.51786,490.529 1.77747,493.081 0.0553505,493.081 " fill=" rgb(91,60,17)" />
<ellipse cx="0.0553505" cy="485.924" rx="7.65386" ry="4.59231" fill="rgb(27,79,8)" />
<ellipse cx="7.23084" cy="490.529" rx="3.82693" ry="2.29616" fill="rgb(27,79,8)" />
<polygon points=" 542.463,509.415 544.647,510.871 546.832,509.415 546.832,487.567 542.463,487.567 " fill=" rgb(91,60,17)" />
<polygon points=" 551.202,500.461 551.748,500.461 546.286,502.888 544.647,502.888 " fill=" rgb(91,60,17)" />
<polygon points=" 538.093,497.056 537.547,497.056 543.009,499.484 544.647,499.484 " fill=" rgb(91,60,17)" />
<ellipse cx="544.647" cy="487.567" rx="7.2825" ry="4.3695" fill="rgb(27,79,8)" />
<ellipse cx="551.475" cy="500.461" rx="3.64125" ry="2.18475" fill="rgb(27,79,8)" />
<ellipse cx="537.82" cy="497.056" rx="3.64125" ry="2.18475" fill="rgb(27,79,8)" />
<polygon points=" 365.803,513.41 368.242,515.036 370.68,513.41 370.68,489.028 365.803,489.028 " fill=" rgb(91,60,17)" />
<polygon points=" 360.927,502.827 360.317,502.827 366.413,505.536 368.242,505.536 " fill=" rgb(91,60,17)" />
<ellipse cx="368.242" cy="489.028" rx="8.12746" ry="4.87648" fill="rgb(27,79,8)" />
<ellipse cx="360.622" cy="502.827" rx="4.06373" ry="2.43824" fill="rgb(27,79,8)" />
<polygon points=" 600.339,513.957 602.229,515.217 604.119,513.957 604.119,495.057 600.339,495.057 " fill=" rgb(91,60,17)" />
<polygon points=" 607.899,500.071 608.372,500.071 603.647,502.171 602.229,502.171 " fill=" rgb(91,60,17)" />
<polygon points=" 596.559,497.423 596.086,497.423 600.812,499.523 602.229,499.523 " fill=" rgb(91,60,17)" />
<ellipse cx="602.229" cy="495.057" rx="6.3002" ry="3.78012" fill="rgb(27,79,8)" />
<ellipse cx="608.136" cy="500.071" rx="3.1501" ry="1.89006" fill="rgb(27,79,8)" />
<ellipse cx="596.323" cy="497.423" rx="3.1501" ry="1.89006" fill="rgb(27,79,8)" />
<polygon points=" 869.203,514.559 871.103,515.826 873.002,514.559 873.002,495.565 869.203,495.565 " fill=" rgb(91,60,17)" />
<polygon points=" 876.801,501.949 877.276,501.949 872.527,504.059 871.103,504.059 " fill=" rgb(91,60,17)" />
<polygon points=" 865.404,498.72 864.929,498.72 869.678,500.83 871.103,500.83 " fill=" rgb(91,60,17)" />
<ellipse cx="871.103" cy="495.565" rx="6.33138" ry="3.79883" fill="rgb(27,79,8)" />
<ellipse cx="877.038" cy="501.949" rx="3.16569" ry="1.89941" fill="rgb(27,79,8)" />
<ellipse cx="865.167" cy="498.72" rx="3.16569" ry="1.89941" fill="rgb(27,79,8)" />
<polygon points=" 31.2654,518.013 33.6251,519.586 35.9848,518.013 35.9848,494.415 31.2654,494.415 " fill=" rgb(91,60,17)" />
<polygon points=" 26.5459,500.181 25.956,500.181 31.8553,502.803 33.6251,502.803 " fill=" rgb(91,60,17)" />
<ellipse cx="33.6251" cy="494.415" rx="7.86574" ry="4.71945" fill="rgb(27,79,8)" />
<ellipse cx="26.251" cy="500.181" rx="3.93287" ry="2.35972" fill="rgb(27,79,8)" />
<polygon points=" 567.647,520.799 569.618,522.113 571.59,520.799 571.59,501.086 567.647,501.086 " fill=" rgb(91,60,17)" />
<polygon points=" 575.532,506.316 576.025,506.316 571.097,508.506 569.618,508.506 " fill=" rgb(91,60,17)" />
<polygon points=" 563.705,503.554 563.212,503.554 568.14,505.744 569.618,505.744 " fill=" rgb(91,60,17)" />
<ellipse cx="569.618" cy="501.086" rx="6.57079" ry="3.94247" fill="rgb(27,79,8)" />
<ellipse cx="575.779" cy="506.316" rx="3.28539" ry="1.97124" fill="rgb(27,79,8)" />
<ellipse cx="563.458" cy="503.554" rx="3.28539" ry="1.97124" fill="rgb(27,79,8)" />
<polygon points=" 979.317,524.481 981.64,526.03 983.962,524.481 983.962,501.254 979.317,501.254 " fill=" rgb(91,60,17)" />
<polygon points=" 974.672,513.978 974.091,513.978 979.898,516.559 981.64,516.559 " fill=" rgb(91,60,17)" />
<ellipse cx="981.64" cy="501.254" rx="7.74232" ry="4.64539" fill="rgb(27,79,8)" />
<ellipse cx="974.381" cy="513.978" rx="3.87116" ry="2.3227" fill="rgb(27,79,8)" />
<polygon points=" 942.334,527.914 944.707,529.496 947.081,527.914 947.081,504.183 942.334,504.183 " fill=" rgb(91,60,17)" />
<polygon points=" 951.827,508.063 952.42,508.063 946.487,510.7 944.707,510.7 " fill=" rgb(91,60,17)" />
<polygon points=" 937.588,509.008 936.995,509.008 942.928,511.644 944.707,511.644 " fill=" rgb(91,60,17)" />
<ellipse cx="944.707" cy="504.183" rx="7.91039" ry="4.74624" fill="rgb(27,79,8)" />
<ellipse cx="952.123" cy="508.063" rx="3.9552" ry="2.37312" fill="rgb(27,79,8)" />
<ellipse cx="937.291" cy="509.008" rx="3.9552" ry="2.37312" fill="rgb(27,79,8)" />
<polygon points=" 773.061,530.642 775.22,532.081 777.378,530.642 777.378,509.057 773.061,509.057 " fill=" rgb(91,60,17)" />
<polygon points=" 781.695,518.307 782.235,518.307 776.839,520.705 775.22,520.705 " fill=" rgb(91,60,17)" />
<polygon points=" 768.744,513.667 768.205,513.667 773.601,516.066 775.22,516.066 " fill=" rgb(91,60,17)" />
<ellipse cx="775.22" cy="509.057" rx="7.19479" ry="4.31687" fill="rgb(27,79,8)" />
<ellipse cx="781.965" cy="518.307" rx="3.59739" ry="2.15844" fill="rgb(27,79,8)" />
<ellipse cx="768.475" cy="513.667" rx="3.59739" ry="2.15844" fill="rgb(27,79,8)" />
<polygon points=" 19.7355,531.091 21.9736,532.583 24.2118,531.091 24.2118,508.709 19.7355,508.709 " fill=" rgb(91,60,17)" />
<polygon points=" 28.6882,516.853 29.2477,516.853 23.6523,519.34 21.9736,519.34 " fill=" rgb(91,60,17)" />
<polygon points=" 15.2591,521.362 14.6995,521.362 20.295,523.849 21.9736,523.849 " fill=" rgb(91,60,17)" />
<ellipse cx="21.9736" cy="508.709" rx="7.46061" ry="4.47637" fill="rgb(27,79,8)" />
<ellipse cx="28.968" cy="516.853" rx="3.73031" ry="2.23818" fill="rgb(27,79,8)" />
<ellipse cx="14.9793" cy="521.362" rx="3.73031" ry="2.23818" fill="rgb(27,79,8)" />
<polygon points=" 341.173,534.001 343.605,535.623 346.038,534.001 346.038,509.672 341.173,509.672 " fill=" rgb(91,60,17)" />
<polygon points=" 350.904,522.081 351.512,522.081 345.43,524.784 343.605,524.784 " fill=" rgb(91,60,17)" />
<polygon points=" 336.307,522.455 335.699,522.455 341.781,525.158 343.605,525.158 " fill=" rgb(91,60,17)" />
<ellipse cx="343.605" cy="509.672" rx="8.1097" ry="4.86582" fill="rgb(27,79,8)" />
<ellipse cx="351.208" cy="522.081" rx="4.05485" ry="2.43291" fill="rgb(27,79,8)" />
<ellipse cx="336.003" cy="522.455" rx="4.05485" ry="2.43291" fill="rgb(27,79,8)" />
<polygon points=" 429.251,535.788 431.994,537.616 434.736,535.788 434.736,508.365 429.251,508.365 " fill=" rgb(91,60,17)" />
<polygon points=" 440.221,522.013 440.906,522.013 434.051,525.06 431.994,525.06 " fill=" rgb(91,60,17)" />
<polygon points=" 423.767,513.455 423.081,513.455 429.937,516.502 431.994,516.502 " fill=" rgb(91,60,17)" />
<ellipse cx="431.994" cy="508.365" rx="9.14103" ry="5.48462" fill="rgb(27,79,8)" />
<ellipse cx="440.564" cy="522.013" rx="4.57052" ry="2.74231" fill="rgb(27,79,8)" />
<ellipse cx="423.424" cy="513.455" rx="4.57052" ry="2.74231" fill="rgb(27,79,8)" />
<polygon points=" 295.545,534.631 297.842,536.162 300.138,534.631 300.138,511.665 295.545,511.665 " fill=" rgb(91,60,17)" />
<polygon points=" 304.732,524.525 305.306,524.525 299.564,527.077 297.842,527.077 " fill=" rgb(91,60,17)" />
<polygon points=" 290.952,521.353 290.378,521.353 296.119,523.905 297.842,523.905 " fill=" rgb(91,60,17)" />
<ellipse cx="297.842" cy="511.665" rx="7.65536" ry="4.59322" fill="rgb(27,79,8)" />
<ellipse cx="305.019" cy="524.525" rx="3.82768" ry="2.29661" fill="rgb(27,79,8)" />
<ellipse cx="290.665" cy="521.353" rx="3.82768" ry="2.29661" fill="rgb(27,79,8)" />
<polygon points=" 719.374,538.735 722.184,540.609 724.995,538.735 724.995,510.63 719.374,510.63 " fill=" rgb(91,60,17)" />
<polygon points=" 730.615,523.875 731.318,523.875 724.292,526.998 722.184,526.998 " fill=" rgb(91,60,17)" />
<ellipse cx="722.184" cy="510.63" rx="9.36828" ry="5.62097" fill="rgb(27,79,8)" />
<ellipse cx="730.967" cy="523.875" rx="4.68414" ry="2.81048" fill="rgb(27,79,8)" />
<polygon points=" 5.72094,541.606 8.51159,543.466 11.3022,541.606 11.3022,513.699 5.72094,513.699 " fill=" rgb(91,60,17)" />
<polygon points=" 0.139655,520.518 -0.558006,520.518 6.41861,523.619 8.51159,523.619 " fill=" rgb(91,60,17)" />
<ellipse cx="8.51159" cy="513.699" rx="9.30215" ry="5.58129" fill="rgb(27,79,8)" />
<ellipse cx="-0.209175" cy="520.518" rx="4.65107" ry="2.79064" fill="rgb(27,79,8)" />
<polygon points=" 577.839,539.685 580.197,541.257 582.556,539.685 582.556,516.099 577.839,516.099 " fill=" rgb(91,60,17)" />
<polygon points=" 587.273,522.356 587.862,522.356 581.966,524.977 580.197,524.977 " fill=" rgb(91,60,17)" />
<polygon points=" 573.121,519.051 572.532,519.051 578.428,521.672 580.197,521.672 " fill=" rgb(91,60,17)" />
<ellipse cx="580.197" cy="516.099" rx="7.86183" ry="4.7171" fill="rgb(27,79,8)" />
<ellipse cx="587.568" cy="522.356" rx="3.93091" ry="2.35855" fill="rgb(27,79,8)" />
<ellipse cx="572.827" cy="519.051" rx="3.93091" ry="2.35855" fill="rgb(27,79,8)" />
<polygon points=" 68.2231,539.022 70.4108,540.48 72.5985,539.022 72.5985,517.145 68.2231,517.145 " fill=" rgb(91,60,17)" />
<polygon points=" 63.8477,527.012 63.3008,527.012 68.7701,529.443 70.4108,529.443 " fill=" rgb(91,60,17)" />
<ellipse cx="70.4108" cy="517.145" rx="7.29234" ry="4.37541" fill="rgb(27,79,8)" />
<ellipse cx="63.5743" cy="527.012" rx="3.64617" ry="2.1877" fill="rgb(27,79,8)" />
<polygon points=" 589.26,543.883 592.081,545.764 594.901,543.883 594.901,515.68 589.26,515.68 " fill=" rgb(91,60,17)" />
<polygon points=" 583.62,528.401 582.915,528.401 589.965,531.535 592.081,531.535 " fill=" rgb(91,60,17)" />
<ellipse cx="592.081" cy="515.68" rx="9.40099" ry="5.64059" fill="rgb(27,79,8)" />
<ellipse cx="583.267" cy="528.401" rx="4.70049" ry="2.8203" fill="rgb(27,79,8)" />
<polygon points=" 713.126,540.838 715.208,542.226 717.29,540.838 717.29,520.018 713.126,520.018 " fill=" rgb(91,60,17)" />
<polygon points=" 721.454,527.738 721.974,527.738 716.769,530.052 715.208,530.052 " fill=" rgb(91,60,17)" />
<polygon points=" 708.962,523.366 708.442,523.366 713.646,525.679 715.208,525.679 " fill=" rgb(91,60,17)" />
<ellipse cx="715.208" cy="520.018" rx="6.93979" ry="4.16388" fill="rgb(27,79,8)" />
<ellipse cx="721.714" cy="527.738" rx="3.4699" ry="2.08194" fill="rgb(27,79,8)" />
<ellipse cx="708.702" cy="523.366" rx="3.4699" ry="2.08194" fill="rgb(27,79,8)" />
<polygon points=" 430.684,546.379 433.439,548.215 436.194,546.379 436.194,518.831 430.684,518.831 " fill=" rgb(91,60,17)" />
<polygon points=" 441.703,522.526 442.392,522.526 435.505,525.587 433.439,525.587 " fill=" rgb(91,60,17)" />
<ellipse cx="433.439" cy="518.831" rx="9.18265" ry="5.50959" fill="rgb(27,79,8)" />
<ellipse cx="442.048" cy="522.526" rx="4.59132" ry="2.75479" fill="rgb(27,79,8)" />
<polygon points=" 375.722,547.275 378.326,549.011 380.93,547.275 380.93,521.234 375.722,521.234 " fill=" rgb(91,60,17)" />
<polygon points=" 386.139,535.465 386.79,535.465 380.279,538.359 378.326,538.359 " fill=" rgb(91,60,17)" />
<polygon points=" 370.514,536.881 369.863,536.881 376.373,539.774 378.326,539.774 " fill=" rgb(91,60,17)" />
<ellipse cx="378.326" cy="521.234" rx="8.68043" ry="5.20826" fill="rgb(27,79,8)" />
<ellipse cx="386.464" cy="535.465" rx="4.34022" ry="2.60413" fill="rgb(27,79,8)" />
<ellipse cx="370.188" cy="536.881" rx="4.34022" ry="2.60413" fill="rgb(27,79,8)" />
<polygon points=" 669.195,548.675 672.041,550.572 674.887,548.675 674.887,520.211 669.195,520.211 " fill=" rgb(91,60,17)" />
<polygon points=" 680.58,526.754 681.292,526.754 674.176,529.917 672.041,529.917 " fill=" rgb(91,60,17)" />
<polygon points=" 663.502,525.923 662.79,525.923 669.906,529.086 672.041,529.086 " fill=" rgb(91,60,17)" />
<ellipse cx="672.041" cy="520.211" rx="9.48787" ry="5.69272" fill="rgb(27,79,8)" />
<ellipse cx="680.936" cy="526.754" rx="4.74393" ry="2.84636" fill="rgb(27,79,8)" />
<ellipse cx="663.146" cy="525.923" rx="4.74393" ry="2.84636" fill="rgb(27,79,8)" />
<polygon points=" 113.313,549.201 116.202,551.127 119.09,549.201 119.09,520.317 113.313,520.317 " fill=" rgb(91,60,17)" />
<polygon points=" 124.867,535.943 125.589,535.943 118.368,539.152 116.202,539.152 " fill=" rgb(91,60,17)" />
<polygon points=" 107.537,529.336 106.815,529.336 114.036,532.546 116.202,532.546 " fill=" rgb(91,60,17)" />
<ellipse cx="116.202" cy="520.317" rx="9.62809" ry="5.77685" fill="rgb(27,79,8)" />
<ellipse cx="125.228" cy="535.943" rx="4.81404" ry="2.88843" fill="rgb(27,79,8)" />
<ellipse cx="107.176" cy="529.336" rx="4.81404" ry="2.88843" fill="rgb(27,79,8)" />
<polygon points=" 677.661,550.049 680.545,551.971 683.428,550.049 683.428,521.217 677.661,521.217 " fill=" rgb(91,60,17)" />
<polygon points=" 689.194,532.309 689.915,532.309 682.707,535.513 680.545,535.513 " fill=" rgb(91,60,17)" />
<polygon points=" 671.895,533.2 671.174,533.2 678.382,536.404 680.545,536.404 " fill=" rgb(91,60,17)" />
<ellipse cx="680.545" cy="521.217" rx="9.6107" ry="5.76642" fill="rgb(27,79,8)" />
<ellipse cx="689.555" cy="532.309" rx="4.80535" ry="2.88321" fill="rgb(27,79,8)" />
<ellipse cx="671.535" cy="533.2" rx="4.80535" ry="2.88321" fill="rgb(27,79,8)" />
<polygon points=" 651.565,549.258 654.082,550.936 656.599,549.258 656.599,524.089 651.565,524.089 " fill=" rgb(91,60,17)" />
<polygon points=" 661.633,533.247 662.262,533.247 655.97,536.043 654.082,536.043 " fill=" rgb(91,60,17)" />
<polygon points=" 646.531,538.317 645.902,538.317 652.194,541.114 654.082,541.114 " fill=" rgb(91,60,17)" />
<ellipse cx="654.082" cy="524.089" rx="8.38962" ry="5.03377" fill="rgb(27,79,8)" />
<ellipse cx="661.947" cy="533.247" rx="4.19481" ry="2.51688" fill="rgb(27,79,8)" />
<ellipse cx="646.217" cy="538.317" rx="4.19481" ry="2.51688" fill="rgb(27,79,8)" />
<polygon points=" 556.119,547.797 558.065,549.094 560.011,547.797 560.011,528.335 556.119,528.335 " fill=" rgb(91,60,17)" />
<polygon points=" 563.904,535.416 564.39,535.416 559.525,537.578 558.065,537.578 " fill=" rgb(91,60,17)" />
<polygon points=" 552.227,539.337 551.74,539.337 556.605,541.499 558.065,541.499 " fill=" rgb(91,60,17)" />
<ellipse cx="558.065" cy="528.335" rx="6.4873" ry="3.89238" fill="rgb(27,79,8)" />
<ellipse cx="564.147" cy="535.416" rx="3.24365" ry="1.94619" fill="rgb(27,79,8)" />
<ellipse cx="551.983" cy="539.337" rx="3.24365" ry="1.94619" fill="rgb(27,79,8)" />
<polygon points=" 505.975,554.034 508.39,555.644 510.806,554.034 510.806,529.88 505.975,529.88 " fill=" rgb(91,60,17)" />
<polygon points=" 501.144,535.782 500.541,535.782 506.579,538.466 508.39,538.466 " fill=" rgb(91,60,17)" />
<ellipse cx="508.39" cy="529.88" rx="8.05105" ry="4.83063" fill="rgb(27,79,8)" />
<ellipse cx="500.843" cy="535.782" rx="4.02552" ry="2.41531" fill="rgb(27,79,8)" />
<polygon points=" 517.741,555.767 520.477,557.592 523.214,555.767 523.214,528.398 517.741,528.398 " fill=" rgb(91,60,17)" />
<polygon points=" 528.688,537.597 529.372,537.597 522.53,540.638 520.477,540.638 " fill=" rgb(91,60,17)" />
<polygon points=" 512.267,532.943 511.582,532.943 518.425,535.984 520.477,535.984 " fill=" rgb(91,60,17)" />
<ellipse cx="520.477" cy="528.398" rx="9.12306" ry="5.47384" fill="rgb(27,79,8)" />
<ellipse cx="529.03" cy="537.597" rx="4.56153" ry="2.73692" fill="rgb(27,79,8)" />
<ellipse cx="511.925" cy="532.943" rx="4.56153" ry="2.73692" fill="rgb(27,79,8)" />
<polygon points=" 553.708,556.194 556.429,558.008 559.151,556.194 559.151,528.98 553.708,528.98 " fill=" rgb(91,60,17)" />
<polygon points=" 548.265,536.344 547.585,536.344 554.388,539.368 556.429,539.368 " fill=" rgb(91,60,17)" />
<ellipse cx="556.429" cy="528.98" rx="9.07153" ry="5.44292" fill="rgb(27,79,8)" />
<ellipse cx="547.925" cy="536.344" rx="4.53576" ry="2.72146" fill="rgb(27,79,8)" />
<polygon points=" 604.427,556.671 607.045,558.417 609.663,556.671 609.663,530.487 604.427,530.487 " fill=" rgb(91,60,17)" />
<polygon points=" 614.9,537.433 615.555,537.433 609.009,540.342 607.045,540.342 " fill=" rgb(91,60,17)" />
<polygon points=" 599.19,533.764 598.535,533.764 605.081,536.674 607.045,536.674 " fill=" rgb(91,60,17)" />
<ellipse cx="607.045" cy="530.487" rx="8.72812" ry="5.23687" fill="rgb(27,79,8)" />
<ellipse cx="615.228" cy="537.433" rx="4.36406" ry="2.61843" fill="rgb(27,79,8)" />
<ellipse cx="598.862" cy="533.764" rx="4.36406" ry="2.61843" fill="rgb(27,79,8)" />
<polygon points=" 232.858,557.137 235.263,558.741 237.668,557.137 237.668,533.087 232.858,533.087 " fill=" rgb(91,60,17)" />
<polygon points=" 242.478,536.071 243.079,536.071 237.067,538.743 235.263,538.743 " fill=" rgb(91,60,17)" />
<polygon points=" 228.048,541.588 227.446,541.588 233.459,544.26 235.263,544.26 " fill=" rgb(91,60,17)" />
<ellipse cx="235.263" cy="533.087" rx="8.01696" ry="4.81017" fill="rgb(27,79,8)" />
<ellipse cx="242.779" cy="536.071" rx="4.00848" ry="2.40509" fill="rgb(27,79,8)" />
<ellipse cx="227.747" cy="541.588" rx="4.00848" ry="2.40509" fill="rgb(27,79,8)" />
<polygon points=" 177.198,558.325 179.49,559.853 181.782,558.325 181.782,535.404 177.198,535.404 " fill=" rgb(91,60,17)" />
<polygon points=" 186.366,549.051 186.94,549.051 181.209,551.598 179.49,551.598 " fill=" rgb(91,60,17)" />
<polygon points=" 172.614,547.308 172.041,547.308 177.771,549.855 179.49,549.855 " fill=" rgb(91,60,17)" />
<ellipse cx="179.49" cy="535.404" rx="7.64024" ry="4.58415" fill="rgb(27,79,8)" />
<ellipse cx="186.653" cy="549.051" rx="3.82012" ry="2.29207" fill="rgb(27,79,8)" />
<ellipse cx="172.328" cy="547.308" rx="3.82012" ry="2.29207" fill="rgb(27,79,8)" />
<polygon points=" 880.285,559.365 882.709,560.981 885.133,559.365 885.133,535.126 880.285,535.126 " fill=" rgb(91,60,17)" />
<polygon points=" 889.981,546.297 890.587,546.297 884.527,548.99 882.709,548.99 " fill=" rgb(91,60,17)" />
<polygon points=" 875.437,549.744 874.831,549.744 880.891,552.438 882.709,552.438 " fill=" rgb(91,60,17)" />
<ellipse cx="882.709" cy="535.126" rx="8.07982" ry="4.84789" fill="rgb(27,79,8)" />
<ellipse cx="890.284" cy="546.297" rx="4.03991" ry="2.42395" fill="rgb(27,79,8)" />
<ellipse cx="875.134" cy="549.744" rx="4.03991" ry="2.42395" fill="rgb(27,79,8)" />
<polygon points=" 776.911,563.195 779.051,564.622 781.191,563.195 781.191,541.794 776.911,541.794 " fill=" rgb(91,60,17)" />
<polygon points=" 772.631,545.273 772.096,545.273 777.446,547.651 779.051,547.651 " fill=" rgb(91,60,17)" />
<ellipse cx="779.051" cy="541.794" rx="7.13348" ry="4.28009" fill="rgb(27,79,8)" />
<ellipse cx="772.363" cy="545.273" rx="3.56674" ry="2.14004" fill="rgb(27,79,8)" />
<polygon points=" 541.963,567.063 544.591,568.815 547.219,567.063 547.219,540.782 541.963,540.782 " fill=" rgb(91,60,17)" />
<polygon points=" 552.475,553.167 553.132,553.167 546.562,556.088 544.591,556.088 " fill=" rgb(91,60,17)" />
<ellipse cx="544.591" cy="540.782" rx="8.76042" ry="5.25625" fill="rgb(27,79,8)" />
<ellipse cx="552.804" cy="553.167" rx="4.38021" ry="2.62813" fill="rgb(27,79,8)" />
<polygon points=" 533.431,573.774 536.275,575.669 539.118,573.774 539.118,545.336 533.431,545.336 " fill=" rgb(91,60,17)" />
<ellipse cx="536.275" cy="545.336" rx="9.47923" ry="5.68754" fill="rgb(27,79,8)" />
<polygon points=" 103.145,575.027 105.908,576.869 108.671,575.027 108.671,547.397 103.145,547.397 " fill=" rgb(91,60,17)" />
<polygon points=" 114.196,563.549 114.887,563.549 107.98,566.619 105.908,566.619 " fill=" rgb(91,60,17)" />
<polygon points=" 97.6188,558.396 96.928,558.396 103.835,561.466 105.908,561.466 " fill=" rgb(91,60,17)" />
<ellipse cx="105.908" cy="547.397" rx="9.20981" ry="5.52589" fill="rgb(27,79,8)" />
<ellipse cx="114.542" cy="563.549" rx="4.60491" ry="2.76294" fill="rgb(27,79,8)" />
<ellipse cx="97.2734" cy="558.396" rx="4.60491" ry="2.76294" fill="rgb(27,79,8)" />
<polygon points=" 144.682,573.427 147.014,574.982 149.346,573.427 149.346,550.107 144.682,550.107 " fill=" rgb(91,60,17)" />
<polygon points=" 140.018,556.417 139.435,556.417 145.265,559.009 147.014,559.009 " fill=" rgb(91,60,17)" />
<ellipse cx="147.014" cy="550.107" rx="7.77332" ry="4.66399" fill="rgb(27,79,8)" />
<ellipse cx="139.726" cy="556.417" rx="3.88666" ry="2.332" fill="rgb(27,79,8)" />
<polygon points=" 145.98,575.952 148.269,577.478 150.557,575.952 150.557,553.064 145.98,553.064 " fill=" rgb(91,60,17)" />
<polygon points=" 155.135,566.487 155.707,566.487 149.985,569.031 148.269,569.031 " fill=" rgb(91,60,17)" />
<polygon points=" 141.402,562.438 140.83,562.438 146.552,564.981 148.269,564.981 " fill=" rgb(91,60,17)" />
<ellipse cx="148.269" cy="553.064" rx="7.62928" ry="4.57757" fill="rgb(27,79,8)" />
<ellipse cx="155.421" cy="566.487" rx="3.81464" ry="2.28878" fill="rgb(27,79,8)" />
<ellipse cx="141.116" cy="562.438" rx="3.81464" ry="2.28878" fill="rgb(27,79,8)" />
<polygon points=" 546.294,577.734 548.519,579.217 550.744,577.734 550.744,555.483 546.294,555.483 " fill=" rgb(91,60,17)" />
<polygon points=" 555.194,564.433 555.751,564.433 550.188,566.906 548.519,566.906 " fill=" rgb(91,60,17)" />
<ellipse cx="548.519" cy="555.483" rx="7.41706" ry="4.45024" fill="rgb(27,79,8)" />
<ellipse cx="555.473" cy="564.433" rx="3.70853" ry="2.22512" fill="rgb(27,79,8)" />
<polygon points=" 619.555,577.962 621.678,579.378 623.802,577.962 623.802,556.725 619.555,556.725 " fill=" rgb(91,60,17)" />
<polygon points=" 615.307,560.177 614.776,560.177 620.086,562.537 621.678,562.537 " fill=" rgb(91,60,17)" />
<ellipse cx="621.678" cy="556.725" rx="7.07898" ry="4.24739" fill="rgb(27,79,8)" />
<ellipse cx="615.042" cy="560.177" rx="3.53949" ry="2.1237" fill="rgb(27,79,8)" />
<polygon points=" 639.846,586.432 642.352,588.102 644.857,586.432 644.857,561.376 639.846,561.376 " fill=" rgb(91,60,17)" />
<polygon points=" 634.835,575.102 634.209,575.102 640.473,577.886 642.352,577.886 " fill=" rgb(91,60,17)" />
<ellipse cx="642.352" cy="561.376" rx="8.35186" ry="5.01111" fill="rgb(27,79,8)" />
<ellipse cx="634.522" cy="575.102" rx="4.17593" ry="2.50556" fill="rgb(27,79,8)" />
<polygon points=" 472.231,586.887 474.698,588.531 477.164,586.887 477.164,562.223 472.231,562.223 " fill=" rgb(91,60,17)" />
<polygon points=" 482.097,576.779 482.713,576.779 476.547,579.519 474.698,579.519 " fill=" rgb(91,60,17)" />
<polygon points=" 467.298,572.935 466.682,572.935 472.848,575.676 474.698,575.676 " fill=" rgb(91,60,17)" />
<ellipse cx="474.698" cy="562.223" rx="8.22117" ry="4.9327" fill="rgb(27,79,8)" />
<ellipse cx="482.405" cy="576.779" rx="4.11059" ry="2.46635" fill="rgb(27,79,8)" />
<ellipse cx="466.99" cy="572.935" rx="4.11059" ry="2.46635" fill="rgb(27,79,8)" />
<polygon points=" 606.186,589.643 608.989,591.511 611.791,589.643 611.791,561.616 606.186,561.616 " fill=" rgb(91,60,17)" />
<polygon points=" 617.397,572.595 618.097,572.595 611.091,575.709 608.989,575.709 " fill=" rgb(91,60,17)" />
<ellipse cx="608.989" cy="561.616" rx="9.34219" ry="5.60531" fill="rgb(27,79,8)" />
<ellipse cx="617.747" cy="572.595" rx="4.67109" ry="2.80266" fill="rgb(27,79,8)" />
<polygon points=" 201.205,590.55 204.072,592.462 206.94,590.55 206.94,561.875 201.205,561.875 " fill=" rgb(91,60,17)" />
<polygon points=" 212.675,576.501 213.391,576.501 206.223,579.687 204.072,579.687 " fill=" rgb(91,60,17)" />
<polygon points=" 195.47,576.942 194.753,576.942 201.921,580.128 204.072,580.128 " fill=" rgb(91,60,17)" />
<ellipse cx="204.072" cy="561.875" rx="9.55832" ry="5.73499" fill="rgb(27,79,8)" />
<ellipse cx="213.033" cy="576.501" rx="4.77916" ry="2.8675" fill="rgb(27,79,8)" />
<ellipse cx="195.111" cy="576.942" rx="4.77916" ry="2.8675" fill="rgb(27,79,8)" />
<polygon points=" 2.472,592.779 5.18962,594.591 7.90724,592.779 7.90724,565.603 2.472,565.603 " fill=" rgb(91,60,17)" />
<polygon points=" -2.96323,572.243 -3.64264,572.243 3.15141,575.263 5.18962,575.263 " fill=" rgb(91,60,17)" />
<ellipse cx="5.18962" cy="565.603" rx="9.05872" ry="5.43523" fill="rgb(27,79,8)" />
<ellipse cx="-3.30293" cy="572.243" rx="4.52936" ry="2.71762" fill="rgb(27,79,8)" />
<polygon points=" 929.419,593.725 931.505,595.116 933.591,593.725 933.591,572.867 929.419,572.867 " fill=" rgb(91,60,17)" />
<polygon points=" 937.763,579.877 938.284,579.877 933.069,582.195 931.505,582.195 " fill=" rgb(91,60,17)" />
<polygon points=" 925.247,576.331 924.726,576.331 929.941,578.648 931.505,578.648 " fill=" rgb(91,60,17)" />
<ellipse cx="931.505" cy="572.867" rx="6.95292" ry="4.17175" fill="rgb(27,79,8)" />
<ellipse cx="938.023" cy="579.877" rx="3.47646" ry="2.08588" fill="rgb(27,79,8)" />
<ellipse cx="924.987" cy="576.331" rx="3.47646" ry="2.08588" fill="rgb(27,79,8)" />
<polygon points=" 94.0885,598.127 96.5629,599.777 99.0373,598.127 99.0373,573.383 94.0885,573.383 " fill=" rgb(91,60,17)" />
<polygon points=" 103.986,579.189 104.605,579.189 98.4187,581.938 96.5629,581.938 " fill=" rgb(91,60,17)" />
<ellipse cx="96.5629" cy="573.383" rx="8.24807" ry="4.94884" fill="rgb(27,79,8)" />
<ellipse cx="104.295" cy="579.189" rx="4.12404" ry="2.47442" fill="rgb(27,79,8)" />
<polygon points=" 184.122,605.559 186.458,607.116 188.794,605.559 188.794,582.2 184.122,582.2 " fill=" rgb(91,60,17)" />
<polygon points=" 193.466,585.442 194.05,585.442 188.21,588.037 186.458,588.037 " fill=" rgb(91,60,17)" />
<polygon points=" 179.451,586.489 178.867,586.489 184.706,589.085 186.458,589.085 " fill=" rgb(91,60,17)" />
<ellipse cx="186.458" cy="582.2" rx="7.78626" ry="4.67176" fill="rgb(27,79,8)" />
<ellipse cx="193.758" cy="585.442" rx="3.89313" ry="2.33588" fill="rgb(27,79,8)" />
<ellipse cx="179.159" cy="586.489" rx="3.89313" ry="2.33588" fill="rgb(27,79,8)" />
<polygon points=" 261.767,608.969 264.73,610.945 267.694,608.969 267.694,579.335 261.767,579.335 " fill=" rgb(91,60,17)" />
<polygon points=" 255.84,588.744 255.099,588.744 262.508,592.036 264.73,592.036 " fill=" rgb(91,60,17)" />
<ellipse cx="264.73" cy="579.335" rx="9.87786" ry="5.92672" fill="rgb(27,79,8)" />
<ellipse cx="255.47" cy="588.744" rx="4.93893" ry="2.96336" fill="rgb(27,79,8)" />
<polygon points=" 917.379,605.342 919.531,606.778 921.684,605.342 921.684,583.817 917.379,583.817 " fill=" rgb(91,60,17)" />
<polygon points=" 925.989,594.976 926.527,594.976 921.146,597.367 919.531,597.367 " fill=" rgb(91,60,17)" />
<polygon points=" 913.074,590.348 912.535,590.348 917.917,592.739 919.531,592.739 " fill=" rgb(91,60,17)" />
<ellipse cx="919.531" cy="583.817" rx="7.17533" ry="4.3052" fill="rgb(27,79,8)" />
<ellipse cx="926.258" cy="594.976" rx="3.58766" ry="2.1526" fill="rgb(27,79,8)" />
<ellipse cx="912.805" cy="590.348" rx="3.58766" ry="2.1526" fill="rgb(27,79,8)" />
<polygon points=" 355.853,607.438 358.152,608.971 360.451,607.438 360.451,584.446 355.853,584.446 " fill=" rgb(91,60,17)" />
<polygon points=" 365.05,592.336 365.625,592.336 359.877,594.891 358.152,594.891 " fill=" rgb(91,60,17)" />
<polygon points=" 351.254,590.56 350.68,590.56 356.428,593.115 358.152,593.115 " fill=" rgb(91,60,17)" />
<ellipse cx="358.152" cy="584.446" rx="7.66425" ry="4.59855" fill="rgb(27,79,8)" />
<ellipse cx="365.337" cy="592.336" rx="3.83212" ry="2.29927" fill="rgb(27,79,8)" />
<ellipse cx="350.967" cy="590.56" rx="3.83212" ry="2.29927" fill="rgb(27,79,8)" />
<polygon points=" 818.934,611.03 821.719,612.887 824.503,611.03 824.503,583.182 818.934,583.182 " fill=" rgb(91,60,17)" />
<polygon points=" 830.073,598.776 830.769,598.776 823.807,601.87 821.719,601.87 " fill=" rgb(91,60,17)" />
<polygon points=" 813.364,594.93 812.668,594.93 819.63,598.024 821.719,598.024 " fill=" rgb(91,60,17)" />
<ellipse cx="821.719" cy="583.182" rx="9.28277" ry="5.56966" fill="rgb(27,79,8)" />
<ellipse cx="830.421" cy="598.776" rx="4.64138" ry="2.78483" fill="rgb(27,79,8)" />
<ellipse cx="813.016" cy="594.93" rx="4.64138" ry="2.78483" fill="rgb(27,79,8)" />
<polygon points=" 844.933,609.724 847.275,611.285 849.618,609.724 849.618,586.3 844.933,586.3 " fill=" rgb(91,60,17)" />
<ellipse cx="847.275" cy="586.3" rx="7.80784" ry="4.6847" fill="rgb(27,79,8)" />
<polygon points=" 887.116,610.56 889.287,612.008 891.459,610.56 891.459,588.846 887.116,588.846 " fill=" rgb(91,60,17)" />
<ellipse cx="889.287" cy="588.846" rx="7.23811" ry="4.34286" fill="rgb(27,79,8)" />
<polygon points=" 586.121,614.036 588.812,615.83 591.503,614.036 591.503,587.127 586.121,587.127 " fill=" rgb(91,60,17)" />
<polygon points=" 596.884,591.527 597.557,591.527 590.83,594.517 588.812,594.517 " fill=" rgb(91,60,17)" />
<polygon points=" 580.739,592.599 580.066,592.599 586.794,595.588 588.812,595.588 " fill=" rgb(91,60,17)" />
<ellipse cx="588.812" cy="587.127" rx="8.96951" ry="5.3817" fill="rgb(27,79,8)" />
<ellipse cx="597.221" cy="591.527" rx="4.48475" ry="2.69085" fill="rgb(27,79,8)" />
<ellipse cx="580.403" cy="592.599" rx="4.48475" ry="2.69085" fill="rgb(27,79,8)" />
<polygon points=" 875.071,617.709 878.193,619.791 881.316,617.709 881.316,586.486 875.071,586.486 " fill=" rgb(91,60,17)" />
<polygon points=" 887.56,599.046 888.341,599.046 880.535,602.515 878.193,602.515 " fill=" rgb(91,60,17)" />
<ellipse cx="878.193" cy="586.486" rx="10.4076" ry="6.24459" fill="rgb(27,79,8)" />
<ellipse cx="887.951" cy="599.046" rx="5.20382" ry="3.12229" fill="rgb(27,79,8)" />
<polygon points=" 553.432,614.265 555.649,615.743 557.866,614.265 557.866,592.093 553.432,592.093 " fill=" rgb(91,60,17)" />
<polygon points=" 562.301,602.485 562.855,602.485 557.312,604.949 555.649,604.949 " fill=" rgb(91,60,17)" />
<polygon points=" 548.997,603.949 548.443,603.949 553.986,606.413 555.649,606.413 " fill=" rgb(91,60,17)" />
<ellipse cx="555.649" cy="592.093" rx="7.39083" ry="4.4345" fill="rgb(27,79,8)" />
<ellipse cx="562.578" cy="602.485" rx="3.69541" ry="2.21725" fill="rgb(27,79,8)" />
<ellipse cx="548.72" cy="603.949" rx="3.69541" ry="2.21725" fill="rgb(27,79,8)" />
<polygon points=" 480.795,617.03 483.409,618.772 486.022,617.03 486.022,590.898 480.795,590.898 " fill=" rgb(91,60,17)" />
<polygon points=" 491.248,604.227 491.901,604.227 485.368,607.13 483.409,607.13 " fill=" rgb(91,60,17)" />
<polygon points=" 475.569,604.629 474.916,604.629 481.449,607.532 483.409,607.532 " fill=" rgb(91,60,17)" />
<ellipse cx="483.409" cy="590.898" rx="8.71048" ry="5.22629" fill="rgb(27,79,8)" />
<ellipse cx="491.575" cy="604.227" rx="4.35524" ry="2.61314" fill="rgb(27,79,8)" />
<ellipse cx="475.243" cy="604.629" rx="4.35524" ry="2.61314" fill="rgb(27,79,8)" />
<polygon points=" 960.91,619.522 963.741,621.41 966.572,619.522 966.572,591.21 960.91,591.21 " fill=" rgb(91,60,17)" />
<polygon points=" 955.247,595.812 954.539,595.812 961.618,598.958 963.741,598.958 " fill=" rgb(91,60,17)" />
<ellipse cx="963.741" cy="591.21" rx="9.43753" ry="5.66252" fill="rgb(27,79,8)" />
<ellipse cx="954.893" cy="595.812" rx="4.71876" ry="2.83126" fill="rgb(27,79,8)" />
<polygon points=" 264.093,625.579 267.263,627.693 270.433,625.579 270.433,593.879 264.093,593.879 " fill=" rgb(91,60,17)" />
<polygon points=" 276.773,604.534 277.565,604.534 269.64,608.056 267.263,608.056 " fill=" rgb(91,60,17)" />
<polygon points=" 257.753,599.144 256.96,599.144 264.885,602.666 267.263,602.666 " fill=" rgb(91,60,17)" />
<ellipse cx="267.263" cy="593.879" rx="10.5667" ry="6.34" fill="rgb(27,79,8)" />
<ellipse cx="277.169" cy="604.534" rx="5.28334" ry="3.17" fill="rgb(27,79,8)" />
<ellipse cx="257.356" cy="599.144" rx="5.28334" ry="3.17" fill="rgb(27,79,8)" />
<polygon points=" 970.373,623.58 972.912,625.273 975.451,623.58 975.451,598.191 970.373,598.191 " fill=" rgb(91,60,17)" />
<polygon points=" 965.295,602.318 964.66,602.318 971.008,605.139 972.912,605.139 " fill=" rgb(91,60,17)" />
<ellipse cx="972.912" cy="598.191" rx="8.46314" ry="5.07788" fill="rgb(27,79,8)" />
<ellipse cx="964.978" cy="602.318" rx="4.23157" ry="2.53894" fill="rgb(27,79,8)" />
<polygon points=" 510.03,622.868 512.393,624.444 514.757,622.868 514.757,599.229 510.03,599.229 " fill=" rgb(91,60,17)" />
<polygon points=" 519.485,605.223 520.076,605.223 514.166,607.849 512.393,607.849 " fill=" rgb(91,60,17)" />
<polygon points=" 505.302,607.65 504.711,607.65 510.621,610.277 512.393,610.277 " fill=" rgb(91,60,17)" />
<ellipse cx="512.393" cy="599.229" rx="7.87982" ry="4.72789" fill="rgb(27,79,8)" />
<ellipse cx="519.781" cy="605.223" rx="3.93991" ry="2.36395" fill="rgb(27,79,8)" />
<ellipse cx="505.006" cy="607.65" rx="3.93991" ry="2.36395" fill="rgb(27,79,8)" />
<polygon points=" 841.864,625.994 844.55,627.784 847.236,625.994 847.236,599.135 841.864,599.135 " fill=" rgb(91,60,17)" />
<polygon points=" 836.492,608.822 835.821,608.822 842.536,611.807 844.55,611.807 " fill=" rgb(91,60,17)" />
<ellipse cx="844.55" cy="599.135" rx="8.9529" ry="5.37174" fill="rgb(27,79,8)" />
<ellipse cx="836.157" cy="608.822" rx="4.47645" ry="2.68587" fill="rgb(27,79,8)" />
<polygon points=" 141.806,632.292 144.691,634.215 147.576,632.292 147.576,603.444 141.806,603.444 " fill=" rgb(91,60,17)" />
<polygon points=" 153.345,620.62 154.067,620.62 146.855,623.825 144.691,623.825 " fill=" rgb(91,60,17)" />
<polygon points=" 136.037,618.426 135.316,618.426 142.528,621.631 144.691,621.631 " fill=" rgb(91,60,17)" />
<ellipse cx="144.691" cy="603.444" rx="9.61577" ry="5.76946" fill="rgb(27,79,8)" />
<ellipse cx="153.706" cy="620.62" rx="4.80789" ry="2.88473" fill="rgb(27,79,8)" />
<ellipse cx="135.676" cy="618.426" rx="4.80789" ry="2.88473" fill="rgb(27,79,8)" />
<polygon points=" 851.589,632.53 854.46,634.444 857.331,632.53 857.331,603.82 851.589,603.82 " fill=" rgb(91,60,17)" />
<polygon points=" 863.073,618.703 863.791,618.703 856.613,621.893 854.46,621.893 " fill=" rgb(91,60,17)" />
<polygon points=" 845.847,612.531 845.129,612.531 852.307,615.721 854.46,615.721 " fill=" rgb(91,60,17)" />
<ellipse cx="854.46" cy="603.82" rx="9.57029" ry="5.74217" fill="rgb(27,79,8)" />
<ellipse cx="863.432" cy="618.703" rx="4.78514" ry="2.87109" fill="rgb(27,79,8)" />
<ellipse cx="845.488" cy="612.531" rx="4.78514" ry="2.87109" fill="rgb(27,79,8)" />
<polygon points=" 304.036,633.061 306.986,635.028 309.937,633.061 309.937,603.556 304.036,603.556 " fill=" rgb(91,60,17)" />
<polygon points=" 315.838,619.68 316.575,619.68 309.199,622.959 306.986,622.959 " fill=" rgb(91,60,17)" />
<polygon points=" 298.135,621.284 297.397,621.284 304.773,624.562 306.986,624.562 " fill=" rgb(91,60,17)" />
<ellipse cx="306.986" cy="603.556" rx="9.83495" ry="5.90097" fill="rgb(27,79,8)" />
<ellipse cx="316.206" cy="619.68" rx="4.91747" ry="2.95048" fill="rgb(27,79,8)" />
<ellipse cx="297.766" cy="621.284" rx="4.91747" ry="2.95048" fill="rgb(27,79,8)" />
<polygon points=" 893.404,640.006 896.038,641.762 898.673,640.006 898.673,613.658 893.404,613.658 " fill=" rgb(91,60,17)" />
<polygon points=" 903.943,629.208 904.601,629.208 898.014,632.135 896.038,632.135 " fill=" rgb(91,60,17)" />
<polygon points=" 888.134,625.102 887.475,625.102 894.062,628.029 896.038,628.029 " fill=" rgb(91,60,17)" />
<ellipse cx="896.038" cy="613.658" rx="8.78261" ry="5.26957" fill="rgb(27,79,8)" />
<ellipse cx="904.272" cy="629.208" rx="4.39131" ry="2.63478" fill="rgb(27,79,8)" />
<ellipse cx="887.805" cy="625.102" rx="4.39131" ry="2.63478" fill="rgb(27,79,8)" />
<polygon points=" 306.026,641.389 308.286,642.896 310.546,641.389 310.546,618.789 306.026,618.789 " fill=" rgb(91,60,17)" />
<ellipse cx="308.286" cy="618.789" rx="7.53361" ry="4.52017" fill="rgb(27,79,8)" />
<polygon points=" 630.44,646.076 633.415,648.06 636.39,646.076 636.39,616.328 630.44,616.328 " fill=" rgb(91,60,17)" />
<polygon points=" 642.339,622.295 643.083,622.295 635.646,625.6 633.415,625.6 " fill=" rgb(91,60,17)" />
<ellipse cx="633.415" cy="616.328" rx="9.91607" ry="5.94964" fill="rgb(27,79,8)" />
<ellipse cx="642.711" cy="622.295" rx="4.95804" ry="2.97482" fill="rgb(27,79,8)" />
<polygon points=" 401.148,648.199 404.307,650.304 407.465,648.199 407.465,616.612 401.148,616.612 " fill=" rgb(91,60,17)" />
<polygon points=" 413.783,621.776 414.572,621.776 406.676,625.286 404.307,625.286 " fill=" rgb(91,60,17)" />
<polygon points=" 394.83,623.034 394.041,623.034 401.938,626.544 404.307,626.544 " fill=" rgb(91,60,17)" />
<ellipse cx="404.307" cy="616.612" rx="10.529" ry="6.31738" fill="rgb(27,79,8)" />
<ellipse cx="414.177" cy="621.776" rx="5.26449" ry="3.15869" fill="rgb(27,79,8)" />
<ellipse cx="394.436" cy="623.034" rx="5.26449" ry="3.15869" fill="rgb(27,79,8)" />
<polygon points=" 293.458,652.585 296.242,654.441 299.027,652.585 299.027,624.736 293.458,624.736 " fill=" rgb(91,60,17)" />
<polygon points=" 304.597,629.29 305.293,629.29 298.331,632.384 296.242,632.384 " fill=" rgb(91,60,17)" />
<polygon points=" 287.888,630.398 287.192,630.398 294.154,633.493 296.242,633.493 " fill=" rgb(91,60,17)" />
<ellipse cx="296.242" cy="624.736" rx="9.28288" ry="5.56973" fill="rgb(27,79,8)" />
<ellipse cx="304.945" cy="629.29" rx="4.64144" ry="2.78486" fill="rgb(27,79,8)" />
<ellipse cx="287.54" cy="630.398" rx="4.64144" ry="2.78486" fill="rgb(27,79,8)" />
<polygon points=" 681.215,652.341 683.573,653.914 685.931,652.341 685.931,628.76 681.215,628.76 " fill=" rgb(91,60,17)" />
<polygon points=" 676.499,636.247 675.909,636.247 681.804,638.867 683.573,638.867 " fill=" rgb(91,60,17)" />
<ellipse cx="683.573" cy="628.76" rx="7.86043" ry="4.71626" fill="rgb(27,79,8)" />
<ellipse cx="676.204" cy="636.247" rx="3.93021" ry="2.35813" fill="rgb(27,79,8)" />
<polygon points=" 824.07,655.77 826.824,657.606 829.578,655.77 829.578,628.231 824.07,628.231 " fill=" rgb(91,60,17)" />
<polygon points=" 835.086,638.443 835.774,638.443 828.89,641.503 826.824,641.503 " fill=" rgb(91,60,17)" />
<polygon points=" 818.563,632.659 817.874,632.659 824.759,635.719 826.824,635.719 " fill=" rgb(91,60,17)" />
<ellipse cx="826.824" cy="628.231" rx="9.17956" ry="5.50773" fill="rgb(27,79,8)" />
<ellipse cx="835.43" cy="638.443" rx="4.58978" ry="2.75387" fill="rgb(27,79,8)" />
<ellipse cx="818.218" cy="632.659" rx="4.58978" ry="2.75387" fill="rgb(27,79,8)" />
<polygon points=" 749.405,656.772 752.135,658.592 754.864,656.772 754.864,629.482 749.405,629.482 " fill=" rgb(91,60,17)" />
<polygon points=" 760.322,633.143 761.004,633.143 754.181,636.176 752.135,636.176 " fill=" rgb(91,60,17)" />
<ellipse cx="752.135" cy="629.482" rx="9.09677" ry="5.45806" fill="rgb(27,79,8)" />
<ellipse cx="760.663" cy="633.143" rx="4.54839" ry="2.72903" fill="rgb(27,79,8)" />
<polygon points=" 424.993,670.388 427.834,672.282 430.676,670.388 430.676,641.976 424.993,641.976 " fill=" rgb(91,60,17)" />
<polygon points=" 436.358,645.788 437.068,645.788 429.965,648.945 427.834,648.945 " fill=" rgb(91,60,17)" />
<ellipse cx="427.834" cy="641.976" rx="9.47062" ry="5.68237" fill="rgb(27,79,8)" />
<ellipse cx="436.713" cy="645.788" rx="4.73531" ry="2.84119" fill="rgb(27,79,8)" />
<polygon points=" 620.369,673.359 623.564,675.489 626.759,673.359 626.759,641.408 620.369,641.408 " fill=" rgb(91,60,17)" />
<polygon points=" 613.979,651.552 613.18,651.552 621.167,655.102 623.564,655.102 " fill=" rgb(91,60,17)" />
<ellipse cx="623.564" cy="641.408" rx="10.6502" ry="6.3901" fill="rgb(27,79,8)" />
<ellipse cx="613.579" cy="651.552" rx="5.32508" ry="3.19505" fill="rgb(27,79,8)" />
<polygon points=" 981.899,674.357 985.032,676.446 988.165,674.357 988.165,643.028 981.899,643.028 " fill=" rgb(91,60,17)" />
<polygon points=" 994.431,653.779 995.214,653.779 987.382,657.26 985.032,657.26 " fill=" rgb(91,60,17)" />
<polygon points=" 975.634,651.36 974.85,651.36 982.683,654.841 985.032,654.841 " fill=" rgb(91,60,17)" />
<ellipse cx="985.032" cy="643.028" rx="10.443" ry="6.2658" fill="rgb(27,79,8)" />
<ellipse cx="994.823" cy="653.779" rx="5.2215" ry="3.1329" fill="rgb(27,79,8)" />
<ellipse cx="975.242" cy="651.36" rx="5.2215" ry="3.1329" fill="rgb(27,79,8)" />
<polygon points=" 213.532,680.594 216.822,682.787 220.112,680.594 220.112,647.692 213.532,647.692 " fill=" rgb(91,60,17)" />
<polygon points=" 226.693,660.581 227.515,660.581 219.29,664.236 216.822,664.236 " fill=" rgb(91,60,17)" />
<ellipse cx="216.822" cy="647.692" rx="10.9672" ry="6.58035" fill="rgb(27,79,8)" />
<ellipse cx="227.104" cy="660.581" rx="5.48362" ry="3.29017" fill="rgb(27,79,8)" />
<polygon points=" 614.309,681.046 617.658,683.279 621.007,681.046 621.007,647.557 614.309,647.557 " fill=" rgb(91,60,17)" />
<polygon points=" 627.705,664.918 628.542,664.918 620.17,668.639 617.658,668.639 " fill=" rgb(91,60,17)" />
<polygon points=" 607.611,657.718 606.774,657.718 615.146,661.439 617.658,661.439 " fill=" rgb(91,60,17)" />
<ellipse cx="617.658" cy="647.557" rx="11.163" ry="6.69782" fill="rgb(27,79,8)" />
<ellipse cx="628.123" cy="664.918" rx="5.58152" ry="3.34891" fill="rgb(27,79,8)" />
<ellipse cx="607.193" cy="657.718" rx="5.58152" ry="3.34891" fill="rgb(27,79,8)" />
<polygon points=" 610.218,685.007 613.063,686.905 615.909,685.007 615.909,656.552 610.218,656.552 " fill=" rgb(91,60,17)" />
<polygon points=" 621.6,667.532 622.312,667.532 615.198,670.694 613.063,670.694 " fill=" rgb(91,60,17)" />
<polygon points=" 604.527,673.333 603.815,673.333 610.929,676.495 613.063,676.495 " fill=" rgb(91,60,17)" />
<ellipse cx="613.063" cy="656.552" rx="9.4853" ry="5.69118" fill="rgb(27,79,8)" />
<ellipse cx="621.956" cy="667.532" rx="4.74265" ry="2.84559" fill="rgb(27,79,8)" />
<ellipse cx="604.171" cy="673.333" rx="4.74265" ry="2.84559" fill="rgb(27,79,8)" />
<polygon points=" 226.682,684.61 229.219,686.301 231.756,684.61 231.756,659.241 226.682,659.241 " fill=" rgb(91,60,17)" />
<polygon points=" 236.83,663.389 237.464,663.389 231.122,666.208 229.219,666.208 " fill=" rgb(91,60,17)" />
<polygon points=" 221.608,664.399 220.974,664.399 227.317,667.218 229.219,667.218 " fill=" rgb(91,60,17)" />
<ellipse cx="229.219" cy="659.241" rx="8.45651" ry="5.07391" fill="rgb(27,79,8)" />
<ellipse cx="237.147" cy="663.389" rx="4.22826" ry="2.53695" fill="rgb(27,79,8)" />
<ellipse cx="221.291" cy="664.399" rx="4.22826" ry="2.53695" fill="rgb(27,79,8)" />
<polygon points=" 430.872,689.714 434.156,691.903 437.439,689.714 437.439,656.883 430.872,656.883 " fill=" rgb(91,60,17)" />
<polygon points=" 444.005,670.089 444.826,670.089 436.618,673.737 434.156,673.737 " fill=" rgb(91,60,17)" />
<ellipse cx="434.156" cy="656.883" rx="10.9438" ry="6.56626" fill="rgb(27,79,8)" />
<ellipse cx="444.415" cy="670.089" rx="5.47188" ry="3.28313" fill="rgb(27,79,8)" />
<polygon points=" 321.003,689.596 324.083,691.649 327.162,689.596 327.162,658.799 321.003,658.799 " fill=" rgb(91,60,17)" />
<polygon points=" 333.322,664.976 334.092,664.976 326.392,668.397 324.083,668.397 " fill=" rgb(91,60,17)" />
<ellipse cx="324.083" cy="658.799" rx="10.2655" ry="6.15928" fill="rgb(27,79,8)" />
<ellipse cx="333.707" cy="664.976" rx="5.13274" ry="3.07964" fill="rgb(27,79,8)" />
<polygon points=" 79.7806,691.677 83.1125,693.898 86.4444,691.677 86.4444,658.357 79.7806,658.357 " fill=" rgb(91,60,17)" />
<polygon points=" 93.1083,666.017 93.9413,666.017 85.6114,669.719 83.1125,669.719 " fill=" rgb(91,60,17)" />
<polygon points=" 73.1167,665.044 72.2837,665.044 80.6135,668.746 83.1125,668.746 " fill=" rgb(91,60,17)" />
<ellipse cx="83.1125" cy="658.357" rx="11.1064" ry="6.66386" fill="rgb(27,79,8)" />
<ellipse cx="93.5248" cy="666.017" rx="5.55322" ry="3.33193" fill="rgb(27,79,8)" />
<ellipse cx="72.7002" cy="665.044" rx="5.55322" ry="3.33193" fill="rgb(27,79,8)" />
<polygon points=" 308.295,695.755 311.486,697.882 314.677,695.755 314.677,663.845 308.295,663.845 " fill=" rgb(91,60,17)" />
<polygon points=" 321.059,669.062 321.857,669.062 313.879,672.608 311.486,672.608 " fill=" rgb(91,60,17)" />
<polygon points=" 301.913,670.333 301.115,670.333 309.093,673.878 311.486,673.878 " fill=" rgb(91,60,17)" />
<ellipse cx="311.486" cy="663.845" rx="10.6367" ry="6.38204" fill="rgb(27,79,8)" />
<ellipse cx="321.458" cy="669.062" rx="5.31837" ry="3.19102" fill="rgb(27,79,8)" />
<ellipse cx="301.514" cy="670.333" rx="5.31837" ry="3.19102" fill="rgb(27,79,8)" />
<polygon points=" 49.1355,697.804 52.5082,700.052 55.8809,697.804 55.8809,664.077 49.1355,664.077 " fill=" rgb(91,60,17)" />
<polygon points=" 62.6263,672.629 63.4695,672.629 55.0377,676.376 52.5082,676.376 " fill=" rgb(91,60,17)" />
<polygon points=" 42.39,676.092 41.5468,676.092 49.9786,679.84 52.5082,679.84 " fill=" rgb(91,60,17)" />
<ellipse cx="52.5082" cy="664.077" rx="11.2424" ry="6.74542" fill="rgb(27,79,8)" />
<ellipse cx="63.0479" cy="672.629" rx="5.62119" ry="3.37271" fill="rgb(27,79,8)" />
<ellipse cx="41.9684" cy="676.092" rx="5.62119" ry="3.37271" fill="rgb(27,79,8)" />
<polygon points=" 792.928,698.121 796.319,700.382 799.71,698.121 799.71,664.21 792.928,664.21 " fill=" rgb(91,60,17)" />
<polygon points=" 806.493,672.167 807.34,672.167 798.863,675.935 796.319,675.935 " fill=" rgb(91,60,17)" />
<ellipse cx="796.319" cy="664.21" rx="11.3035" ry="6.78208" fill="rgb(27,79,8)" />
<ellipse cx="806.916" cy="672.167" rx="5.65174" ry="3.39104" fill="rgb(27,79,8)" />
<polygon points=" 593.607,698.478 596.655,700.51 599.704,698.478 599.704,667.994 593.607,667.994 " fill=" rgb(91,60,17)" />
<polygon points=" 605.801,683.543 606.563,683.543 598.942,686.93 596.655,686.93 " fill=" rgb(91,60,17)" />
<polygon points=" 587.51,684.011 586.748,684.011 594.369,687.398 596.655,687.398 " fill=" rgb(91,60,17)" />
<ellipse cx="596.655" cy="667.994" rx="10.1613" ry="6.09676" fill="rgb(27,79,8)" />
<ellipse cx="606.182" cy="683.543" rx="5.08064" ry="3.04838" fill="rgb(27,79,8)" />
<ellipse cx="587.129" cy="684.011" rx="5.08064" ry="3.04838" fill="rgb(27,79,8)" />
<polygon points=" 209.374,704.428 212.391,706.439 215.407,704.428 215.407,674.266 209.374,674.266 " fill=" rgb(91,60,17)" />
<ellipse cx="212.391" cy="674.266" rx="10.054" ry="6.03239" fill="rgb(27,79,8)" />
<polygon points=" 394.704,704.82 397.533,706.707 400.363,704.82 400.363,676.522 394.704,676.522 " fill=" rgb(91,60,17)" />
<polygon points=" 406.023,688.178 406.73,688.178 399.656,691.323 397.533,691.323 " fill=" rgb(91,60,17)" />
<polygon points=" 389.044,691.877 388.337,691.877 395.411,695.022 397.533,695.022 " fill=" rgb(91,60,17)" />
<ellipse cx="397.533" cy="676.522" rx="9.43281" ry="5.65969" fill="rgb(27,79,8)" />
<ellipse cx="406.377" cy="688.178" rx="4.71641" ry="2.82984" fill="rgb(27,79,8)" />
<ellipse cx="388.69" cy="691.877" rx="4.71641" ry="2.82984" fill="rgb(27,79,8)" />
<polygon points=" 911.487,708.144 914.791,710.347 918.095,708.144 918.095,675.105 911.487,675.105 " fill=" rgb(91,60,17)" />
<polygon points=" 924.702,686.21 925.528,686.21 917.269,689.881 914.791,689.881 " fill=" rgb(91,60,17)" />
<polygon points=" 904.879,680.592 904.053,680.592 912.313,684.263 914.791,684.263 " fill=" rgb(91,60,17)" />
<ellipse cx="914.791" cy="675.105" rx="11.013" ry="6.60781" fill="rgb(27,79,8)" />
<ellipse cx="925.115" cy="686.21" rx="5.50651" ry="3.30391" fill="rgb(27,79,8)" />
<ellipse cx="904.466" cy="680.592" rx="5.50651" ry="3.30391" fill="rgb(27,79,8)" />
<polygon points=" 967.328,706.461 970.075,708.292 972.822,706.461 972.822,678.99 967.328,678.99 " fill=" rgb(91,60,17)" />
<polygon points=" 978.316,691.936 979.003,691.936 972.135,694.989 970.075,694.989 " fill=" rgb(91,60,17)" />
<ellipse cx="970.075" cy="678.99" rx="9.15676" ry="5.49406" fill="rgb(27,79,8)" />
<ellipse cx="978.66" cy="691.936" rx="4.57838" ry="2.74703" fill="rgb(27,79,8)" />
<polygon points=" 325.295,708.459 328.379,710.515 331.463,708.459 331.463,677.622 325.295,677.622 " fill=" rgb(91,60,17)" />
<polygon points=" 337.63,681.902 338.401,681.902 330.692,685.328 328.379,685.328 " fill=" rgb(91,60,17)" />
<polygon points=" 319.128,683.285 318.357,683.285 326.066,686.711 328.379,686.711 " fill=" rgb(91,60,17)" />
<ellipse cx="328.379" cy="677.622" rx="10.2791" ry="6.16748" fill="rgb(27,79,8)" />
<ellipse cx="338.016" cy="681.902" rx="5.13956" ry="3.08374" fill="rgb(27,79,8)" />
<ellipse cx="318.742" cy="683.285" rx="5.13956" ry="3.08374" fill="rgb(27,79,8)" />
<polygon points=" 187.231,706.065 189.754,707.747 192.276,706.065 192.276,680.839 187.231,680.839 " fill=" rgb(91,60,17)" />
<polygon points=" 197.321,690.193 197.952,690.193 191.646,692.996 189.754,692.996 " fill=" rgb(91,60,17)" />
<polygon points=" 182.186,684.894 181.555,684.894 187.862,687.697 189.754,687.697 " fill=" rgb(91,60,17)" />
<ellipse cx="189.754" cy="680.839" rx="8.40876" ry="5.04525" fill="rgb(27,79,8)" />
<ellipse cx="197.637" cy="690.193" rx="4.20438" ry="2.52263" fill="rgb(27,79,8)" />
<ellipse cx="181.87" cy="684.894" rx="4.20438" ry="2.52263" fill="rgb(27,79,8)" />
<polygon points=" 640.626,708.825 643.678,710.86 646.73,708.825 646.73,678.303 640.626,678.303 " fill=" rgb(91,60,17)" />
<polygon points=" 652.835,689.408 653.598,689.408 645.967,692.8 643.678,692.8 " fill=" rgb(91,60,17)" />
<polygon points=" 634.521,695.557 633.758,695.557 641.389,698.949 643.678,698.949 " fill=" rgb(91,60,17)" />
<ellipse cx="643.678" cy="678.303" rx="10.1741" ry="6.10446" fill="rgb(27,79,8)" />
<ellipse cx="653.216" cy="689.408" rx="5.08705" ry="3.05223" fill="rgb(27,79,8)" />
<ellipse cx="634.14" cy="695.557" rx="5.08705" ry="3.05223" fill="rgb(27,79,8)" />
</svg>